<?xml version="1.0" standalone="no"?>
<!DOCTYPE svg PUBLIC "-//W3C//DTD SVG 1.1//EN" "http://www.w3.org/Graphics/SVG/1.1/DTD/svg11.dtd" >
<svg>
<metadata>
Created by FontForge 20090914 at Fri Mar 10 10:58:52 2017
 By www-data
(URW)++,Copyright 2005 by (URW)++ Design &#38; Development
</metadata>
<defs>
<font id="CorporateSTCY-Bol" horiz-adv-x="1024" vert-adv-y="2048" >
  <font-face 
    font-family="CorporateSTCY"
    font-weight="700"
    font-stretch="normal"
    units-per-em="2048"
    panose-1="0 0 0 0 0 0 0 0 0 0"
    ascent="1591"
    descent="-457"
    x-height="973"
    cap-height="1365"
    bbox="-82.001 -465 2076 1783"
    underline-thickness="227"
    underline-position="-99"
    unicode-range="U+0020-U+2265"
  />
<missing-glyph horiz-adv-x="512" vert-adv-y="2457" 
d="M51 0v1365h410v-1365h-410zM410 51v1263h-308v-1263h308z" />
    <glyph glyph-name=".notdef" horiz-adv-x="512" vert-adv-y="2457" 
d="M51 0v1365h410v-1365h-410zM410 51v1263h-308v-1263h308z" />
    <glyph glyph-name="space" unicode=" " horiz-adv-x="512" vert-adv-y="2457" 
 />
    <glyph glyph-name="exclam" unicode="!" horiz-adv-x="516" vert-adv-y="2457" 
d="M123 1331h270l-28 -878h-216zM260 298c38.667 0 75.332 -16 109.999 -48c29.333 -27.333 44 -64 44 -110c0 -44 -14.667 -80.333 -44 -109c-31.333 -30.667 -68.666 -46 -111.999 -46s-80.333 15.333 -111 46c-30.667 30 -46 66.333 -46 109c0 44 15.333 80.667 46 110
c33.333 32 71 48 113 48z" />
    <glyph glyph-name="quotedbl" unicode="&#x22;" vert-adv-y="2457" 
d="M419 817h-152l-47 548h246zM758 817h-153l-46 548h246z" />
    <glyph glyph-name="numbersign" unicode="#" horiz-adv-x="1229" vert-adv-y="2457" 
d="M1158 577l-26 -170h-240l-65 -407h-198l65 407h-250l-64 -407h-198l64 407h-234l27 170h234l38 238h-233l26 170h234l60 380h198l-60 -380h248l60 380h199l-60 -380h240l-27 -170h-240l-38 -238h240zM757 815h-248l-38 -238h248z" />
    <glyph glyph-name="dollar" unicode="$" horiz-adv-x="1167" vert-adv-y="2457" 
d="M646 1166v-347c118 -37.333 201 -69.333 249 -96c134 -74.667 201 -185 201 -331c0 -101.333 -32.333 -189 -97 -263c-79.333 -90.667 -197 -141.667 -353 -153v-182h-125v183c-118.667 12 -212.667 43.333 -282 94c-53.333 38.667 -94.333 88.667 -123 150
c-30 63.333 -45 132.666 -45 207.999v26h246c6.66699 -85.333 26.334 -146 59.001 -182c34 -38 82.333 -63.667 145 -77v398c-124.667 40.667 -207.667 72.667 -249 96c-113.333 65.333 -170 167 -170 305c0 106.667 35.333 195.334 106 266.001
c72.667 73.333 177 116.333 313 129v154h125v-157c143.333 -18.667 251.333 -75 324 -169c51.333 -67.333 77 -149 77 -245h-241c-7.33301 56.667 -23 99 -47 127c-26.667 30.667 -64.334 52.667 -113.001 66zM521 1168c-112 -23.333 -168 -74 -168 -152
c0 -50 22.333 -88.667 67 -116c20 -12 53.667 -25.667 101 -41v309zM646 191c46 4.66699 82.999 15.333 110.999 32c56 32.667 84 80.667 84 144c0 57.333 -24.667 102.333 -74 135c-19.333 13.333 -59.666 30 -120.999 50v-361z" />
    <glyph glyph-name="percent" unicode="%" horiz-adv-x="1460" vert-adv-y="2457" 
d="M1024 1365h200l-791 -1365h-201zM1105 650c40.667 0 82 -10.6689 124 -32.002c56.667 -29.333 99.667 -74.666 129 -135.999c24 -52 36 -106.333 36 -163c0 -55.333 -12 -109.333 -36 -162c-28.667 -60.667 -71.667 -106 -129 -136c-40 -20.667 -82 -31 -126 -31
c-78.667 0 -146 31.333 -202 94s-84 141.334 -84 236.001c0 104.667 33.333 188.667 100 252c54 52 116.667 78 188 78zM1107 509.998c-40.667 0 -73.001 -18.332 -97.001 -54.999c-22.667 -34.667 -34 -79.667 -34 -135c0 -60.667 13 -108 39 -142c24 -32 54 -48 90 -48
c39.333 0 71 18.333 95 55c23.333 34.667 35 79.667 35 135c0 59.333 -13.333 106.666 -40 141.999c-23.333 32 -52.666 48 -87.999 48zM353.999 1375c80.667 0 148.667 -31.3311 204 -93.998c56.667 -62.667 85 -141.334 85 -236.001c0 -104 -33.333 -188 -100 -252
c-54.667 -52 -118.334 -78 -191.001 -78c-39.333 0 -79.666 10.667 -120.999 32c-57.333 29.333 -100.333 74.666 -129 135.999c-24 51.333 -36 105.333 -36 162c0 104.667 33.333 189 100 253c54 51.333 116.667 77 188 77zM355.999 1235
c-40.667 0 -73 -18.334 -97 -55.001c-22.667 -34 -34 -79 -34 -135c0 -59.333 13 -106.666 39 -141.999c24 -32 54 -48 90 -48c39.333 0 71.333 18.333 96 55c22.667 34.667 34 79.667 34 135c0 60 -13 107.667 -39 143c-24 31.333 -53.667 47 -89 47z" />
    <glyph glyph-name="ampersand" unicode="&#x26;" horiz-adv-x="1188" vert-adv-y="2457" 
d="M875 682l197 -0.00195312c1.33301 -34 2 -57.667 2 -71c0 -156 -36.333 -281.667 -109 -377l175 -234h-260l-57 90c-37.333 -34 -74 -58.667 -110 -74c-58.667 -26 -128.667 -39 -210 -39c-117.333 0 -215.333 29 -294 87c-102.667 76.667 -154 179.667 -154 309
c0 82.667 24.333 156.334 73 221.001c28.667 37.333 86.667 95.333 174 174c-42 53.333 -71.333 93 -88 119c-34.667 53.333 -52 109.333 -52 168c0 88.667 34 160 102 214c62 48.667 139 73 231 73c91.333 0 165.666 -24.667 222.999 -74c62.667 -54 94 -125.333 94 -214
c0 -84 -28.333 -158 -85 -222c-27.333 -30 -65.666 -66 -114.999 -108l226 -307c26 50 39 113.667 39 191c0 4.66699 -0.666992 29.334 -2 74.001zM482 871.998l9.00098 6.99902c76.667 65.333 115 126 115 182c0 34.667 -12.667 60.334 -38 77.001
c-20 12.667 -43 19 -69 19c-31.333 0 -57.333 -9 -78 -27c-21.333 -18.667 -32 -43 -32 -73c0 -31.333 9.66699 -63 29 -95c11.333 -19.333 32.666 -49.333 63.999 -90zM439.001 586.997c-28 -23.333 -51.667 -44.6689 -71 -64.002
c-56.667 -57.333 -85 -112.666 -85 -165.999c0 -51.333 19.333 -93.666 58 -126.999c40 -34 95.333 -51 166 -51c78 0 141 22.667 189 68z" />
    <glyph glyph-name="quotesingle" unicode="'" horiz-adv-x="512" vert-adv-y="2457" 
d="M332 817h-152l-47 548h246z" />
    <glyph glyph-name="parenleft" unicode="(" horiz-adv-x="626" vert-adv-y="2457" 
d="M370 1377l190 0.00195312c-143.333 -226.667 -215 -521.334 -215 -884.001c0 -377.333 71.667 -678.333 215 -903h-190c-165.333 233.333 -248 530.666 -248 891.999c0 358 82.667 656.333 248 895z" />
    <glyph glyph-name="parenright" unicode=")" horiz-adv-x="626" vert-adv-y="2457" 
d="M256 -410l-190 -0.000976562c143.333 224.667 215 519 215 883c0 376.667 -71.667 678 -215 904h190c165.333 -235.333 248 -532.666 248 -891.999c0 -360 -82.667 -658.333 -248 -895z" />
    <glyph glyph-name="asterisk" unicode="*" vert-adv-y="2457" 
d="M457 1088v243h111v-243l230 75l35 -105l-231 -75l143 -196l-90 -66l-143 197l-142 -197l-90 66l143 196l-231 75l34 105z" />
    <glyph glyph-name="plus" unicode="+" horiz-adv-x="1167" vert-adv-y="2457" 
d="M683 779h387v-192h-387v-402h-199v402h-387v192h387v401h199v-401z" />
    <glyph glyph-name="comma" unicode="," horiz-adv-x="515" vert-adv-y="2457" 
d="M176 -465l-129.998 0.000976562c111.333 154.667 171.666 311.334 180.999 470.001c-100.667 13.333 -151 60.333 -151 141c0 43.333 16.333 80 49 110c30.667 28.667 68 43 112 43c49.333 0 89.666 -19.333 120.999 -58c30.667 -38.667 46 -92.334 46 -161.001
c0 -102.667 -29.667 -210.334 -89 -323.001c-34.667 -65.333 -81 -139.333 -139 -222z" />
    <glyph glyph-name="hyphen" unicode="-" horiz-adv-x="535" vert-adv-y="2457" 
d="M0 607h535v-182h-535v182z" />
    <glyph glyph-name="period" unicode="." horiz-adv-x="515" vert-adv-y="2457" 
d="M259 298c38.667 0 75.332 -16 109.999 -48c29.333 -27.333 44 -64 44 -110c0 -44 -14.667 -80.333 -44 -109c-31.333 -30.667 -68.666 -46 -111.999 -46s-80.333 15.333 -111 46c-30.667 30 -46 66.333 -46 109c0 44 15.333 80.667 46 110c33.333 32 71 48 113 48z" />
    <glyph glyph-name="slash" unicode="/" horiz-adv-x="1140" vert-adv-y="2457" 
d="M43 -398l865 1763h189l-864 -1763h-190z" />
    <glyph glyph-name="zero" unicode="0" horiz-adv-x="1167" vert-adv-y="2457" 
d="M583 1363c150.667 0 268.669 -59.333 354.002 -178c88.667 -124 133 -295.333 133 -514c0 -218 -44.333 -389 -133 -513c-84.667 -118.667 -202.334 -178 -353.001 -178c-151.333 0 -269.333 59.333 -354 178c-88.667 124 -133 298.333 -133 523
c0 104.667 13.667 208.667 41 312c33.333 124 95.666 220.333 186.999 289c72.667 54 158.667 81 258 81zM583.002 1153c-62.667 0 -111 -27.333 -145 -82c-56.667 -91.333 -85 -222.333 -85 -393c0 -179.333 28.333 -315 85 -407c33.333 -54 82 -81 146 -81
c62.667 0 110.667 27 144 81c57.333 92.667 86 226 86 400c0 176.667 -28.667 310 -86 400c-34.667 54.667 -83 82 -145 82z" />
    <glyph glyph-name="one" unicode="1" horiz-adv-x="1167" vert-adv-y="2457" 
d="M339 956v140.001c92 1.33301 164.667 22.666 218 63.999c45.333 35.333 78 94.333 98 177h174v-1337h-256v956h-234z" />
    <glyph glyph-name="two" unicode="2" horiz-adv-x="1167" vert-adv-y="2457" 
d="M388 957l-213.997 0.000976562c-0.666992 102.667 25 187.667 77 255c77.333 100.667 192.333 151 345 151c128 0 230.333 -35 307 -105c68.667 -62.667 103 -147 103 -253c0 -68.667 -16.667 -133 -50 -193c-40.667 -72.667 -122.334 -180.667 -245.001 -324
c-86.667 -100 -163 -184.667 -229 -254h533l1 -234h-863l-1 206l404 467c80 94.667 133 166.667 159 216c21.333 41.333 32 78 32 110c0 39.333 -14.667 72.666 -44 99.999c-30.667 28 -70.334 42 -119.001 42c-72 0 -125.667 -26.333 -161 -79
c-18.667 -27.333 -30.334 -62.333 -35.001 -105z" />
    <glyph glyph-name="three" unicode="3" horiz-adv-x="1167" vert-adv-y="2457" 
d="M387 978l-215.998 -0.00195312c3.33301 108.667 36.666 196.334 99.999 263.001c76.667 81.333 187.667 122 333 122c118.667 0 212.667 -29.667 282 -89c77.333 -66 116 -154.667 116 -266c0 -86 -25.667 -156.667 -77 -212c-31.333 -34 -77.666 -63 -138.999 -87
c156.667 -43.333 235 -147.333 235 -312c0 -130.667 -47 -235.667 -141 -315c-81.333 -68.667 -186 -103 -314 -103c-102 0 -191 20.333 -267 61c-129.333 69.333 -194 189.333 -194 360h229c0.666992 -53.333 16 -97.666 46 -132.999c39.333 -45.333 99 -68 179 -68
c65.333 0 115.666 16.667 150.999 50c38.667 36 58 85 58 147c0 64 -22.333 111.667 -67 143c-39.333 27.333 -102 43 -188 47c-36.667 2 -74.334 3 -113.001 3v206c22.667 -0.666992 39 -1 49 -1c90 0 157.333 11.667 202 35c30 16 53.333 38.333 70 67
c17.333 28.667 26 59 26 91c0 48 -17 87 -51 117c-31.333 27.333 -71.666 41 -120.999 41c-66 0 -116 -22.333 -150 -67c-18.667 -24.667 -31.334 -58 -38.001 -100z" />
    <glyph glyph-name="four" unicode="4" horiz-adv-x="1167" vert-adv-y="2457" 
d="M860 480h240v-204h-234v-293h-257v293h-552v203l510 858h293v-857zM622 480v579l-327 -579h327z" />
    <glyph glyph-name="five" unicode="5" horiz-adv-x="1167" vert-adv-y="2457" 
d="M286 1331l669 -0.00195312l-14 -228h-471l-53 -259c64 38.667 133 58 207 58c138 0 247 -50.333 327 -151c60.667 -76 91 -171 91 -285c0 -150.667 -50 -272.667 -150 -366c-84.667 -80 -191.334 -120 -320.001 -120c-158 0 -277 51 -357 153
c-53.333 68.667 -83 150.334 -89 245.001h240c17.333 -117.333 82.666 -176 195.999 -176c64.667 0 114.334 20.667 149.001 62c42.667 51.333 64 115 64 191c0 72.667 -20 133.334 -60 182.001c-33.333 40 -79.666 60 -138.999 60c-76 0 -144.333 -36 -205 -108l-218 32z
" />
    <glyph glyph-name="six" unicode="6" horiz-adv-x="1167" vert-adv-y="2457" 
d="M598 1352l278 -0.000976562c-158.667 -197.333 -267.667 -343.333 -327 -438c36.667 4.66699 66 7 88 7c130.667 0 234.667 -47 312 -141c66.667 -80.667 100 -184 100 -310c0 -159.333 -53.667 -286.666 -161 -381.999c-81.333 -72.667 -180 -109 -296 -109
c-135.333 0 -246.333 44 -333 132c-94 94.667 -141 216 -141 364c0 158 57.667 324 173 498c54 82 132.333 181 235 297zM583 724.999c-54 0 -100.001 -19.001 -138.001 -57.001c-47.333 -48 -71 -117 -71 -207c0 -90.667 23.667 -160 71 -208
c38.667 -38.667 84 -58 136 -58c55.333 0 102.333 19.333 141 58c47.333 48 71 117.667 71 209c0 88.667 -23.667 157.334 -71 206.001c-37.333 38 -83.666 57 -138.999 57z" />
    <glyph glyph-name="seven" unicode="7" horiz-adv-x="1167" vert-adv-y="2457" 
d="M189 1331h904v-193l-630 -1138h-281l604 1088h-597v243z" />
    <glyph glyph-name="eight" unicode="8" horiz-adv-x="1167" vert-adv-y="2457" 
d="M291 703c-99.333 62 -149 151 -149 267c0 124.667 50.333 225 151 301c82 61.333 179 92 291 92s208.667 -30.667 290 -92c100.667 -76 151 -176.333 151 -301c0 -116.667 -49.667 -205.667 -149 -267c117.333 -68 176 -168.667 176 -302
c0 -132.667 -51.667 -239.334 -155 -320.001c-86 -67.333 -190.333 -101 -313 -101s-227 33.667 -313 101c-103.333 80 -155 186.667 -155 320c0 132.667 58.333 233.334 175 302.001zM587 1158c-54.667 0 -99.333 -15.667 -134 -47
c-36.667 -33.333 -55 -77.666 -55 -132.999c0 -54.667 18.333 -98.667 55 -132c35.333 -31.333 79.333 -47 132 -47c52 0 95.667 15.667 131 47c36.667 33.333 55 77.666 55 132.999c0 56 -18.333 100 -55 132c-35.333 31.333 -78.333 47 -129 47zM585.001 595
c-46 0 -87.666 -11 -124.999 -33c-58.667 -36 -88 -93.667 -88 -173c0 -78 29.333 -135 88 -171c36.667 -22 78 -33 124 -33s87 11 123 33c59.333 36 89 93.333 89 172s-29.667 136 -89 172c-36.667 22 -77.334 33 -122.001 33z" />
    <glyph glyph-name="nine" unicode="9" horiz-adv-x="1167" vert-adv-y="2457" 
d="M565 -21l-276.999 0.000976562l17 21c137.333 175.333 220 283.333 248 324l65 99c-33.333 -4.66699 -62.666 -7 -87.999 -7c-128 0 -231.333 47.333 -310 142c-68 81.333 -102 183.666 -102 306.999c0 164 53.667 293.333 161 388
c83.333 73.333 184.666 110 303.999 110c122.667 0 226 -38 310 -114c104 -94.667 156 -223.334 156 -386.001c0 -144 -45.667 -291.667 -137 -443c-48.667 -81.333 -103.334 -158.666 -164.001 -231.999c-11.333 -14 -65 -75 -161 -183zM586.001 1147
c-56 0 -103 -19.333 -141 -58c-47.333 -48 -71 -118.333 -71 -211c0 -89.333 23.667 -159 71 -209c36.667 -38 83 -57 139 -57c55.333 0 101.333 19 138 57c47.333 50 71 120 71 210c0 92 -23.667 162 -71 210c-38 38.667 -83.333 58 -136 58z" />
    <glyph glyph-name="colon" unicode=":" horiz-adv-x="515" vert-adv-y="2457" 
d="M259 298c38.667 0 75.332 -16 109.999 -48c29.333 -27.333 44 -64 44 -110c0 -44 -14.667 -80.333 -44 -109c-31.333 -30.667 -68.666 -46 -111.999 -46s-80.333 15.333 -111 46c-30.667 30 -46 66.333 -46 109c0 44 15.333 80.667 46 110c33.333 32 71 48 113 48z
M258.998 976c39.333 0 75.999 -16 109.999 -48c29.333 -28 44 -64.333 44 -109c0 -44 -14.667 -80.667 -44 -110c-32 -30.667 -69.333 -46 -112 -46s-79.667 15.333 -111 46c-30.667 30.667 -46 67.334 -46 110.001c0 43.333 15.333 79.666 46 108.999
c32.667 32 70.334 48 113.001 48z" />
    <glyph glyph-name="semicolon" unicode=";" horiz-adv-x="515" vert-adv-y="2457" 
d="M242 976c40.667 0 77.332 -16 109.999 -48c29.333 -28.667 44 -65 44 -109s-14.667 -80.667 -44 -110c-32 -30.667 -69.333 -46 -112 -46c-43.333 0 -80.333 15.333 -111 46c-30.667 30 -46 66.667 -46 110c0 44 15.333 80.333 46 109c32.667 32 70.334 48 113.001 48z
M175.998 -465l-129.998 0.000976562c111.333 154.667 171.666 311.334 180.999 470.001c-100.667 13.333 -151 60.333 -151 141c0 43.333 16.333 80 49 110c30.667 28.667 68 43 112 43c49.333 0 89.666 -19.333 120.999 -58c30.667 -38.667 46 -92.334 46 -161.001
c0 -102.667 -29.667 -210.334 -89 -323.001c-34.667 -65.333 -81 -139.333 -139 -222z" />
    <glyph glyph-name="less" unicode="&#x3c;" vert-adv-y="2457" 
d="M955 1251v-251l-620 -304l620 -306v-248l-887 448v213z" />
    <glyph glyph-name="equal" unicode="=" horiz-adv-x="1167" vert-adv-y="2457" 
d="M97 949h973v-192h-973v192zM97 608h973v-192h-973v192z" />
    <glyph glyph-name="greater" unicode="&#x3e;" vert-adv-y="2457" 
d="M69 141v250l620 305l-620 305v249l887 -449v-212z" />
    <glyph glyph-name="question" unicode="?" horiz-adv-x="855" vert-adv-y="2457" 
d="M440 298c39.333 0 76 -16 110 -48c29.333 -27.333 44 -64 44 -110c0 -44 -14.667 -80.333 -44 -109c-31.333 -30.667 -68.333 -46 -111 -46c-44 0 -81.333 15.333 -112 46s-46 67 -46 109c0 44 15.333 80.667 46 110c33.333 32 71 48 113 48zM552 444
l-231.999 -0.00390625v23c1.33301 98.667 6 163.334 14 194.001c12.667 46.667 52 105.334 118 176.001c50.667 54.667 81.334 92 92.001 112c14.667 27.333 22 53.333 22 78c0 34.667 -12 62.667 -36 84c-20.667 18 -48.334 27 -83.001 27c-92 0 -140 -55 -144 -165h-199
c1.33301 49.333 5.33301 90.333 12 123c18.667 96 71 167.333 157 214c57.333 31.333 126.666 47 207.999 47c109.333 0 194.333 -27.333 255 -82c62.667 -56 94 -132 94 -228c0 -70.667 -19.333 -132.667 -58 -186c-22 -31.333 -57.667 -74 -107 -128
c-56 -61.333 -88.667 -103.666 -98 -126.999c-10 -23.333 -15 -61.666 -15 -114.999v-30v-17z" />
    <glyph glyph-name="at" unicode="@" horiz-adv-x="1502" vert-adv-y="2457" 
d="M975 1010h175.001l-77 -397c-9.33301 -47.333 -14 -78.666 -14 -93.999c0 -28 5.66699 -50 17 -66c8.66699 -10.667 19.667 -15.667 33 -15c35.333 2 68 25.667 98 71c52 80 78 171.667 78 275c0 138 -47.333 249.333 -142 334c-90 80 -208.333 120 -355 120
c-160 0 -291 -52.667 -393 -158c-108 -111.333 -162 -249 -162 -413c0 -160 51 -291.333 153 -394c52.667 -53.333 112.667 -90.333 180 -111c73.333 -23.333 156.333 -35 249 -35c118 0 239 22 363 66l39 -156c-125.333 -42.667 -261 -64 -407 -64
c-223.333 0 -401 61 -533 183c-70 65.333 -124 144.666 -162 237.999c-34.667 87.333 -52 179.333 -52 276c0 141.333 35.667 270.333 107 387c70 115.333 164.333 202.333 283 261c98.667 48.667 209 73 331 73c180.667 0 331 -51.333 451 -154
c136 -116 204 -266.667 204 -452c0 -125.333 -32 -236.333 -96 -333c-42.667 -64 -92.334 -109 -149.001 -135c-32 -15.333 -63.333 -23 -94 -23c-50 0 -91 19.667 -123 59c-14.667 17.333 -26.667 41.333 -36 72c-62 -87.333 -143 -131 -243 -131
c-90 0 -163 30.333 -219 91c-56.667 61.333 -85 140 -85 236c0 113.333 39.333 213 118 299c68 74.667 148.667 112 242 112c90.667 0 158.667 -35.333 204 -106zM785.001 856c-60.667 0 -109.999 -28.666 -147.999 -85.999c-29.333 -44.667 -44 -94.334 -44 -149.001
c0 -43.333 10.667 -79 32 -107c26 -36 63.667 -54 113 -54c59.333 0 105.333 29 138 87c25.333 45.333 38 95.333 38 150c0 44 -9.33301 80 -28 108c-22.667 34 -56.334 51 -101.001 51z" />
    <glyph glyph-name="A" unicode="A" horiz-adv-x="1232" vert-adv-y="2457" 
d="M481 1365h267l464 -1365h-271l-84 284h-483l-85 -284h-269zM790 508l-176 557l-173 -557h349z" />
    <glyph glyph-name="B" unicode="B" horiz-adv-x="1205" vert-adv-y="2457" 
d="M164 1365h366c145.333 0 251.333 -11.333 318 -34c70.667 -24 125 -66.333 163 -127c33.333 -52.667 50 -113.334 50 -182.001c0 -92 -27.667 -164 -83 -216c-31.333 -29.333 -78.333 -53.666 -141 -72.999c199.333 -45.333 299 -158.333 299 -339
c0 -114 -39.333 -207 -118 -279c-67.333 -62 -163 -98.333 -287 -109c-50 -4 -131.667 -6 -245 -6h-322v1365zM421 815h113c86 0 148 7.66699 186 23c56.667 24 85 72.667 85 146c0 72 -27.333 120 -82 144c-37.333 16 -105.333 24 -204 24h-98v-337zM421 213h117.999
c120.667 0 200.334 8.66699 239.001 26c34 15.333 59 43 75 83c10.667 27.333 16 56.333 16 87c0 88 -34.333 145.667 -103 173c-42 17.333 -115.667 26 -221 26h-124v-395z" />
    <glyph glyph-name="C" unicode="C" horiz-adv-x="1228" vert-adv-y="2457" 
d="M1155 922l-225.999 0.000976562c-9.33301 59.333 -28.333 109 -57 149c-44.667 62.667 -110.334 94 -197.001 94c-99.333 0 -178 -41.333 -236 -124c-62 -90 -93 -210 -93 -360c0 -144.667 29 -261 87 -349c57.333 -87.333 139 -131 245 -131c157.333 0 244 102 260 306
h235c-6 -130 -30 -233 -72 -309c-82 -149.333 -220 -224 -414 -224c-166 0 -303.667 52 -413 156c-134 128 -201 311 -201 549c0 251.333 72.667 441.666 218 570.999c106 94 234 141 384 141c184 0 318.667 -65.333 404 -196c44 -68.667 69.333 -159.667 76 -273z" />
    <glyph glyph-name="D" unicode="D" horiz-adv-x="1322" vert-adv-y="2457" 
d="M164 1365l334 -0.000976562c191.333 0 333.333 -23.667 426 -71c104 -52.667 185.667 -136 245 -250c54 -104 81 -224 81 -360c0 -187.333 -50.333 -345.666 -151 -474.999c-85.333 -110.667 -204 -176 -356 -196c-64.667 -8.66699 -160 -13 -286 -13h-293v1365z
M427 223.999h120c73.333 0 131.333 4.33301 174 13c84.667 18 147 62.667 187 134c50 87.333 75 192.333 75 315c0 114 -22.667 211 -68 291c-46.667 83.333 -119 134 -217 152c-42.667 8 -114 12 -214 12h-57v-917z" />
    <glyph glyph-name="E" unicode="E" horiz-adv-x="1099" vert-adv-y="2457" 
d="M427 819h542v-224h-542v-371h618v-224h-881v1365h859v-224h-596v-322z" />
    <glyph glyph-name="F" unicode="F" horiz-adv-x="1060" vert-adv-y="2457" 
d="M427 819h542v-224h-542v-595h-263v1365h859v-224h-596v-322z" />
    <glyph glyph-name="G" unicode="G" horiz-adv-x="1313" vert-adv-y="2457" 
d="M714 704h490.001v-567c-157.333 -108.667 -324.333 -163 -501 -163c-184.667 0 -333.334 58.667 -446.001 176c-122.667 126.667 -184 303.667 -184 531c0 232 63.333 412.667 190 542c110.667 112 250.667 168 420 168c104.667 0 197.334 -22.667 278.001 -68
c96.667 -54 162 -132.333 196 -235c14.667 -43.333 23.667 -97.333 27 -162h-226c-22.667 159.333 -112.334 239 -269.001 239c-104.667 0 -184.667 -36.667 -240 -110c-68.667 -90 -103 -215 -103 -375c0 -148.667 30.667 -266.667 92 -354
c58.667 -83.333 146.667 -125 264 -125c66.667 0 135.667 15.333 207 46c29.333 12.667 55.333 27 78 43v219h-273v195z" />
    <glyph glyph-name="H" unicode="H" horiz-adv-x="1395" vert-adv-y="2457" 
d="M427 820h541v545h263v-1365h-263v603h-541v-603h-263v1365h263v-545z" />
    <glyph glyph-name="I" unicode="I" horiz-adv-x="591" vert-adv-y="2457" 
d="M427 0h-263v1365h263v-1365z" />
    <glyph glyph-name="J" unicode="J" horiz-adv-x="686" vert-adv-y="2457" 
d="M266 1365l263.002 -0.000976562v-1088c0 -108.667 -2.33301 -188.667 -7 -240c-10.667 -128.667 -66 -216 -166 -262c-72.667 -34 -168.334 -51 -287.001 -51c-14.667 0 -40.334 0.666992 -77.001 2v219c10 -0.666992 20 -1 30 -1c106.667 0 176 15.333 208 46
c19.333 18.667 30.333 53.334 33 104.001c2 34 3 93 3 177v1094z" />
    <glyph glyph-name="K" unicode="K" horiz-adv-x="1275" vert-adv-y="2457" 
d="M931 1365h301l-510 -632l545 -733h-335l-502 723zM164 1365h263v-1365h-263v1365z" />
    <glyph glyph-name="L" unicode="L" horiz-adv-x="1054" vert-adv-y="2457" 
d="M164 1365h269v-1141h592v-224h-861v1365z" />
    <glyph glyph-name="M" unicode="M" horiz-adv-x="1651" vert-adv-y="2457" 
d="M164 1365h366l295 -1084l299 1084h363v-1365h-237v1064l-292 -1064h-269l-288 1064v-1064h-237v1365z" />
    <glyph glyph-name="N" unicode="N" horiz-adv-x="1412" vert-adv-y="2457" 
d="M164 1365h279l556 -961v961h249v-1365h-263l-572 961v-961h-249v1365z" />
    <glyph glyph-name="O" unicode="O" horiz-adv-x="1378" vert-adv-y="2457" 
d="M690 1391c166.667 0 306 -54.333 418 -163c132 -127.333 198 -309 198 -545s-66 -418 -198 -546c-111.333 -108.667 -250.333 -163 -417 -163c-168.667 0 -308.667 54.333 -420 163c-132 128 -198 313.333 -198 556c0 108.667 18.667 215 56 319
c48 131.333 133.667 232 257 302c90.667 51.333 192 77 304 77zM689 1167c-104.667 0 -184.999 -38 -240.999 -114c-68 -92 -102 -213.333 -102 -364c0 -158.667 34 -284.334 102 -377.001c55.333 -76 136 -114 242 -114c105.333 0 185.666 38 240.999 114
c68 92.667 102 216.334 102 371.001s-34 278 -102 370c-56 76 -136.667 114 -242 114z" />
    <glyph glyph-name="P" unicode="P" horiz-adv-x="1157" vert-adv-y="2457" 
d="M164 1365h320.001c177.333 0 306.666 -13.667 387.999 -41c87.333 -29.333 153 -83.666 197 -162.999c38 -69.333 57 -146 57 -230c0 -132.667 -42.333 -237.334 -127 -314.001c-68.667 -62 -168.667 -96.333 -300 -103c-54 -2.66699 -117.333 -4 -190 -4h-82v-510h-263
v1365zM427.001 734h83.001c120 0 199.667 7.33301 239 22c39.333 14 68.666 41 87.999 81c14 28 21 60 21 96c0 86 -30.667 144.333 -92 175c-44.667 22 -126 33 -244 33h-95v-407z" />
    <glyph glyph-name="Q" unicode="Q" horiz-adv-x="1419" vert-adv-y="2457" 
d="M1237 321l283 -320.999h-305l-112 132c-114 -105.333 -252 -158 -414 -158c-167.333 0 -306.666 54.333 -417.999 163c-132 128 -198 310 -198 546c0 235.333 66 417 198 545c111.333 108.667 250.666 163 417.999 163c168 0 307.667 -54.333 419 -163
c132 -128 198 -308.667 198 -542c0 -130.667 -23 -252.334 -69 -365.001zM689 1167c-104.667 0 -184.999 -38 -240.999 -114c-68 -92 -102 -213.333 -102 -364c0 -158.667 34 -284.334 102 -377.001c55.333 -76 136 -114 242 -114c105.333 0 185.666 38 240.999 114
c68 92.667 102 216.334 102 371.001s-34 278 -102 370c-56 76 -136.667 114 -242 114z" />
    <glyph glyph-name="R" unicode="R" horiz-adv-x="1209" vert-adv-y="2457" 
d="M164 1365h341c126 0 221 -5.33301 285 -16c111.333 -18.667 197 -68 257 -148c53.333 -70.667 80 -155.667 80 -255c0 -179.333 -80.667 -306 -242 -380l315 -566h-306l-279 521h-188v-521h-263v1365zM427 745h94.999c106.667 0 180.667 7.66699 222 23
c37.333 14 66.333 37.667 87 71c19.333 31.333 29 67 29 107c0 74 -29.333 127.333 -88 160c-32 18 -76.667 29 -134 33c-23.333 1.33301 -68.666 2 -135.999 2h-75v-396z" />
    <glyph glyph-name="S" unicode="S" horiz-adv-x="1157" vert-adv-y="2457" 
d="M1047 965l-251.999 0.000976562c-4 50.667 -18.667 91.667 -44 123c-40 51.333 -99.667 77 -179 77c-52 0 -97 -12.333 -135 -37c-43.333 -28 -65 -65 -65 -111c0 -42.667 23.333 -77 70 -103c26 -14 101 -46 225 -96c121.333 -48.667 195.666 -80.667 222.999 -96
c78 -43.333 131.667 -96 161 -158c23.333 -50.667 35 -107.334 35 -170.001c0 -138 -51.333 -246.333 -154 -325c-82.667 -63.333 -193.667 -95 -333 -95c-216 0 -368.333 69.667 -457 209c-46 71.333 -71.333 165 -76 281h254c17.333 -176 111 -264 281 -264
c64 0 116.667 13.667 158 41c39.333 26 59 61 59 105c0 52 -31.333 95.333 -94 130c-24 13.333 -102.667 48 -236 104c-142.667 59.333 -236.667 113.333 -282 162c-64 68.667 -96 151.667 -96 249c0 98.667 31.333 183 94 253c48.667 54.667 113 95 193 121
c55.333 17.333 115.333 26 180 26c177.333 0 309.333 -60 396 -180c43.333 -61.333 68 -143.333 74 -246z" />
    <glyph glyph-name="T" unicode="T" horiz-adv-x="1031" vert-adv-y="2457" 
d="M24 1365h983v-224h-361v-1141h-263v1141h-359v224z" />
    <glyph glyph-name="U" unicode="U" horiz-adv-x="1382" vert-adv-y="2457" 
d="M150 1365l262.999 -0.000976562v-784c0 -108.667 7.33301 -184 22 -226c18 -52 50.333 -91 97 -117c44.667 -25.333 97.334 -38 158.001 -38c84.667 0 151.667 22.333 201 67c44 40.667 68.667 106.334 74 197.001c2 25.333 3 64.333 3 117v784h263v-788
c0 -102.667 -4.33301 -177.667 -13 -225c-20 -114.667 -73 -204.334 -159 -269.001c-96 -72.667 -219 -109 -369 -109c-149.333 0 -272 36.333 -368 109c-86 64.667 -139 154.334 -159 269.001c-8.66699 47.333 -13 122.333 -13 225v788z" />
    <glyph glyph-name="V" unicode="V" horiz-adv-x="1248" vert-adv-y="2457" 
d="M15 1365h281l328 -1067l328 1067h276l-472 -1365h-274z" />
    <glyph glyph-name="W" unicode="W" horiz-adv-x="1778" vert-adv-y="2457" 
d="M18 1365h246l261 -1066l253 1066h226l253 -1066l265 1066h238l-351 -1365h-297l-225 889l-221 -889h-297z" />
    <glyph glyph-name="X" unicode="X" horiz-adv-x="1196" vert-adv-y="2457" 
d="M55 1365h299l246 -423l251 423h299l-399 -654l424 -711h-300l-275 473l-282 -473h-298l426 711z" />
    <glyph glyph-name="Y" unicode="Y" horiz-adv-x="1152" vert-adv-y="2457" 
d="M0 1365h293l287 -544l283 544h289l-444 -827v-538h-263v538z" />
    <glyph glyph-name="Z" unicode="Z" horiz-adv-x="1026" vert-adv-y="2457" 
d="M108 1365h879v-185l-630 -956h609v-224h-919v205l623 940h-562v220z" />
    <glyph glyph-name="bracketleft" unicode="[" horiz-adv-x="626" vert-adv-y="2457" 
d="M153 1365h410v-198h-194v-1364h194v-201h-410v1763z" />
    <glyph glyph-name="backslash" unicode="\" horiz-adv-x="1140" vert-adv-y="2457" 
d="M1097 -398h-190l-864 1763h189z" />
    <glyph glyph-name="bracketright" unicode="]" horiz-adv-x="626" vert-adv-y="2457" 
d="M473 -398h-410v198h194v1364h-194v201h410v-1763z" />
    <glyph glyph-name="asciicircum" unicode="^" vert-adv-y="2457" 
d="M278 693h-264l332 680h331l333 -680h-265l-233 479z" />
    <glyph glyph-name="underscore" unicode="_" vert-adv-y="2457" 
d="M0 -99h1024v-227h-1024v227z" />
    <glyph glyph-name="grave" unicode="`" vert-adv-y="2457" 
d="M698 1098h-190l-381 333h310z" />
    <glyph glyph-name="a" unicode="a" horiz-adv-x="1049" vert-adv-y="2457" 
d="M358 683h-240c12.667 98 48.667 170.667 108 218c76 61.333 181.667 92 317 92c174.667 0 286 -48 334 -144c25.333 -50.667 38 -130.667 38 -240v-392c0 -100.667 10.667 -173 32 -217h-229c-8 33.333 -12 70.333 -12 111c-52.667 -88 -142 -132 -268 -132
c-100.667 0 -182.334 20.667 -245.001 62c-72 48 -108 120 -108 216c0 138.667 73.333 235.667 220 291c60 22.667 148.333 44.667 265 66c21.333 4 55 10 101 18v16c0 48 -7.66699 82 -23 102c-24 29.333 -65.333 44 -124 44c-95.333 0 -150.666 -37 -165.999 -111z
M671 464c-142.667 -17.333 -232.667 -39.333 -270 -66c-39.333 -28 -59 -64 -59 -108c0 -30.667 11 -56.667 33 -78c28 -26.667 66.333 -40 115 -40c80 0 134 30 162 90c12.667 28 19 77 19 147v55z" />
    <glyph glyph-name="b" unicode="b" horiz-adv-x="1124" vert-adv-y="2457" 
d="M141 1374l253 0.000976562v-525c72 96.667 161 145 267 145c92 0 173 -33.667 243 -101c101.333 -96.667 152 -231.334 152 -404.001c0 -170 -50 -303 -150 -399c-76 -73.333 -167.667 -110 -275 -110c-120 0 -206.667 50.333 -260 151
c-3.33301 -52 -9.33301 -95.667 -18 -131h-219c5.33301 42 8 103.667 8 185l-1 71v1118zM602 783.001c-65.333 0 -116.667 -26.667 -154 -80c-36 -52.667 -54 -125.667 -54 -219c0 -96.667 21 -173 63 -229c32 -42.667 77.333 -64 136 -64c58 0 103.333 20.333 136 61
c46.667 57.333 70 137 70 239c0 92.667 -18.667 165.667 -56 219c-33.333 48.667 -80.333 73 -141 73z" />
    <glyph glyph-name="c" unicode="c" horiz-adv-x="1017" vert-adv-y="2457" 
d="M942 651h-247.002c-15.333 98 -67.666 147 -156.999 147c-58.667 0 -105.667 -22 -141 -66c-48 -60.667 -72 -143 -72 -247c0 -117.333 27.667 -204.666 83 -261.999c30.667 -32 73 -48 127 -48c98.667 0 155.334 57 170.001 171h244
c-5.33301 -100.667 -42.666 -187 -111.999 -259c-73.333 -76 -174 -114 -302 -114c-130.667 0 -238.334 42 -323.001 126c-96 96 -144 225 -144 387c0 114 25.667 214 77 300c84 142.667 215.667 214 395 214c138.667 0 245.334 -45.667 320.001 -137
c43.333 -52.667 70.666 -123.334 81.999 -212.001z" />
    <glyph glyph-name="d" unicode="d" horiz-adv-x="1123" vert-adv-y="2457" 
d="M982 1374l-0.00195312 -1066c0 -145.333 6 -248 18 -308h-236c-5.33301 34 -8 62.333 -8 85c0 16 0.666992 33 2 51c-24 -41.333 -49 -72.666 -75 -93.999c-50.667 -41.333 -117.667 -62 -201 -62c-108.667 0 -198.667 35 -270 105c-96 94.667 -144 225.334 -144 392.001
c0 128.667 28.333 238 85 328c78 125.333 185.667 188 323 188c72.667 0 133.334 -17.667 182.001 -53c20.667 -14.667 44.334 -39.334 71.001 -74.001v508h253zM534.998 782.999c-58.667 0 -104.332 -19.334 -136.999 -58.001c-48.667 -57.333 -73 -139.666 -73 -246.999
c0 -94 21.333 -169.333 64 -226c31.333 -41.333 76.666 -62 135.999 -62c56 0 100.667 18.667 134 56c50 56.667 75 137.667 75 243c0 94.667 -19 169 -57 223c-34 47.333 -81.333 71 -142 71z" />
    <glyph glyph-name="e" unicode="e" horiz-adv-x="1054" vert-adv-y="2457" 
d="M985 425h-664.999c3.33301 -66.667 20 -121 50 -163c41.333 -58 103.333 -87 186 -87c92 0 154.667 36 188 108l223 -9c-16 -70.667 -50.667 -132.667 -104 -186c-76.667 -76.667 -181.334 -115 -314.001 -115c-112.667 0 -207.667 26 -285 78
c-69.333 46.667 -120.333 110.334 -153 191.001c-28.667 72.667 -43 150 -43 232c0 121.333 27.667 227.333 83 318c84.667 138.667 215 208 391 208c138.667 0 248.667 -49 330 -147c76 -92.667 114 -219.334 114 -380.001c0 -10 -0.333008 -26 -1 -48zM732.001 609
c-20 130 -84.332 195 -192.999 195c-110.667 0 -181.334 -65 -212.001 -195h405z" />
    <glyph glyph-name="f" unicode="f" horiz-adv-x="672" vert-adv-y="2457" 
d="M415 973h228.999v-197h-229v-776h-253v776h-130v197h130v61c0 120 17.667 206.333 53 259c51.333 76.667 134 115 248 115c68.667 0 143 -15.333 223 -46v-203c-70.667 21.333 -125.667 32 -165 32c-51.333 0 -83.666 -22 -96.999 -66c-6 -20.667 -9 -63 -9 -127v-25z
" />
    <glyph glyph-name="g" unicode="g" horiz-adv-x="1085" vert-adv-y="2457" 
d="M1047 973l-0.000976562 -180h-198c33.333 -50.667 50 -108.667 50 -174c0 -118.667 -50.667 -199.667 -152 -243c-39.333 -17.333 -84 -29 -134 -35c-9.33301 -1.33301 -59.666 -6.33301 -150.999 -15c-63.333 -5.33301 -95 -24.666 -95 -57.999
c0 -16.667 10 -28.667 30 -36c15.333 -6 76.333 -14 183 -24c148 -14.667 248.667 -36 302 -64c36 -18.667 64.667 -45.667 86 -81c27.333 -44 41 -93.333 41 -148c0 -66 -19.667 -124.667 -59 -176c-75.333 -100 -217 -150 -425 -150c-160.667 0 -285 29 -373 87
c-75.333 50 -113 116.333 -113 199c0 105.333 65.333 181 196 227c-72 29.333 -108 68.666 -108 117.999c0 40 21 74 63 102c26.667 17.333 63 35 109 53c-50 25.333 -86.667 54.333 -110 87c-37.333 52 -56 115.333 -56 190c0 80.667 23.333 149.667 70 207
c72 89.333 184.333 134 337 134c54 0 115.667 -8.66699 185 -26zM521.999 803c-58 0 -102.666 -16.667 -133.999 -50c-26 -26.667 -39 -60 -39 -100c0 -38 13 -70.333 39 -97c30 -30.667 73.333 -46 130 -46c58 0 102.333 16 133 48c24.667 26 37 57.667 37 95
c0 44 -14.667 79.667 -44 107c-30.667 28.667 -71.334 43 -122.001 43zM495 17c-68.667 0 -124.334 -9.00098 -167.001 -27.001c-49.333 -20.667 -74 -52.334 -74 -95.001c0 -43.333 29.333 -75.666 88 -96.999c47.333 -17.333 109 -26 185 -26
c80.667 0 141.334 11 182.001 33c39.333 21.333 59 50 59 86c0 40.667 -25 72.334 -75 95.001c-46.667 20.667 -112.667 31 -198 31z" />
    <glyph glyph-name="h" unicode="h" horiz-adv-x="1137" vert-adv-y="2457" 
d="M141 1374h252.998v-508c74.667 84.667 167.334 127 278.001 127c68.667 0 130.667 -15.667 186 -47c68.667 -38.667 112.667 -99 132 -181c8.66699 -36.667 13 -104.667 13 -204v-561h-253v506c0 86.667 -8.33301 146.667 -25 180c-27.333 56.667 -73.666 85 -138.999 85
c-76 0 -131 -34 -165 -102c-18 -36.667 -27 -93.667 -27 -171v-498h-253v1374z" />
    <glyph glyph-name="i" unicode="i" horiz-adv-x="534" vert-adv-y="2457" 
d="M141 973h253v-973h-253v973zM271 1392c42 0 75.667 -12.333 101 -37c28 -26.667 42 -63 42 -109c0 -45.333 -14.333 -81.666 -43 -108.999c-25.333 -25.333 -60 -38 -104 -38c-45.333 0 -81 13.333 -107 40c-26 25.333 -39 59.666 -39 102.999c0 48.667 14.667 86 44 112
c28 25.333 63.333 38 106 38z" />
    <glyph glyph-name="j" unicode="j" horiz-adv-x="556" vert-adv-y="2457" 
d="M169 973l252.998 0.000976562v-833c0 -106.667 -4.33301 -180.667 -13 -222c-20.667 -102.667 -72.667 -180.334 -156 -233.001c-65.333 -40.667 -159.666 -61 -282.999 -61c-10 0 -27.333 0.333008 -52 1v216h31c100.667 0 165.667 23.667 195 71
c12.667 20 20.334 49.333 23.001 88c1.33301 12 2 40.667 2 86v52v835zM300.998 1391c42 0 75.667 -12 101 -36c26.667 -25.333 40 -61.666 40 -108.999c0 -46.667 -13.667 -83 -41 -109c-26 -25.333 -60.667 -38 -104 -38c-46 0 -82 13.333 -108 40
c-26 26 -39 60.333 -39 103c0 47.333 15 84.666 45 111.999c26.667 24.667 62 37 106 37z" />
    <glyph glyph-name="k" unicode="k" horiz-adv-x="1098" vert-adv-y="2457" 
d="M754 973h303l-366 -451l398 -522h-337l-356 519zM141 1374h253v-1374h-253v1374z" />
    <glyph glyph-name="l" unicode="l" horiz-adv-x="534" vert-adv-y="2457" 
d="M141 1374h253v-1374h-253v1374z" />
    <glyph glyph-name="m" unicode="m" horiz-adv-x="1709" vert-adv-y="2457" 
d="M114 973l245 -0.000976562c14.667 -34 22 -71 22 -111c0 -4 -0.333008 -9.66699 -1 -17c72.667 98.667 170.667 148 294 148c130 0 224 -52.333 282 -157c35.333 44.667 70.666 78.334 105.999 101.001c57.333 37.333 126.333 56 207 56
c136.667 0 227.667 -48.333 273 -145c17.333 -36.667 28 -84.334 32 -143.001c0.666992 -12.667 1 -58.667 1 -138v-567h-253v562c0 74.667 -8 124.667 -24 150c-25.333 39.333 -69.666 59 -132.999 59c-64.667 0 -113 -21.667 -145 -65c-23.333 -32 -35 -84 -35 -156v-550
h-253v541c0 85.333 -7 140 -21 164c-24 44 -68.333 66 -133 66c-88 0 -145 -35.333 -171 -106c-8.66699 -25.333 -13 -66.666 -13 -123.999v-541h-253v743l1 44c0 76.667 -9.33301 138.667 -28 186z" />
    <glyph glyph-name="n" unicode="n" horiz-adv-x="1122" vert-adv-y="2457" 
d="M111 973l244.999 0.000976562c12.667 -32.667 19.334 -74 20.001 -124c72 96 168 144 288 144c69.333 0 130.333 -15.667 183 -47c76 -46 120.667 -118.333 134 -217c4.66699 -33.333 7 -89.333 7 -168v-561h-253v506c0 89.333 -7.66699 150.333 -23 183
c-25.333 54.667 -70 82 -134 82c-76 0 -129.667 -33 -161 -99c-15.333 -33.333 -23 -91.333 -23 -174v-498h-253v624c0 123.333 -2 203.666 -6 240.999c-3.33301 29.333 -11.333 65.333 -24 108z" />
    <glyph glyph-name="o" unicode="o" horiz-adv-x="1097" vert-adv-y="2457" 
d="M548 1000c123.333 0 229.333 -39.002 318 -117.002c108 -96 162 -228.333 162 -397c0 -168 -54 -300 -162 -396c-88 -78 -193.667 -117 -317 -117c-124 0 -230 39 -318 117c-108.667 96.667 -163 231.334 -163 404.001c0 114.667 29 215.334 87 302.001
c49.333 74.667 117.333 130 204 166c60 25.333 123 38 189 38zM548 797.998c-66 0 -118.667 -27.335 -158 -82.002c-43.333 -60 -65 -135 -65 -225c0 -96 21.667 -174.333 65 -235c39.333 -54 92 -81 158 -81s118.667 27 158 81c43.333 60.667 65 137.334 65 230.001
c0 94.667 -21.667 171.334 -65 230.001c-40 54.667 -92.667 82 -158 82z" />
    <glyph glyph-name="p" unicode="p" horiz-adv-x="1123" vert-adv-y="2457" 
d="M140 -403l-0.00195312 1067c-1.33301 118 -2.66602 186 -3.99902 204c-2 32 -6.33301 67 -13 105h235c12 -33.333 17.667 -71.333 17 -114c24.667 33.333 50 59.333 76 78c52 37.333 116 56 192 56c107.333 0 196.333 -35 267 -105c96 -95.333 144 -226.666 144 -393.999
c0 -188 -57 -331.333 -171 -430c-66 -56.667 -143 -85 -231 -85c-101.333 0 -187.666 42 -258.999 126v-508h-253zM596.998 782.999c-55.333 0 -99.666 -18.667 -132.999 -56c-50.667 -56.667 -76 -138.667 -76 -246c0 -98.667 23.333 -174.667 70 -228
c37.333 -42 83.666 -63 138.999 -63c56 0 99.333 18.667 130 56c46.667 57.333 70 138.666 70 243.999c0 96.667 -21.333 173.334 -64 230.001c-30.667 42 -76 63 -136 63z" />
    <glyph glyph-name="q" unicode="q" horiz-adv-x="1123" vert-adv-y="2457" 
d="M729 -403l0.000976562 505c-24.667 -31.333 -48 -55 -70 -71c-47.333 -34.667 -104.333 -52 -171 -52c-94.667 0 -177.334 28.667 -248.001 86c-114.667 93.333 -172 232 -172 416c0 173.333 48.667 308.333 146 405c73.333 72 164 108 272 108
c117.333 0 204.333 -45 261 -135v11c0 36.667 5.66699 71 17 103h236c-12 -60.667 -18 -163.667 -18 -309v-1067h-253zM527.001 783c-57.333 0 -102.667 -21.333 -136 -64c-44 -56 -66 -133 -66 -231c0 -105.333 24.667 -185.333 74 -240c34 -38.667 78.333 -58 133 -58
c63.333 0 111.333 23.333 144 70c38.667 55.333 58 130.333 58 225c0 105.333 -25 186 -75 242c-33.333 37.333 -77.333 56 -132 56z" />
    <glyph glyph-name="r" unicode="r" horiz-adv-x="771" vert-adv-y="2457" 
d="M128 973l241 0.000976562c10 -43.333 15 -94 15 -152c0 -11.333 -0.333008 -28 -1 -50c35.333 71.333 71.666 123.666 108.999 156.999c48.667 43.333 105.334 65 170.001 65c21.333 0 46.666 -4 75.999 -12v-256c-46 31.333 -96.333 47 -151 47
c-80 0 -135.333 -38.667 -166 -116c-18.667 -48 -28 -116 -28 -204v-452h-252v674v64c-1.33301 110 -5.66602 188.333 -12.999 235z" />
    <glyph glyph-name="s" unicode="s" horiz-adv-x="993" vert-adv-y="2457" 
d="M898 678l-243.001 0.00195312c-12 89.333 -64.667 134 -158 134c-35.333 0 -66 -8.33301 -92 -25c-28.667 -18.667 -43 -44 -43 -76c0 -30 13.667 -53.333 41 -70c20.667 -12.667 86.334 -35 197.001 -67c86.667 -25.333 148.334 -48.333 185.001 -69
c80 -46 120 -119.333 120 -220c0 -96 -33.667 -172 -101 -228s-165.666 -84 -294.999 -84c-200.667 0 -332.334 59.667 -395.001 179c-24.667 48 -37 105.667 -37 173h238c4 -54.667 17.333 -93 40 -115c31.333 -31.333 79.666 -47 144.999 -47c42 0 76.333 7.33301 103 22
c33.333 18 50 45.667 50 83c0 32 -22 57.667 -66 77c-20 8.66699 -88.667 30.667 -206 66c-98 29.333 -164.667 61.666 -200 96.999c-45.333 45.333 -68 104.333 -68 177c0 92 34.333 167 103 225c71.333 60.667 167 91 287 91c164 0 279.333 -53 346 -159
c28 -44.667 44.333 -99.334 49 -164.001z" />
    <glyph glyph-name="t" unicode="t" horiz-adv-x="732" vert-adv-y="2457" 
d="M452 973l198 -0.000976562v-197h-202l-6 -375c-0.666992 -21.333 -1 -34 -1 -38l1 -28v-21v-14c0 -66 33.333 -99 100 -99c40.667 0 88.667 10.667 144 32v-207c-78.667 -31.333 -153 -47 -223 -47c-110.667 0 -190.667 39.333 -240 118
c-16 26.667 -27 55.334 -33 86.001c-4.66699 26 -7 65.667 -7 119c0 27.333 0.666992 59.333 2 96l13 378h-151v197h159l7 281h244z" />
    <glyph glyph-name="u" unicode="u" horiz-adv-x="1137" vert-adv-y="2457" 
d="M134 973h253.003v-554c0 -76.667 11.333 -130 34 -160c28.667 -38.667 72 -58 130 -58c128 0 192 84.333 192 253v519h253v-672v-150c1.33301 -48 9.66602 -98.333 24.999 -151h-239c-10.667 28.667 -17.334 66 -20.001 112c-24.667 -30.667 -46.667 -53.667 -66 -69
c-55.333 -42.667 -124 -64 -206 -64c-80.667 0 -151.334 20.333 -212.001 61c-68.667 44.667 -111.667 109 -129 193c-10 49.333 -15 107 -15 173v567z" />
    <glyph glyph-name="v" unicode="v" horiz-adv-x="1026" vert-adv-y="2457" 
d="M22 973h265l226 -698l226 698h261l-351 -980h-280z" />
    <glyph glyph-name="w" unicode="w" horiz-adv-x="1535" vert-adv-y="2457" 
d="M27 973h254l180 -687l203 687h203l200 -687l185 687h252l-291 -980h-270l-183 584l-178 -584h-269z" />
    <glyph glyph-name="x" unicode="x" horiz-adv-x="1026" vert-adv-y="2457" 
d="M51 973h301l161 -272l164 272h300l-309 -454l356 -519h-306l-206 322l-204 -322h-306l358 519z" />
    <glyph glyph-name="y" unicode="y" horiz-adv-x="1022" vert-adv-y="2457" 
d="M33 973h267l217 -741l225 741h262l-330 -946c-36 -102.667 -62 -169.667 -78 -201c-39.333 -76.667 -85.333 -132.667 -138 -168c-68.667 -46 -170.334 -69 -305.001 -69c-17.333 0 -49 0.666992 -95 2v219c60.667 0 105.334 1 134.001 3c64 5.33301 112 27 144 65
c15.333 18.667 29 44.667 41 78z" />
    <glyph glyph-name="z" unicode="z" horiz-adv-x="869" vert-adv-y="2457" 
d="M98 973h713v-190l-467 -575h475v-208h-772v193l461 572h-410v208z" />
    <glyph glyph-name="braceleft" unicode="{" horiz-adv-x="626" vert-adv-y="2457" 
d="M298 483c52 -34 84.999 -67.667 98.999 -101c16.667 -40 25 -96 25 -168v-257c0 -70.667 5.66699 -114.667 17 -132c16 -25.333 62.667 -38 140 -38c6.66699 0 20 0.333008 40 1v-195c-36.667 -2 -68.667 -3 -96 -3c-91.333 0 -158.666 12.333 -201.999 37
c-62 34.667 -99.333 92.667 -112 174c-4 27.333 -6 63 -6 107v317c0 62 -9 105 -27 129c-18.667 24.667 -47 41 -85 49v161c38 8 66.333 24.333 85 49c18 24 27 67 27 129v317c0 98 14.667 169 44 213s69.666 73.333 120.999 88c36 10.667 87.667 16 155 16
c35.333 0 67.333 -1 96 -3v-194h-40c-50.667 0 -86.667 -4 -108 -12c-25.333 -10 -40.666 -32.333 -45.999 -67c-2 -11.333 -3 -41.333 -3 -90v-258c0 -71.333 -8.33301 -127 -25 -167c-14 -33.333 -47 -67.333 -99 -102z" />
    <glyph glyph-name="bar" unicode="|" vert-adv-y="2457" 
d="M386 1365h253v-1706h-253v1706z" />
    <glyph glyph-name="braceright" unicode="}" horiz-adv-x="626" vert-adv-y="2457" 
d="M328 483c-52.667 34.667 -86 68.668 -100 102.001c-16.667 40 -25 95.667 -25 167v258c0 49.333 -0.666992 79.333 -2 90c-6 34.667 -21.667 57 -47 67c-21.333 8 -57 12 -107 12h-40v194c28 2 60 3 96 3c92 0 159 -12 201 -36c62 -34.667 99.333 -92.667 112 -174
c4 -26.667 6 -62.334 6 -107.001v-317c0 -62 9.33301 -105 28 -129c18.667 -24.667 47 -41 85 -49v-161c-38 -8 -66.333 -24.333 -85 -49s-28 -67.667 -28 -129v-317c0 -98 -14.667 -169.333 -44 -214c-28 -42 -68.333 -71 -121 -87c-36.667 -11.333 -88 -17 -154 -17
c-28 0 -60 1 -96 3v195c20 -0.666992 33.333 -1 40 -1c81.333 0 129.333 15.333 144 46c8 16.667 12 58 12 124v257c0 72 8.33301 128 25 168c14 33.333 47.333 67 100 101z" />
    <glyph glyph-name="asciitilde" unicode="~" horiz-adv-x="1365" vert-adv-y="2457" 
d="M324 1152l-139 92c6.66699 14.667 11.667 26 15 34c24.667 55.333 44.334 93.333 59.001 114c58.667 87.333 136.334 131 233.001 131c46.667 0 118 -18 214 -54c64 -24 104.333 -38 121 -42c21.333 -5.33301 41 -8 59 -8c42 0 76 13.333 102 40
c13.333 13.333 29.666 36 48.999 68l143 -84c-49.333 -104 -98.333 -173.667 -147 -209c-54 -39.333 -112.333 -59 -175 -59c-36.667 0 -105 18.333 -205 55c-92 33.333 -150.667 50 -176 50c-34.667 0 -65.334 -11.667 -92.001 -35c-16 -14 -36.333 -45 -61 -93z" />
    <glyph glyph-name="afii10051" horiz-adv-x="1276" vert-adv-y="2457" 
d="M753 -159h31c83.333 0 142 15.667 176 47c15.333 14.667 25 29 29 43c9.33301 36.667 14 55.334 14 56.001l-3 13v442c0 83.333 -8 141.333 -24 174c-31.333 64 -95.666 96 -192.999 96c-82.667 0 -151.667 -21.667 -207 -65c-10.667 -8.66699 -21 -19.334 -31 -32.001
v-615h-263v1141h-258v224h983v-224h-462v-293c24 16 47.667 28.667 71 38c81.333 32 168.333 48 261 48c98 0 180.667 -21.667 248 -65c71.333 -46 114.666 -116 129.999 -210c5.33301 -36 8 -88.667 8 -158l-1 -501c0 -28.667 -3.33301 -65 -10 -109
c-14.667 -96 -69.667 -166.667 -165 -212c-75.333 -36.667 -168.333 -55 -279 -55c-10.667 0 -29 0.333008 -55 1v216z" />
    <glyph glyph-name="afii10052" horiz-adv-x="1054" vert-adv-y="2457" 
d="M164 0v1365h861v-224h-592v-1141h-269zM427 1489l293 288h288l-358 -288h-223z" />
    <glyph glyph-name="afii10061" horiz-adv-x="1275" vert-adv-y="2457" 
d="M931 1365h301l-510 -632l545 -733h-335l-502 723zM164 1365h263v-1365h-263v1365zM546 1489l294 288h288l-359 -288h-223z" />
    <glyph glyph-name="afii10060" horiz-adv-x="1456" vert-adv-y="2457" 
d="M1000 0v442.001c0 83.333 -8 141.333 -24 174c-31.333 64 -95.666 96 -192.999 96c-82.667 0 -151.667 -21.667 -207 -65c-10.667 -8.66699 -21 -19.334 -31 -32.001v-615h-263v1141h-258v224h983v-224h-462v-293c24 16 47.667 28.667 71 38c81.333 32 168.333 48 261 48
c98 0 180.667 -21.667 248 -65c71.333 -46 114.666 -116 129.999 -210c5.33301 -36 8 -88.667 8 -158l-1 -501h-262z" />
    <glyph glyph-name="afii10145" horiz-adv-x="1395" vert-adv-y="2457" 
d="M829 0v-205h-263v205h-402v1365h263v-1148h541v1148h263v-1365h-402z" />
    <glyph glyph-name="afii10099" horiz-adv-x="1137" vert-adv-y="2457" 
d="M502 -347l0.00195312 216h31c73.333 0 125.666 10.333 156.999 31c18 12 32.333 28.333 43 49c11.333 21.333 17 40 17 56v501c0 86.667 -8.33301 146.667 -25 180c-27.333 56.667 -74 85 -140 85c-76 0 -131 -34 -165 -102c-18 -36.667 -27 -93.667 -27 -171v-498h-253
v1081h-122v164h122v129h253v-129h273v-164h-273v-215c74 84.667 167 127 279 127c68.667 0 130.667 -15.667 186 -47c68.667 -38.667 112.667 -99 132 -181c8.66699 -36.667 13 -104.667 13 -204v-566c0 -117.333 -42.333 -205 -127 -263
c-78.667 -53.333 -185.334 -80 -320.001 -80c-10.667 0 -28.667 0.333008 -54 1z" />
    <glyph glyph-name="afii10109" horiz-adv-x="1098" vert-adv-y="2457" 
d="M754 973h303l-366 -451l398 -522h-337l-356 519zM141 973h253v-973h-253v973zM429 1109l243 311h306l-355 -311h-194z" />
    <glyph glyph-name="afii10108" horiz-adv-x="1137" vert-adv-y="2457" 
d="M393 1245h272.999v-164h-273v-215c74.667 84.667 167.667 127 279 127c68.667 0 130.667 -15.667 186 -47c68.667 -38.667 112.667 -99 132 -181c8.66699 -36.667 13 -104.667 13 -204v-561h-253v506c0 86.667 -8.33301 146.667 -25 180
c-27.333 56.667 -73.666 85 -138.999 85c-76.667 0 -131.667 -34 -165 -102c-18.667 -36.667 -28 -93.667 -28 -171v-498h-253v1081h-122v164h122v129h253v-129z" />
    <glyph glyph-name="nbspace" unicode="&#xa0;" horiz-adv-x="512" vert-adv-y="2457" 
 />
    <glyph glyph-name="afii10062" unicode="&#xa1;" horiz-adv-x="1145" vert-adv-y="2457" 
d="M293 1779h97c52.667 -96.667 120.667 -145 204 -145s151.666 48.333 204.999 145h97c-9.33301 -74 -32.666 -134.667 -69.999 -182c-58 -73.333 -135 -110 -231 -110c-98 0 -176.667 38.667 -236 116c-36 48 -58 106.667 -66 176zM577 706l293 659h289l-644 -1365h-263
l192 416l-437 949h293z" />
    <glyph glyph-name="afii10110" unicode="&#xa2;" horiz-adv-x="1022" vert-adv-y="2457" 
d="M33 973h267l217 -741l225 741h262l-330 -946c-36 -102.667 -62 -169.667 -78 -201c-39.333 -76.667 -85.333 -132.667 -138 -168c-68.667 -46 -170.334 -69 -305.001 -69c-17.333 0 -49 0.666992 -95 2v219c60.667 0 105.334 1 134.001 3c64 5.33301 112 27 144 65
c15.333 18.667 29 44.667 41 78zM256 1399h103.999c18.667 -39.333 37.334 -69 56.001 -89c32.667 -35.333 73 -53 121 -53c46.667 0 84.667 17.333 114 52c17.333 20.667 35.333 50.667 54 90h104c-8 -74.667 -28.667 -137 -62 -187c-48 -72.667 -117 -109 -207 -109
c-93.333 0 -166.333 37 -219 111c-36 49.333 -57.667 111 -65 185z" />
    <glyph glyph-name="afii10057" unicode="&#xa3;" horiz-adv-x="686" vert-adv-y="2457" 
d="M266 1365l263.002 -0.000976562v-1088c0 -108.667 -2.33301 -188.667 -7 -240c-10.667 -128.667 -66 -216 -166 -262c-72.667 -34 -168.334 -51 -287.001 -51c-14.667 0 -40.334 0.666992 -77.001 2v219c10 -0.666992 20 -1 30 -1c106.667 0 176 15.333 208 46
c19.333 18.667 30.333 53.334 33 104.001c2 34 3 93 3 177v1094z" />
    <glyph glyph-name="currency" unicode="&#xa4;" horiz-adv-x="1365" vert-adv-y="2457" 
d="M50 278l208.001 208c-60.667 88.667 -91 183 -91 283c0 98 31 192 93 282l-212 211l138 138l211 -211c91.333 60.667 187.333 91 288 91c98 0 191.667 -29.333 281 -88l210 206l136 -136l-207 -207c63.333 -98 95 -193.667 95 -287c0 -96 -30.333 -189.333 -91 -280
l209 -209l-136 -138l-209 208c-92.667 -62.667 -189.334 -94 -290.001 -94c-92.667 0 -188.667 31 -288 93l-209 -207zM687.001 1053c-81.333 0 -149.667 -27.667 -205 -83c-56 -56 -84 -123.667 -84 -203c0 -78 28 -145 84 -201s123 -84 201 -84c78.667 0 146 28 202 84
s84 123.333 84 202c0 80.667 -28 148 -84 202c-56.667 55.333 -122.667 83 -198 83z" />
    <glyph glyph-name="afii10050" unicode="&#xa5;" horiz-adv-x="1054" vert-adv-y="2457" 
d="M1025 1534v-393h-592v-1141h-269v1365h592v169h269z" />
    <glyph glyph-name="brokenbar" unicode="&#xa6;" vert-adv-y="2457" 
d="M386 1365h253v-706h-253v706zM386 314h253v-655h-253v655z" />
    <glyph glyph-name="section" unicode="&#xa7;" vert-adv-y="2457" 
d="M891 980l-195.004 0.000976562c-8.66699 58 -23.667 99.667 -45 125c-32 38 -76.667 57 -134 57c-39.333 0 -72.666 -8.66699 -99.999 -26c-30 -20 -45 -47.667 -45 -83c0 -30.667 12.667 -56.667 38 -78c20.667 -16.667 45 -32.334 73 -47.001l146 -76
c118.667 -61.333 194.334 -107.333 227.001 -138c56 -52.667 84 -118 84 -196c0 -116.667 -59.333 -209.667 -178 -279c90.667 -66 136 -151.333 136 -256c0 -110 -41 -193.333 -123 -250c-66 -46 -154.333 -69 -265 -69c-205.333 0 -336.666 76.667 -393.999 230
c-16.667 44 -25 98.667 -25 164h203c9.33301 -55.333 23.333 -96.333 42 -123c33.333 -46.667 90.333 -70 171 -70c55.333 0 97.333 13 126 39c23.333 20.667 35 48.667 35 84c0 42.667 -27 81 -81 115c-20.667 13.333 -90.334 49.333 -209.001 108
c-90 44 -161.667 92.667 -215 146c-52.667 53.333 -79 118.666 -79 195.999c0 68.667 25 131 75 187c25.333 28.667 58.333 58 99 88c-33.333 30 -56.666 55 -69.999 75c-29.333 44 -44 94.667 -44 152c0 92.667 38.333 168.667 115 228c68 53.333 151.667 80 251 80
c80.667 0 152 -17.333 214 -52c78.667 -43.333 129.334 -111.666 152.001 -204.999c8 -33.333 13 -75.333 15 -126zM424.996 728.001c-30.667 -21.333 -55 -41 -73 -59c-28.667 -30 -43 -63.667 -43 -101c0 -54 31 -99.333 93 -136c44.667 -26 109.667 -60.333 195 -103
c29.333 21.333 53.333 41 72 59c33.333 32 50 66.667 50 104c0 49.333 -31.333 92.333 -94 129c-79.333 46 -146 81.667 -200 107z" />
    <glyph glyph-name="afii10023" unicode="&#xa8;" horiz-adv-x="1099" vert-adv-y="2457" 
d="M427 819h542v-224h-542v-371h618v-224h-881v1365h859v-224h-596v-322zM406 1783c40 0 74.666 -14.667 103.999 -44c29.333 -28.667 44 -64 44 -106s-14.667 -77.667 -44 -107s-64.666 -44 -105.999 -44c-42 0 -77.667 14.667 -107 44s-44 65 -44 107
s14.667 77.333 44 106c30 29.333 66.333 44 109 44zM786.999 1783c40.667 0 75.667 -14.666 105 -43.999c28.667 -28.667 43 -64 43 -106c0 -42.667 -14.333 -78.334 -43 -107.001c-30 -29.333 -65.667 -44 -107 -44s-77 14.667 -107 44c-29.333 30 -44 65.667 -44 107
c0 42 14.667 77.333 44 106c30 29.333 66.333 44 109 44z" />
    <glyph glyph-name="copyright" unicode="&#xa9;" horiz-adv-x="1536" vert-adv-y="2457" 
d="M1109 832h-149.001c-16 96 -68.333 144 -157 144c-64 0 -113.667 -24.333 -149 -73c-39.333 -54.667 -59 -125 -59 -211c0 -83.333 20 -152.333 60 -207c35.333 -48.667 85.333 -73 150 -73c100.667 0 153.334 60.667 158.001 182l155 -1
c0 -72.667 -16 -135.334 -48 -188.001c-54.667 -90.667 -143 -136 -265 -136c-102.667 0 -188.334 30 -257.001 90c-86.667 76.667 -130 187 -130 331c0 151.333 46.333 266.333 139 345c66 56 146.667 84 242 84c118 0 204.667 -39.333 260 -118
c32.667 -47.333 49.334 -103.666 50.001 -168.999zM776.999 1391c127.333 0 247.665 -34.667 360.998 -104c114 -70 201 -164.333 261 -283c52 -101.333 78 -208.333 78 -321c0 -132.667 -35 -256.334 -105 -371.001c-69.333 -113.333 -163.333 -200.333 -282 -261
c-101.333 -51.333 -208.666 -77 -321.999 -77c-133.333 0 -256.666 34.667 -369.999 104c-114 70 -201.333 164.333 -262 283c-51.333 100.667 -77 207.334 -77 320.001c0 134 34.667 258 104 372c68 112 162.333 199 283 261c100.667 51.333 211 77 331 77zM774.998 1277
c-164.667 0 -303.67 -57.332 -417.003 -171.999c-114.667 -116 -172 -257.333 -172 -424c0 -164 57.333 -304.333 172 -421c112.667 -114.667 249.334 -172 410.001 -172s297.334 57.333 410.001 172c54.667 56 97.334 120.667 128.001 194c30 74 45 150 45 228
c0 111.333 -29 215.666 -87 312.999c-56 94 -133.333 166.667 -232 218c-81.333 42.667 -167 64 -257 64z" />
    <glyph glyph-name="afii10053" unicode="&#xaa;" horiz-adv-x="1223" vert-adv-y="2457" 
d="M350 790l401.997 0.000976562v-217h-402c8 -70 23.667 -130.333 47 -181c58.667 -127.333 151.334 -191 278.001 -191c112.667 0 188.334 52 227.001 156c14 36 25.333 86 34 150l242 -35c-5.33301 -92 -18 -162.333 -38 -211
c-44.667 -106.667 -115.334 -184.667 -212.001 -234c-68 -35.333 -148.667 -53 -242 -53c-166.667 0 -304.667 52 -414 156c-134.667 128 -202 311 -202 549c0 250.667 72.667 441 218 571c106 94 234.667 141 386 141c132.667 0 244.334 -36.667 335.001 -110
c62 -50.667 104 -109.667 126 -177c10.667 -32.667 20 -77 28 -133l-240 -29c-13.333 51.333 -27 88.666 -41 111.999c-45.333 74 -115 111 -209 111c-130.667 0 -225 -70.667 -283 -212c-19.333 -46.667 -32.666 -101 -39.999 -163z" />
    <glyph glyph-name="guillemotleft" unicode="&#xab;" horiz-adv-x="1001" vert-adv-y="2457" 
d="M878 0h-213l-223 476l223 504h213l-184 -504zM491 0h-213l-223 476l223 504h213l-184 -504z" />
    <glyph glyph-name="logicalnot" unicode="&#xac;" vert-adv-y="2457" 
d="M702 0v310h-634v236h887v-546h-253z" />
    <glyph glyph-name="sfthyphen" unicode="&#xad;" horiz-adv-x="535" vert-adv-y="2457" 
d="M0 607h535v-182h-535v182z" />
    <glyph glyph-name="registered" unicode="&#xae;" horiz-adv-x="1536" vert-adv-y="2457" 
d="M487 1088l215 0.000976562c78.667 0 138 -3.33301 178 -10c69.333 -10.667 123.333 -40.334 162 -89.001c33.333 -42.667 50 -94 50 -154c0 -108 -49.333 -184 -148 -228l196 -338h-199l-173 309h-110v-309h-171v819zM658 719.001h55.001
c65.333 0 110.666 4.66699 135.999 14c46 16 69 50 69 102c0 42.667 -17.333 73 -52 91c-20 10.667 -47 17 -81 19c-13.333 1.33301 -41.333 2 -84 2h-43v-228zM777.001 1391c127.333 0 247.665 -34.667 360.998 -104c114 -70 201 -164.333 261 -283
c52 -101.333 78 -208.333 78 -321c0 -132.667 -35 -256.334 -105 -371.001c-69.333 -113.333 -163.333 -200.333 -282 -261c-101.333 -51.333 -208.666 -77 -321.999 -77c-133.333 0 -256.666 34.667 -369.999 104c-114 70 -201.333 164.333 -262 283
c-51.333 100.667 -77 207.334 -77 320.001c0 134 34.667 258 104 372c68 112 162.333 199 283 261c100.667 51.333 211 77 331 77zM775 1277c-164.667 0 -303.67 -57.332 -417.003 -171.999c-114.667 -116 -172 -257.333 -172 -424c0 -164 57.333 -304.333 172 -421
c112.667 -114.667 249.334 -172 410.001 -172s297.334 57.333 410.001 172c54.667 56 97.334 120.667 128.001 194c30 74 45 150 45 228c0 111.333 -29 215.666 -87 312.999c-56 94 -133.333 166.667 -232 218c-81.333 42.667 -167 64 -257 64z" />
    <glyph glyph-name="afii10056" unicode="&#xaf;" horiz-adv-x="591" vert-adv-y="2457" 
d="M427 0h-263v1365h263v-1365zM116 1774c38 0 71.333 -14.001 100 -42.001c27.333 -27.333 41 -61 41 -101s-13.667 -74 -41 -102c-28 -27.333 -62 -41 -102 -41s-73.667 13.667 -101 41c-28 28.667 -42 62.334 -42 101.001c0 40.667 14 74.667 42 102
c28.667 28 63 42 103 42zM478 1774c38 0 71.333 -14.001 100 -42.001c27.333 -27.333 41 -61 41 -101s-13.667 -74 -41 -102c-28 -27.333 -62 -41 -102 -41c-39.333 0 -73 13.667 -101 41c-28 28.667 -42 62.334 -42 101.001c0 40.667 14 74.667 42 102
c28.667 28 63 42 103 42z" />
    <glyph glyph-name="degree" unicode="&#xb0;" vert-adv-y="2457" 
d="M512 1391c86 0 159.667 -29.668 221 -89.001c60.667 -60 91 -132.333 91 -217s-30 -157 -90 -217c-62 -61.333 -136 -92 -222 -92c-86.667 0 -160.667 30.667 -222 92c-60.667 60 -91 133.667 -91 221c0 82.667 30.333 153.334 91 212.001c62.667 60 136.667 90 222 90z
M511 1243c-44 0 -82 -15.668 -114 -47.001c-31.333 -30.667 -47 -67 -47 -109c0 -45.333 15.667 -83.666 47 -114.999c32.667 -32 71 -48 115 -48c43.333 0 81.333 16 114 48c31.333 31.333 47 68.666 47 111.999c0 44.667 -16 82.334 -48 113.001s-70 46 -114 46z" />
    <glyph glyph-name="plusminus" unicode="&#xb1;" horiz-adv-x="1167" vert-adv-y="2457" 
d="M683 824h387v-192h-387v-331h-199v331h-387v192h387v402h199v-402zM97 192h973v-192h-973v192z" />
    <glyph glyph-name="afii10055" unicode="&#xb2;" horiz-adv-x="591" vert-adv-y="2457" 
d="M427 0h-263v1365h263v-1365z" />
    <glyph glyph-name="afii10103" unicode="&#xb3;" horiz-adv-x="534" vert-adv-y="2457" 
d="M141 973h253v-973h-253v973zM271 1392c42 0 75.667 -12.333 101 -37c28 -26.667 42 -63 42 -109c0 -45.333 -14.333 -81.666 -43 -108.999c-25.333 -25.333 -60 -38 -104 -38c-45.333 0 -81 13.333 -107 40c-26 25.333 -39 59.666 -39 102.999c0 48.667 14.667 86 44 112
c28 25.333 63.333 38 106 38z" />
    <glyph glyph-name="afii10098" unicode="&#xb4;" horiz-adv-x="787" vert-adv-y="2457" 
d="M774 1086v-310h-380v-776h-253v973h380v113h253z" />
    <glyph glyph-name="mu" unicode="&#xb5;" vert-adv-y="2457" 
d="M56 -354v1337h253v-523c0 -78 6.66699 -133.333 20 -166c18.667 -46 49.334 -80.333 92.001 -103c30 -16 61.333 -24 94 -24c60 0 108.333 24 145 72c21.333 27.333 36 59 44 95c6.66699 29.333 10 74 10 134v515h253v-983h-253v122c-20.667 -42 -42 -72.667 -64 -92
c-39.333 -34 -86.333 -51 -141 -51c-82.667 0 -149.334 42.333 -200.001 127v-460h-253z" />
    <glyph glyph-name="paragraph" unicode="&#xb6;" horiz-adv-x="1345" vert-adv-y="2457" 
d="M445 -190l0.000976562 846.001c-12.667 -0.666992 -21.334 -1 -26.001 -1c-60.667 0 -120.334 13.333 -179.001 40c-65.333 29.333 -113.666 73.666 -144.999 132.999c-27.333 52 -41 110.667 -41 176c0 78.667 19.333 147 58 205c46.667 70 119 115.667 217 137
c60 12.667 125 19 195 19h671v-195h-147v-1360h-214v1360h-175v-1360h-214z" />
    <glyph glyph-name="middot" unicode="&#xb7;" horiz-adv-x="515" vert-adv-y="2457" 
d="M259 671c38.667 0 75.332 -16 109.999 -48c29.333 -28 44 -64.667 44 -110c0 -44 -14.667 -80.333 -44 -109c-31.333 -30.667 -68.666 -46 -111.999 -46s-80.333 15.333 -111 46c-30.667 30 -46 66.333 -46 109c0 44 15.333 80.667 46 110c33.333 32 71 48 113 48z" />
    <glyph glyph-name="afii10071" unicode="&#xb8;" horiz-adv-x="1054" vert-adv-y="2457" 
d="M985 425h-664.999c3.33301 -66.667 20 -121 50 -163c41.333 -58 103.333 -87 186 -87c92 0 154.667 36 188 108l223 -9c-16 -70.667 -50.667 -132.667 -104 -186c-76.667 -76.667 -181.334 -115 -314.001 -115c-112.667 0 -207.667 26 -285 78
c-69.333 46.667 -120.333 110.334 -153 191.001c-28.667 72.667 -43 150 -43 232c0 121.333 27.667 227.333 83 318c84.667 138.667 215 208 391 208c138.667 0 248.667 -49 330 -147c76 -92.667 114 -219.334 114 -380.001c0 -10 -0.333008 -26 -1 -48zM732.001 609
c-20 130 -84.332 195 -192.999 195c-110.667 0 -181.334 -65 -212.001 -195h405zM368.002 1400c37.333 0 69.334 -13.666 96.001 -40.999c27.333 -26.667 41 -59.334 41 -98.001c0 -38 -13.667 -70.667 -41 -98s-60 -41 -98 -41s-70.667 13.667 -98 41s-41 60 -41 98
c0 39.333 13.667 72 41 98c27.333 27.333 60.666 41 99.999 41zM731.003 1400c37.333 0 69.667 -13.668 97 -41.001s41 -60 41 -98s-13.667 -70.667 -41 -98s-60 -41 -98 -41s-71 13.667 -99 41c-26.667 26.667 -40 59.334 -40 98.001c0 39.333 13.333 72 40 98
c28 27.333 61.333 41 100 41z" />
    <glyph glyph-name="numero" unicode="&#xb9;" horiz-adv-x="1973" vert-adv-y="2457" 
d="M164 1365h279l556 -961v961h249v-1365h-263l-572 961v-961h-249v1365zM1378 275h568v-197h-568v197zM1662 944c72.667 0 135.334 -23.334 188.001 -70.001c64 -56.667 96 -134.667 96 -234s-32 -177.333 -96 -234c-52.667 -46.667 -115.334 -70 -188.001 -70
c-73.333 0 -136 23.333 -188 70c-64 56.667 -96 136 -96 238c0 98.667 32 175.334 96 230.001c54 46.667 116.667 70 188 70zM1662 775.999c-28.667 0 -51.667 -11.667 -69 -35c-18.667 -26 -28 -59 -28 -99c0 -42.667 9.33301 -76.667 28 -102
c17.333 -24 40.333 -36 69 -36s51.667 12 69 36c18.667 26 28 59.333 28 100c0 41.333 -9.33301 75 -28 101c-18 23.333 -41 35 -69 35z" />
    <glyph glyph-name="afii10101" unicode="&#xba;" horiz-adv-x="1017" vert-adv-y="2457" 
d="M334 585h273.001v-197h-274c11.333 -56 26.333 -98.333 45 -127c36 -57.333 88.333 -86 157 -86c96.667 0 153 53.667 169 161l242 -17c-22 -104 -58.333 -181.667 -109 -233c-75.333 -75.333 -176 -113 -302 -113c-130.667 0 -238.334 42 -323.001 126
c-96 95.333 -144 224.333 -144 387c0 179.333 57 317 171 413c79.333 67.333 179.666 101 300.999 101c138 0 244.667 -45.667 320 -137c40.667 -50.667 66.667 -112.667 78 -186l-243 -24c-15.333 96.667 -67.666 145 -156.999 145c-107.333 0 -175.333 -71 -204 -213z" />
    <glyph glyph-name="guillemotright" unicode="&#xbb;" horiz-adv-x="1001" vert-adv-y="2457" 
d="M123 980h213l223 -475l-223 -505h-213l185 505zM510 980h213l223 -475l-223 -505h-213l185 505z" />
    <glyph glyph-name="afii10105" unicode="&#xbc;" horiz-adv-x="556" vert-adv-y="2457" 
d="M169 973l252.998 0.000976562v-833c0 -106.667 -4.33301 -180.667 -13 -222c-20.667 -102.667 -72.667 -180.334 -156 -233.001c-65.333 -40.667 -159.666 -61 -282.999 -61c-10 0 -27.333 0.333008 -52 1v216h31c100.667 0 165.667 23.667 195 71
c12.667 20 20.334 49.333 23.001 88c1.33301 12 2 40.667 2 86v52v835zM300.998 1391c42 0 75.667 -12 101 -36c26.667 -25.333 40 -61.666 40 -108.999c0 -46.667 -13.667 -83 -41 -109c-26 -25.333 -60.667 -38 -104 -38c-46 0 -82 13.333 -108 40
c-26 26 -39 60.333 -39 103c0 47.333 15 84.666 45 111.999c26.667 24.667 62 37 106 37z" />
    <glyph glyph-name="afii10054" unicode="&#xbd;" horiz-adv-x="1157" vert-adv-y="2457" 
d="M1047 965l-251.999 0.000976562c-4 50.667 -18.667 91.667 -44 123c-40 51.333 -99.667 77 -179 77c-52 0 -97 -12.333 -135 -37c-43.333 -28 -65 -65 -65 -111c0 -42.667 23.333 -77 70 -103c26 -14 101 -46 225 -96c121.333 -48.667 195.666 -80.667 222.999 -96
c78 -43.333 131.667 -96 161 -158c23.333 -50.667 35 -107.334 35 -170.001c0 -138 -51.333 -246.333 -154 -325c-82.667 -63.333 -193.667 -95 -333 -95c-216 0 -368.333 69.667 -457 209c-46 71.333 -71.333 165 -76 281h254c17.333 -176 111 -264 281 -264
c64 0 116.667 13.667 158 41c39.333 26 59 61 59 105c0 52 -31.333 95.333 -94 130c-24 13.333 -102.667 48 -236 104c-142.667 59.333 -236.667 113.333 -282 162c-64 68.667 -96 151.667 -96 249c0 98.667 31.333 183 94 253c48.667 54.667 113 95 193 121
c55.333 17.333 115.333 26 180 26c177.333 0 309.333 -60 396 -180c43.333 -61.333 68 -143.333 74 -246z" />
    <glyph glyph-name="afii10102" unicode="&#xbe;" horiz-adv-x="993" vert-adv-y="2457" 
d="M898 678l-243.001 0.00195312c-12 89.333 -64.667 134 -158 134c-35.333 0 -66 -8.33301 -92 -25c-28.667 -18.667 -43 -44 -43 -76c0 -30 13.667 -53.333 41 -70c20.667 -12.667 86.334 -35 197.001 -67c86.667 -25.333 148.334 -48.333 185.001 -69
c80 -46 120 -119.333 120 -220c0 -96 -33.667 -172 -101 -228s-165.666 -84 -294.999 -84c-200.667 0 -332.334 59.667 -395.001 179c-24.667 48 -37 105.667 -37 173h238c4 -54.667 17.333 -93 40 -115c31.333 -31.333 79.666 -47 144.999 -47c42 0 76.333 7.33301 103 22
c33.333 18 50 45.667 50 83c0 32 -22 57.667 -66 77c-20 8.66699 -88.667 30.667 -206 66c-98 29.333 -164.667 61.666 -200 96.999c-45.333 45.333 -68 104.333 -68 177c0 92 34.333 167 103 225c71.333 60.667 167 91 287 91c164 0 279.333 -53 346 -159
c28 -44.667 44.333 -99.334 49 -164.001z" />
    <glyph glyph-name="afii10104" unicode="&#xbf;" horiz-adv-x="534" vert-adv-y="2457" 
d="M140 973h253v-973h-253v973zM100 1394c36 0 66.667 -12.667 92 -38c26 -26 39 -57.667 39 -95c0 -36.667 -13 -68 -39 -94s-57.333 -39 -94 -39s-68 13 -94 39s-39 57.333 -39 94c0 38 13 69.667 39 95s58 38 96 38zM437 1395c35.333 0 66 -12.999 92 -38.999
c26.667 -26.667 40 -58.334 40 -95.001c0 -36 -13.333 -67.333 -40 -94c-26 -26 -57.333 -39 -94 -39s-68 13 -94 39s-39 57.333 -39 94c0 38 13 69.667 39 95c26.667 26 58.667 39 96 39z" />
    <glyph glyph-name="afii10017" unicode="&#xc0;" horiz-adv-x="1232" vert-adv-y="2457" 
d="M481 1365h267l464 -1365h-271l-84 284h-483l-85 -284h-269zM790 508l-176 557l-173 -557h349z" />
    <glyph glyph-name="afii10018" unicode="&#xc1;" horiz-adv-x="1167" vert-adv-y="2457" 
d="M427 1141l-0.00195312 -286h82c163.333 0 280 -10 350 -30c88.667 -24.667 157.334 -77.334 206.001 -158.001c40 -66.667 60 -144 60 -232c0 -99.333 -24.667 -185.666 -74 -258.999c-57.333 -86.667 -154 -140.667 -290 -162
c-61.333 -9.33301 -153.666 -14 -276.999 -14h-320v1365h813v-224h-550zM426.998 631v-407h95c117.333 0 198.333 11 243 33c61.333 30.667 92 89 92 175c0 54.667 -14.667 99 -44 133s-74.666 54.333 -135.999 61c-34.667 3.33301 -90.334 5 -167.001 5h-83z" />
    <glyph glyph-name="afii10019" unicode="&#xc2;" horiz-adv-x="1205" vert-adv-y="2457" 
d="M164 1365h366c145.333 0 251.333 -11.333 318 -34c70.667 -24 125 -66.333 163 -127c33.333 -52.667 50 -113.334 50 -182.001c0 -92 -27.667 -164 -83 -216c-31.333 -29.333 -78.333 -53.666 -141 -72.999c199.333 -45.333 299 -158.333 299 -339
c0 -114 -39.333 -207 -118 -279c-67.333 -62 -163 -98.333 -287 -109c-50 -4 -131.667 -6 -245 -6h-322v1365zM421 815h113c86 0 148 7.66699 186 23c56.667 24 85 72.667 85 146c0 72 -27.333 120 -82 144c-37.333 16 -105.333 24 -204 24h-98v-337zM421 213h117.999
c120.667 0 200.334 8.66699 239.001 26c34 15.333 59 43 75 83c10.667 27.333 16 56.333 16 87c0 88 -34.333 145.667 -103 173c-42 17.333 -115.667 26 -221 26h-124v-395z" />
    <glyph glyph-name="afii10020" unicode="&#xc3;" horiz-adv-x="1054" vert-adv-y="2457" 
d="M164 0v1365h861v-224h-592v-1141h-269z" />
    <glyph glyph-name="afii10021" unicode="&#xc4;" horiz-adv-x="1382" vert-adv-y="2457" 
d="M1207 217h159v-422h-263v205h-833v-205h-263v422h77c49.333 0 88 13.667 116 41c24.667 24.667 38.667 67 42 127l52 980h913v-1148zM944 217v931h-396l-47 -764c-4 -72 -13.333 -127.667 -28 -167h471z" />
    <glyph glyph-name="afii10022" unicode="&#xc5;" horiz-adv-x="1099" vert-adv-y="2457" 
d="M427 819h542v-224h-542v-371h618v-224h-881v1365h859v-224h-596v-322z" />
    <glyph glyph-name="afii10024" unicode="&#xc6;" horiz-adv-x="1812" vert-adv-y="2457" 
d="M779 1365h256v-545h77l386 545h301l-469 -654l503 -711h-334l-393 603h-71v-603h-256v603h-72l-393 -603h-334l503 711l-469 654h302l385 -545h78v545z" />
    <glyph glyph-name="afii10025" unicode="&#xc7;" horiz-adv-x="1142" vert-adv-y="2457" 
d="M298 935l-227 21.998c14.667 95.333 35.667 166.666 63 213.999c52 90 124.333 152 217 186c62.667 22.667 141 34 235 34c142 0 253.667 -28 335 -84c47.333 -32.667 84.333 -75.334 111 -128.001c27.333 -54 41 -114 41 -180c0 -109.333 -27.333 -192.666 -82 -249.999
c-31.333 -32.667 -67.666 -55 -108.999 -67c128 -34 192 -132.667 192 -296c0 -129.333 -46.667 -231.666 -140 -306.999c-87.333 -70 -205 -105 -353 -105c-136.667 0 -241 23.333 -313 70c-88.667 57.333 -151.334 142.666 -188.001 255.999
c-12 38 -23.667 95.333 -35 172l245 35c6 -73.333 20.333 -132.666 43 -177.999c42.667 -85.333 119 -128 229 -128c76 0 134.333 17 175 51c42.667 36 64 85.333 64 148c0 116 -70 174 -210 174h-117v217h117c58.667 0 106 12.333 142 37
c44.667 30.667 67 78.334 67 143.001c0 64 -21.667 113 -65 147c-40 31.333 -96.333 47 -169 47c-64 0 -114.667 -12.333 -152 -37c-54 -35.333 -92.667 -99.666 -116 -192.999z" />
    <glyph glyph-name="afii10026" unicode="&#xc8;" horiz-adv-x="1412" vert-adv-y="2457" 
d="M164 0v1365h249v-854l586 720v134h249v-1365h-249v854l-586 -720v-134h-249z" />
    <glyph glyph-name="afii10027" unicode="&#xc9;" horiz-adv-x="1412" vert-adv-y="2457" 
d="M405 1779h97.001c52.667 -96.667 120.667 -145 204 -145s151.666 48.333 204.999 145h97c-9.33301 -74 -32.666 -134.667 -69.999 -182c-58 -73.333 -135 -110 -231 -110c-98.667 0 -177.334 38.667 -236.001 116c-36 48 -58 106.667 -66 176zM164.001 0v1365h249v-854
l586 720v134h249v-1365h-249v854l-586 -720v-134h-249z" />
    <glyph glyph-name="afii10028" unicode="&#xca;" horiz-adv-x="1275" vert-adv-y="2457" 
d="M931 1365h301l-510 -632l545 -733h-335l-502 723zM164 1365h263v-1365h-263v1365z" />
    <glyph glyph-name="afii10029" unicode="&#xcb;" horiz-adv-x="1330" vert-adv-y="2457" 
d="M30 -7v218c5.33301 -0.666992 9.66602 -1 12.999 -1c48.667 0 87 13.667 115 41c25.333 24.667 39.333 67.334 42 128.001l52 986h914v-1365h-263v1148h-396l-47 -771c-4.66699 -81.333 -16.667 -142 -36 -182c-44.667 -96 -124.667 -157.667 -240 -185
c-39.333 -8.66699 -90.666 -14.334 -153.999 -17.001z" />
    <glyph glyph-name="afii10030" unicode="&#xcc;" horiz-adv-x="1651" vert-adv-y="2457" 
d="M164 1365h366l295 -1084l299 1084h363v-1365h-237v1064l-292 -1064h-269l-288 1064v-1064h-237v1365z" />
    <glyph glyph-name="afii10031" unicode="&#xcd;" horiz-adv-x="1395" vert-adv-y="2457" 
d="M427 820h541v545h263v-1365h-263v603h-541v-603h-263v1365h263v-545z" />
    <glyph glyph-name="afii10032" unicode="&#xce;" horiz-adv-x="1378" vert-adv-y="2457" 
d="M690 1391c166.667 0 306 -54.333 418 -163c132 -127.333 198 -309 198 -545s-66 -418 -198 -546c-111.333 -108.667 -250.333 -163 -417 -163c-168.667 0 -308.667 54.333 -420 163c-132 128 -198 313.333 -198 556c0 108.667 18.667 215 56 319
c48 131.333 133.667 232 257 302c90.667 51.333 192 77 304 77zM689 1167c-104.667 0 -184.999 -38 -240.999 -114c-68 -92 -102 -213.333 -102 -364c0 -158.667 34 -284.334 102 -377.001c55.333 -76 136 -114 242 -114c105.333 0 185.666 38 240.999 114
c68 92.667 102 216.334 102 371.001s-34 278 -102 370c-56 76 -136.667 114 -242 114z" />
    <glyph glyph-name="afii10033" unicode="&#xcf;" horiz-adv-x="1395" vert-adv-y="2457" 
d="M427 1148v-1148h-263v1365h1067v-1365h-263v1148h-541z" />
    <glyph glyph-name="afii10034" unicode="&#xd0;" horiz-adv-x="1157" vert-adv-y="2457" 
d="M164 1365h320.001c177.333 0 306.666 -13.667 387.999 -41c87.333 -29.333 153 -83.666 197 -162.999c38 -69.333 57 -146 57 -230c0 -132.667 -42.333 -237.334 -127 -314.001c-68.667 -62 -168.667 -96.333 -300 -103c-54 -2.66699 -117.333 -4 -190 -4h-82v-510h-263
v1365zM427.001 734h83.001c120 0 199.667 7.33301 239 22c39.333 14 68.666 41 87.999 81c14 28 21 60 21 96c0 86 -30.667 144.333 -92 175c-44.667 22 -126 33 -244 33h-95v-407z" />
    <glyph glyph-name="afii10035" unicode="&#xd1;" horiz-adv-x="1228" vert-adv-y="2457" 
d="M1155 922l-225.999 0.000976562c-9.33301 59.333 -28.333 109 -57 149c-44.667 62.667 -110.334 94 -197.001 94c-99.333 0 -178 -41.333 -236 -124c-62 -90 -93 -210 -93 -360c0 -144.667 29 -261 87 -349c57.333 -87.333 139 -131 245 -131c157.333 0 244 102 260 306
h235c-6 -130 -30 -233 -72 -309c-82 -149.333 -220 -224 -414 -224c-166 0 -303.667 52 -413 156c-134 128 -201 311 -201 549c0 251.333 72.667 441.666 218 570.999c106 94 234 141 384 141c184 0 318.667 -65.333 404 -196c44 -68.667 69.333 -159.667 76 -273z" />
    <glyph glyph-name="afii10036" unicode="&#xd2;" horiz-adv-x="1031" vert-adv-y="2457" 
d="M24 1365h983v-224h-361v-1141h-263v1141h-359v224z" />
    <glyph glyph-name="afii10037" unicode="&#xd3;" horiz-adv-x="1145" vert-adv-y="2457" 
d="M577 706l293 659h289l-644 -1365h-263l192 416l-437 949h293z" />
    <glyph glyph-name="afii10038" unicode="&#xd4;" horiz-adv-x="1533" vert-adv-y="2457" 
d="M890 111v-111h-249v111c-113.333 6.66699 -213.333 33.667 -300 81c-182 99.333 -273 263 -273 491c0 154.667 43.667 280.667 131 378c104.667 117.333 252 181.666 442 192.999v111h249v-111c113.333 -6.66699 213.333 -33.667 300 -81
c84.667 -46 150 -107.667 196 -185c52 -87.333 78 -189 78 -305c0 -154.667 -44 -281 -132 -379c-104 -117.333 -251.333 -181.666 -442 -192.999zM641 1042c-63.333 -4.66699 -118 -21.332 -164 -49.999c-51.333 -31.333 -90 -77 -116 -137
c-22.667 -52 -34 -109.667 -34 -173c0 -88.667 21.333 -164.667 64 -228c54 -78.667 137.333 -122.334 250 -131.001v719zM890 1042v-719c67.333 6.66699 122.333 23 165 49c50 31.333 88.333 77.333 115 138c23.333 52.667 35 110 35 172c0 88 -21.667 164 -65 228
c-52.667 76.667 -136 120.667 -250 132z" />
    <glyph glyph-name="afii10039" unicode="&#xd5;" horiz-adv-x="1196" vert-adv-y="2457" 
d="M55 1365h299l246 -423l251 423h299l-399 -654l424 -711h-300l-275 473l-282 -473h-298l426 711z" />
    <glyph glyph-name="afii10040" unicode="&#xd6;" horiz-adv-x="1406" vert-adv-y="2457" 
d="M1231 217h159v-422h-263v205h-963v1365h263v-1148h541v1148h263v-1148z" />
    <glyph glyph-name="afii10041" unicode="&#xd7;" horiz-adv-x="1269" vert-adv-y="2457" 
d="M841 517c-82.667 -56.667 -193.332 -85 -331.999 -85c-98 0 -180.333 21.667 -247 65c-70.667 46 -114 116 -130 210c-5.33301 33.333 -8 85.666 -8 156.999v501h263v-442c0 -83.333 8 -141 24 -173c31.333 -64 95.333 -96 192 -96c84 0 153 21.667 207 65
c11.333 8.66699 21.666 19.334 30.999 32.001v614h263v-1365h-263v517z" />
    <glyph glyph-name="afii10042" unicode="&#xd8;" horiz-adv-x="1899" vert-adv-y="2457" 
d="M1081 217h391v1148h263v-1365h-1571v1365h263v-1148h391v1148h263v-1148z" />
    <glyph glyph-name="afii10043" unicode="&#xd9;" horiz-adv-x="1910" vert-adv-y="2457" 
d="M1631 0h-1467v1365h263v-1148h391v1148h263v-1148h391v1148h263v-1148h159v-422h-263v205z" />
    <glyph glyph-name="afii10044" unicode="&#xda;" horiz-adv-x="1387" vert-adv-y="2457" 
d="M7 1365h649.999v-510h83c162.667 0 279 -10 349 -30c89.333 -24.667 158 -77.334 206 -158.001c40.667 -67.333 61 -144.666 61 -231.999c0 -98.667 -24.667 -185 -74 -259c-58 -86.667 -155 -140.667 -291 -162c-61.333 -9.33301 -153.666 -14 -276.999 -14h-320v1141
h-387v224zM656.999 631l-0.000976562 -407h95c118 0 199.333 11 244 33c61.333 30.667 92 89 92 175c0 54 -15 98.333 -45 133c-29.333 34 -74.666 54.333 -135.999 61c-34 3.33301 -89.667 5 -167 5h-83z" />
    <glyph glyph-name="afii10045" unicode="&#xdb;" horiz-adv-x="1701" vert-adv-y="2457" 
d="M164 0l-0.000976562 1365h263v-510h82c163.333 0 280 -10 350 -30c89.333 -24.667 158 -77.334 206 -158.001c40.667 -67.333 61 -144.666 61 -231.999c0 -98.667 -24.667 -185 -74 -259c-57.333 -86.667 -154.333 -140.667 -291 -162
c-61.333 -9.33301 -153.666 -14 -276.999 -14h-320zM426.999 631l-0.000976562 -407h95c118 0 199.333 11 244 33c61.333 30.667 92 89 92 175c0 54 -15 98.333 -45 133c-29.333 34 -74.666 54.333 -135.999 61c-34 3.33301 -89.667 5 -167 5h-83zM1538 0h-263v1365h263
v-1365z" />
    <glyph glyph-name="afii10046" unicode="&#xdc;" horiz-adv-x="1157" vert-adv-y="2457" 
d="M164 0l-0.000976562 1365h263v-510h82c163.333 0 280 -10 350 -30c89.333 -24.667 158 -77.334 206 -158.001c40.667 -67.333 61 -144.666 61 -231.999c0 -98.667 -24.667 -185 -74 -259c-57.333 -86.667 -154.333 -140.667 -291 -162
c-61.333 -9.33301 -153.666 -14 -276.999 -14h-320zM426.999 631l-0.000976562 -407h95c118 0 199.333 11 244 33c61.333 30.667 92 89 92 175c0 54 -15 98.333 -45 133c-29.333 34 -74.666 54.333 -135.999 61c-34 3.33301 -89.667 5 -167 5h-83z" />
    <glyph glyph-name="afii10047" unicode="&#xdd;" horiz-adv-x="1223" vert-adv-y="2457" 
d="M889 790c-8.66699 74.667 -26.667 139.001 -54 193.001c-59.333 121.333 -149 182 -269 182c-68.667 0 -125.334 -21 -170.001 -63c-20 -18.667 -35.667 -39.334 -47 -62.001s-22.333 -55.334 -33 -98.001l-241 29c18.667 100 43.334 173 74.001 219
c49.333 75.333 119 130.333 209 165c62.667 24 131.667 36 207 36c151.333 0 280 -47 386 -141c145.333 -130 218 -320.333 218 -571c0 -238 -67.333 -421 -202 -549c-109.333 -104 -247.333 -156 -414 -156c-163.333 0 -289.333 54.333 -378 163
c-48 58.667 -79.333 122.334 -94 191.001c-8 38.667 -14.667 86.667 -20 144l242 35c17.333 -204 104.333 -306 261 -306c138 0 235 74.333 291 223c16 42 27.333 91.667 34 149h-402v217h402z" />
    <glyph glyph-name="afii10048" unicode="&#xde;" horiz-adv-x="1963" vert-adv-y="2457" 
d="M667 820c18.667 134 58.667 243.667 120 329c59.333 82 134.666 144.333 225.999 187c80 36.667 167 55 261 55c167.333 0 307 -54.333 419 -163c132 -128.667 198 -310.334 198 -545.001c0 -235.333 -66 -417.333 -198 -546c-112 -108.667 -251.667 -163 -419 -163
c-129.333 0 -244.333 34 -345 102c-159.333 108.667 -248.666 284.334 -267.999 527.001h-234v-603h-263v1365h263v-545h240zM1274 1167c-104.667 0 -185.331 -38.001 -241.998 -114.001c-67.333 -91.333 -101 -212.666 -101 -363.999c0 -159.333 33.667 -285 101 -377
c56 -76 137 -114 243 -114c105.333 0 185.666 38 240.999 114c68 94 102 217.667 102 371c0 154 -34 277.333 -102 370c-56.667 76 -137.334 114 -242.001 114z" />
    <glyph glyph-name="afii10049" unicode="&#xdf;" horiz-adv-x="1227" vert-adv-y="2457" 
d="M1063 1365v-1365h-263v521h-188l-279 -521h-306l315 566c-161.333 74 -242 200.667 -242 380c0 99.333 26.667 184.333 80 255c60 80 145.667 129.333 257 148c64 10.667 159 16 285 16h341zM800 745v396.002h-75c-94 0 -158.667 -2.66699 -194 -8
c-54 -8.66699 -95.667 -31.334 -125 -68.001c-26 -32.667 -39 -72.334 -39 -119.001c0 -58 18.667 -104.667 56 -140c31.333 -30.667 75.666 -49 132.999 -55c34.667 -4 84.334 -6 149.001 -6h95z" />
    <glyph glyph-name="afii10065" unicode="&#xe0;" horiz-adv-x="1049" vert-adv-y="2457" 
d="M358 683h-240c12.667 98 48.667 170.667 108 218c76 61.333 181.667 92 317 92c174.667 0 286 -48 334 -144c25.333 -50.667 38 -130.667 38 -240v-392c0 -100.667 10.667 -173 32 -217h-229c-8 33.333 -12 70.333 -12 111c-52.667 -88 -142 -132 -268 -132
c-100.667 0 -182.334 20.667 -245.001 62c-72 48 -108 120 -108 216c0 138.667 73.333 235.667 220 291c60 22.667 148.333 44.667 265 66c21.333 4 55 10 101 18v16c0 48 -7.66699 82 -23 102c-24 29.333 -65.333 44 -124 44c-95.333 0 -150.666 -37 -165.999 -111z
M671 464c-142.667 -17.333 -232.667 -39.333 -270 -66c-39.333 -28 -59 -64 -59 -108c0 -30.667 11 -56.667 33 -78c28 -26.667 66.333 -40 115 -40c80 0 134 30 162 90c12.667 28 19 77 19 147v55z" />
    <glyph glyph-name="afii10066" unicode="&#xe1;" horiz-adv-x="1100" vert-adv-y="2457" 
d="M335 902c64.667 65.333 149.668 97.999 255.001 97.999c123.333 0 224 -39 302 -117c41.333 -42 73.666 -93.333 96.999 -154c28.667 -75.333 43 -154.333 43 -237c0 -171.333 -54.333 -305.333 -163 -402c-88 -78 -193.667 -117 -317 -117c-94 0 -179.667 24 -257 72
c-94.667 58.667 -160 144.334 -196 257.001c-18.667 59.333 -28 141.333 -28 246c0 314.667 50.667 543 152 685c50.667 70 107 118.333 169 145c47.333 20 103.666 30 168.999 30c29.333 0 86 -6.33301 170 -19c25.333 -4 49 -6 71 -6c60 0 117.333 21.333 172 64v-202
c-29.333 -25.333 -56 -42 -80 -50c-29.333 -9.33301 -65.666 -14 -108.999 -14c-21.333 0 -48.333 3 -81 9c-54.667 10.667 -96.667 16 -126 16c-80.667 0 -142.667 -39.667 -186 -119c-22 -41.333 -41 -103 -57 -185zM552.001 797.999c-66 0 -118.668 -27.333 -158.001 -82
c-43.333 -59.333 -65 -134.333 -65 -225c0 -96.667 21.667 -175 65 -235c39.333 -54 92 -81 158 -81s118.333 27 157 81c44 61.333 66 138 66 230c0 94 -22 170.667 -66 230c-39.333 54.667 -91.666 82 -156.999 82z" />
    <glyph glyph-name="afii10067" unicode="&#xe2;" horiz-adv-x="997" vert-adv-y="2457" 
d="M141 0l-0.000976562 973h455c88.667 0 157 -16.333 205 -49c68.667 -46 103 -112.667 103 -200c0 -66.667 -19.333 -120.667 -58 -162c-18 -18.667 -45.667 -37.334 -83 -56.001c111.333 -40 167 -113 167 -219c0 -85.333 -29.667 -155.666 -89 -210.999
c-30.667 -29.333 -64 -49 -100 -59c-41.333 -11.333 -99.666 -17 -174.999 -17h-425zM393.999 404l-0.000976562 -214.999h129c50.667 0 86.334 6 107.001 18c32.667 19.333 49 49.666 49 90.999c0 70.667 -49.333 106 -148 106h-137zM393.998 785.001v-197h115
c94.667 0 142 33.667 142 101c0 41.333 -17 69.333 -51 84c-17.333 8 -46.333 12 -87 12h-119z" />
    <glyph glyph-name="afii10068" unicode="&#xe3;" horiz-adv-x="787" vert-adv-y="2457" 
d="M394 776v-776h-253v973h633v-197h-380z" />
    <glyph glyph-name="afii10069" unicode="&#xe4;" horiz-adv-x="1103" vert-adv-y="2457" 
d="M204 973l756.001 -0.000976562v-776h120v-402h-253v205h-560v-205h-253v402c52 -0.666992 91.333 13.333 118 42c23.333 24.667 36.666 70.334 39.999 137.001zM369.001 196.999l338 0.000976562v579h-268l-31 -418c-4.66699 -70.667 -17.667 -124.334 -39 -161.001z" />
    <glyph glyph-name="afii10070" unicode="&#xe5;" horiz-adv-x="1054" vert-adv-y="2457" 
d="M985 425h-664.999c3.33301 -66.667 20 -121 50 -163c41.333 -58 103.333 -87 186 -87c92 0 154.667 36 188 108l223 -9c-16 -70.667 -50.667 -132.667 -104 -186c-76.667 -76.667 -181.334 -115 -314.001 -115c-112.667 0 -207.667 26 -285 78
c-69.333 46.667 -120.333 110.334 -153 191.001c-28.667 72.667 -43 150 -43 232c0 121.333 27.667 227.333 83 318c84.667 138.667 215 208 391 208c138.667 0 248.667 -49 330 -147c76 -92.667 114 -219.334 114 -380.001c0 -10 -0.333008 -26 -1 -48zM732.001 609
c-20 130 -84.332 195 -192.999 195c-110.667 0 -181.334 -65 -212.001 -195h405z" />
    <glyph glyph-name="afii10072" unicode="&#xe6;" horiz-adv-x="1404" vert-adv-y="2457" 
d="M580 0v415h-60l-244 -415h-290l341 518l-335 455h276l251 -362h61v362h243v-362h61l251 362h276l-335 -455l341 -518h-290l-244 415h-60v-415h-243z" />
    <glyph glyph-name="afii10073" unicode="&#xe7;" horiz-adv-x="963" vert-adv-y="2457" 
d="M409 585h50.999l36 -1c40 0 71.667 10 95 30c20.667 18.667 31 43 31 73c0 36.667 -14.667 65.334 -44 86.001c-24 16.667 -56.667 25 -98 25c-56 0 -97.667 -18.333 -125 -55c-6.66699 -8.66699 -20 -41.334 -40 -98.001l-236 23c12.667 91.333 45 163.666 97 216.999
c74 76 178.667 114 314 114c97.333 0 179 -17.333 245 -52c95.333 -50.667 143 -130.667 143 -240c0 -124.667 -65.333 -197 -196 -217c141.333 -19.333 212 -94.333 212 -225c0 -104.667 -42 -181.667 -126 -231c-69.333 -41.333 -159 -62 -269 -62
c-151.333 0 -264.666 46.333 -339.999 139c-47.333 56.667 -77 125.334 -89 206.001l243 16c14.667 -106 73.667 -159 177 -159c40.667 0 74.667 8.66699 102 26c30 19.333 45 48 45 86c0 43.333 -18.667 73.333 -56 90c-18.667 8 -55 12 -109 12h-63v197z" />
    <glyph glyph-name="afii10074" unicode="&#xe8;" horiz-adv-x="1151" vert-adv-y="2457" 
d="M770 532l-383 -442v-90h-246v973h246v-533l383 442v91h246v-973h-246v532z" />
    <glyph glyph-name="afii10075" unicode="&#xe9;" horiz-adv-x="1151" vert-adv-y="2457" 
d="M325 1399h103.998c18.667 -39.333 37.334 -69 56.001 -89c32.667 -35.333 73.334 -53 122.001 -53c46 0 83.667 17.333 113 52c17.333 20.667 35.333 50.667 54 90h105c-8.66699 -74.667 -29.667 -137 -63 -187c-48 -72.667 -117 -109 -207 -109
c-93.333 0 -166.333 37 -219 111c-36 49.333 -57.667 111 -65 185zM769.998 532l-383 -442v-90h-246v973h246v-533l383 442v91h246v-973h-246v532z" />
    <glyph glyph-name="afii10076" unicode="&#xea;" horiz-adv-x="1098" vert-adv-y="2457" 
d="M754 973h303l-366 -451l398 -522h-337l-356 519zM141 973h253v-973h-253v973z" />
    <glyph glyph-name="afii10077" unicode="&#xeb;" horiz-adv-x="1116" vert-adv-y="2457" 
d="M722 776h-269l-30 -425c-5.33301 -75.333 -17 -135.333 -35 -180c-36.667 -91.333 -107.667 -147 -213 -167c-28 -5.33301 -77.333 -9 -148 -11v197h12c42.667 0 76.667 12 102 36c18 16.667 30.333 38.667 37 66c4 15.333 6.66699 41 8 77l32 604h757v-973h-253v776z
" />
    <glyph glyph-name="afii10078" unicode="&#xec;" horiz-adv-x="1438" vert-adv-y="2457" 
d="M842 0h-245l-224 748v-748h-232v973h370l208 -717l209 717h370v-973h-232v748z" />
    <glyph glyph-name="afii10079" unicode="&#xed;" horiz-adv-x="1129" vert-adv-y="2457" 
d="M735 414h-341v-414h-253v973h253v-362h341v362h253v-973h-253v414z" />
    <glyph glyph-name="afii10080" unicode="&#xee;" horiz-adv-x="1097" vert-adv-y="2457" 
d="M548 1000c123.333 0 229.333 -39.002 318 -117.002c108 -96 162 -228.333 162 -397c0 -168 -54 -300 -162 -396c-88 -78 -193.667 -117 -317 -117c-124 0 -230 39 -318 117c-108.667 96.667 -163 231.334 -163 404.001c0 114.667 29 215.334 87 302.001
c49.333 74.667 117.333 130 204 166c60 25.333 123 38 189 38zM548 797.998c-66 0 -118.667 -27.335 -158 -82.002c-43.333 -60 -65 -135 -65 -225c0 -96 21.667 -174.333 65 -235c39.333 -54 92 -81 158 -81s118.667 27 158 81c43.333 60.667 65 137.334 65 230.001
c0 94.667 -21.667 171.334 -65 230.001c-40 54.667 -92.667 82 -158 82z" />
    <glyph glyph-name="afii10081" unicode="&#xef;" horiz-adv-x="1129" vert-adv-y="2457" 
d="M735 776h-341v-776h-253v973h847v-973h-253v776z" />
    <glyph glyph-name="afii10082" unicode="&#xf0;" horiz-adv-x="1123" vert-adv-y="2457" 
d="M140 -403l-0.00195312 1067c-1.33301 118 -2.66602 186 -3.99902 204c-2 32 -6.33301 67 -13 105h235c12 -33.333 17.667 -71.333 17 -114c24.667 33.333 50 59.333 76 78c52 37.333 116 56 192 56c107.333 0 196.333 -35 267 -105c96 -95.333 144 -226.666 144 -393.999
c0 -188 -57 -331.333 -171 -430c-66 -56.667 -143 -85 -231 -85c-101.333 0 -187.666 42 -258.999 126v-508h-253zM596.998 782.999c-55.333 0 -99.666 -18.667 -132.999 -56c-50.667 -56.667 -76 -138.667 -76 -246c0 -98.667 23.333 -174.667 70 -228
c37.333 -42 83.666 -63 138.999 -63c56 0 99.333 18.667 130 56c46.667 57.333 70 138.666 70 243.999c0 96.667 -21.333 173.334 -64 230.001c-30.667 42 -76 63 -136 63z" />
    <glyph glyph-name="afii10083" unicode="&#xf1;" horiz-adv-x="1017" vert-adv-y="2457" 
d="M942 651h-247.002c-15.333 98 -67.666 147 -156.999 147c-58.667 0 -105.667 -22 -141 -66c-48 -60.667 -72 -143 -72 -247c0 -117.333 27.667 -204.666 83 -261.999c30.667 -32 73 -48 127 -48c98.667 0 155.334 57 170.001 171h244
c-5.33301 -100.667 -42.666 -187 -111.999 -259c-73.333 -76 -174 -114 -302 -114c-130.667 0 -238.334 42 -323.001 126c-96 96 -144 225 -144 387c0 114 25.667 214 77 300c84 142.667 215.667 214 395 214c138.667 0 245.334 -45.667 320.001 -137
c43.333 -52.667 70.666 -123.334 81.999 -212.001z" />
    <glyph glyph-name="afii10084" unicode="&#xf2;" horiz-adv-x="842" vert-adv-y="2457" 
d="M548 776v-776h-253v776h-281v197h814v-197h-280z" />
    <glyph glyph-name="afii10085" unicode="&#xf3;" horiz-adv-x="1022" vert-adv-y="2457" 
d="M33 973h267l217 -741l225 741h262l-330 -946c-36 -102.667 -62 -169.667 -78 -201c-39.333 -76.667 -85.333 -132.667 -138 -168c-68.667 -46 -170.334 -69 -305.001 -69c-17.333 0 -49 0.666992 -95 2v219c60.667 0 105.334 1 134.001 3c64 5.33301 112 27 144 65
c15.333 18.667 29 44.667 41 78z" />
    <glyph glyph-name="afii10086" unicode="&#xf4;" horiz-adv-x="1475" vert-adv-y="2457" 
d="M614 1374l245.998 -0.000976562v-453c24 26 46.667 44.333 68 55c32.667 16 73 24 121 24c99.333 0 179.666 -37 240.999 -111c77.333 -93.333 116 -227.333 116 -402c0 -176 -38.667 -310.333 -116 -403c-61.333 -74 -142.666 -111 -243.999 -111
c-47.333 0 -87.666 9 -120.999 27c-19.333 10 -41 27.333 -65 52v-455h-246v455c-30 -30 -59 -50.667 -87 -62c-27.333 -11.333 -60.333 -17 -99 -17c-101.333 0 -182.666 37 -243.999 111c-77.333 92.667 -116 227 -116 403c0 174.667 38.667 308.667 116 402
c61.333 74 141.333 111 240 111c56 0 101.667 -11 137 -33c15.333 -9.33301 33 -24.666 53 -45.999v453zM992.998 797.999c-50 0 -85.333 -25.667 -106 -77c-18 -45.333 -27 -125 -27 -239c0 -110 9 -187 27 -231c21.333 -50 57 -75 107 -75c103.333 0 155 104.667 155 314
c0 205.333 -52 308 -156 308zM480.998 797.999c-104 0 -156 -102.668 -156 -308.001c0 -209.333 51.667 -314 155 -314c50 0 85.667 25 107 75c18 44 27 121 27 231c0 112.667 -9 192.334 -27 239.001c-20 51.333 -55.333 77 -106 77z" />
    <glyph glyph-name="afii10087" unicode="&#xf5;" horiz-adv-x="1026" vert-adv-y="2457" 
d="M51 973h301l161 -272l164 272h300l-309 -454l356 -519h-306l-206 322l-204 -322h-306l358 519z" />
    <glyph glyph-name="afii10088" unicode="&#xf6;" horiz-adv-x="1131" vert-adv-y="2457" 
d="M988 197h120v-402h-253v205h-714v973h253v-776h341v776h253v-776z" />
    <glyph glyph-name="afii10089" unicode="&#xf7;" horiz-adv-x="1071" vert-adv-y="2457" 
d="M678 347c-78.667 -54 -169.666 -81 -272.999 -81c-96.667 0 -173.334 30 -230.001 90c-52.667 56 -79 134.667 -79 236v381h253v-311c0 -50 6.33301 -86.667 19 -110c22.667 -42.667 64 -64 124 -64c77.333 0 139.333 25 186 75v410h253v-973h-253v347z" />
    <glyph glyph-name="afii10090" unicode="&#xf8;" horiz-adv-x="1560" vert-adv-y="2457" 
d="M1166 197v776h253v-973h-1278v973h253v-776h260v776h253v-776h259z" />
    <glyph glyph-name="afii10091" unicode="&#xf9;" horiz-adv-x="1562" vert-adv-y="2457" 
d="M1419 197h120v-402h-253v205h-1145v973h253v-776h260v776h253v-776h259v776h253v-776z" />
    <glyph glyph-name="afii10092" unicode="&#xfa;" horiz-adv-x="1076" vert-adv-y="2457" 
d="M0 973l513 -0.000976562v-339h162c116.667 0 202.667 -19.333 258 -58c77.333 -54 116 -136.667 116 -248c0 -69.333 -17 -131.666 -51 -186.999c-58 -94 -149.333 -141 -274 -141h-464v776h-260v197zM513 443.999v-255h136c99.333 0 149 42.333 149 127
c0 85.333 -49.667 128 -149 128h-136z" />
    <glyph glyph-name="afii10093" unicode="&#xfb;" horiz-adv-x="1418" vert-adv-y="2457" 
d="M394 444v-255h137c98.667 0 148 42.333 148 127c0 85.333 -49.333 128 -148 128h-137zM394 634h162c116.667 0 202.667 -19.333 258 -58c77.333 -54 116 -136.667 116 -248c0 -70 -17 -132.333 -51 -187c-58 -94 -149.333 -141 -274 -141h-464v973h253v-339zM1025 973
h253v-973h-253v973z" />
    <glyph glyph-name="afii10094" unicode="&#xfc;" horiz-adv-x="956" vert-adv-y="2457" 
d="M394 444v-255h137c98.667 0 148 42.333 148 127c0 85.333 -49.333 128 -148 128h-137zM394 634h162c116.667 0 202.667 -19.333 258 -58c77.333 -54 116 -136.667 116 -248c0 -70 -17 -132.333 -51 -187c-58 -94 -149.333 -141 -274 -141h-464v973h253v-339z" />
    <glyph glyph-name="afii10095" unicode="&#xfd;" horiz-adv-x="1017" vert-adv-y="2457" 
d="M688 585c-28.667 142 -96.333 212.999 -203 212.999c-90 0 -142.667 -48.333 -158 -145l-243 24c12.667 84 45.334 153.333 98.001 208c74.667 76.667 174.667 115 300 115c121.333 0 221.666 -33.667 300.999 -101c114 -96 171 -233.667 171 -413
c0 -162.667 -48 -291.667 -144 -387c-84 -84 -191.667 -126 -323 -126c-228.667 0 -365.667 115.333 -411 346l242 17c16 -107.333 72.333 -161 169 -161c76.667 0 133 35.333 169 106c12.667 24.667 23.667 60.334 33 107.001h-274v197h273z" />
    <glyph glyph-name="afii10096" unicode="&#xfe;" horiz-adv-x="1584" vert-adv-y="2457" 
d="M568 611c18 85.333 50.668 157.333 98.001 216c47.333 60 107.666 105 180.999 135c60 25.333 123 38 189 38c123.333 0 229 -39.333 317 -118c108.667 -96 163 -228 163 -396s-54.333 -300 -163 -396c-88 -78 -193.667 -117 -317 -117c-93.333 0 -179 24 -257 72
c-126 78 -199 201 -219 369h-166v-414h-253v973h253v-362h174zM1036 798c-66 0 -118.666 -27.334 -157.999 -82.001c-43.333 -60 -65 -135.333 -65 -226c0 -96 21.667 -174 65 -234c39.333 -54 92 -81 158 -81s118.667 27 158 81c43.333 60.667 65 137.334 65 230.001
c0 94 -21.667 170.667 -65 230c-40.667 54.667 -93.334 82 -158.001 82z" />
    <glyph glyph-name="afii10097" unicode="&#xff;" vert-adv-y="2457" 
d="M507 339l-186 -339h-253l212 363c-26.667 9.33301 -50 21 -70 35c-76.667 54 -115 136 -115 246c0 70 17 132.667 51 188c58 94 149.333 141 274 141h464v-973h-253v339h-124zM631 529v255h-137c-98.667 0 -148 -42.667 -148 -128c0 -84.667 49.333 -127 148 -127h137z
" />
    <glyph glyph-name="afii10059" unicode="&#x152;" horiz-adv-x="1961" vert-adv-y="2457" 
d="M968 834l-0.000976562 531h263v-531h82c163.333 0 280 -9.66699 350 -29c89.333 -24.667 158 -76 206 -154c40.667 -66 61 -141.667 61 -227c0 -96 -24.667 -180.333 -74 -253c-58 -84 -155 -136.333 -291 -157c-61.333 -9.33301 -153.666 -14 -276.999 -14h-320v617
h-541v-617h-263v1365h263v-531h541zM1231 617v-393h95c118 0 199.333 10.667 244 32c61.333 29.333 92 85.666 92 168.999c0 52 -15 94.667 -45 128c-29.333 32.667 -74.666 52.334 -135.999 59.001c-34.667 3.33301 -90.334 5 -167.001 5h-83z" />
    <glyph glyph-name="afii10107" unicode="&#x153;" horiz-adv-x="1551" vert-adv-y="2457" 
d="M736 428h-342v-428h-253v973h253v-348h342v348h253v-348h162c116.667 0 202.667 -19 258 -57c77.333 -53.333 116 -134.666 116 -243.999c0 -68.667 -17 -130.334 -51 -185.001c-58 -92.667 -149.333 -139 -274 -139h-464v428zM989 428v-239h137c98.667 0 148 40 148 120
c0 79.333 -49.333 119 -148 119h-137z" />
    <glyph glyph-name="afii10058" unicode="&#x160;" horiz-adv-x="1896" vert-adv-y="2457" 
d="M1166 1365l-0.00195312 -510h82c163.333 0 280 -10 350 -30c89.333 -24.667 158 -77.334 206 -158.001c40.667 -67.333 61 -144.666 61 -231.999c0 -98.667 -24.667 -185 -74 -259c-57.333 -86.667 -154.333 -140.667 -291 -162
c-61.333 -9.33301 -153.666 -14 -276.999 -14h-320v1148h-396l-47 -771c-4.66699 -81.333 -16.667 -142 -36 -182c-44.667 -96 -124.667 -157.667 -240 -185c-39.333 -8.66699 -90.666 -14.334 -153.999 -17.001v217h13c48.667 0 87 13.667 115 41
c25.333 24.667 39.333 67.334 42 128.001l52 986h914zM1166 631l-0.000976562 -407h95c118 0 199.333 11 244 33c61.333 30.667 92 89 92 175c0 54 -15 98.333 -45 133c-29.333 34 -74.666 54.333 -135.999 61c-34 3.33301 -89.667 5 -167 5h-83z" />
    <glyph glyph-name="afii10106" unicode="&#x161;" horiz-adv-x="1538" vert-adv-y="2457" 
d="M975 444v-255h136c99.333 0 149 42.333 149 127c0 85.333 -49.667 128 -149 128h-136zM976 634l162.001 -0.000976562c116.667 0 202.667 -19.333 258 -58c77.333 -54 116 -136.667 116 -248c0 -119.333 -43.333 -209.666 -130 -270.999
c-53.333 -38 -118.333 -57 -195 -57h-464v776h-269l-31 -425c-5.33301 -75.333 -17 -135.333 -35 -180c-36.667 -91.333 -107.667 -147 -213 -167c-28 -5.33301 -77.333 -9 -148 -11v197h11c43.333 0 77.666 12 102.999 36c18 16.667 30.333 38.667 37 66
c4 15.333 7 41 9 77l32 604h757v-339z" />
    <glyph glyph-name="afii10193" unicode="&#x178;" horiz-adv-x="1129" vert-adv-y="2457" 
d="M439 0h-298v973h253v-776h341v776h253v-973h-296v-205h-253v205z" />
    <glyph glyph-name="afii10100" unicode="&#x192;" horiz-adv-x="787" vert-adv-y="2457" 
d="M394 776v-776h-253v973h633v-197h-380zM287 1109l243 311h306l-355 -311h-194z" />
    <glyph glyph-name="semicolon" unicode="&#x37e;" horiz-adv-x="515" vert-adv-y="2457" 
d="M242 976c40.667 0 77.332 -16 109.999 -48c29.333 -28.667 44 -65 44 -109s-14.667 -80.667 -44 -110c-32 -30.667 -69.333 -46 -112 -46c-43.333 0 -80.333 15.333 -111 46c-30.667 30 -46 66.667 -46 110c0 44 15.333 80.333 46 109c32.667 32 70.334 48 113.001 48z
M175.998 -465l-129.998 0.000976562c111.333 154.667 171.666 311.334 180.999 470.001c-100.667 13.333 -151 60.333 -151 141c0 43.333 16.333 80 49 110c30.667 28.667 68 43 112 43c49.333 0 89.666 -19.333 120.999 -58c30.667 -38.667 46 -92.334 46 -161.001
c0 -102.667 -29.667 -210.334 -89 -323.001c-34.667 -65.333 -81 -139.333 -139 -222z" />
    <glyph glyph-name="afii10023" unicode="&#x401;" horiz-adv-x="1099" vert-adv-y="2457" 
d="M427 819h542v-224h-542v-371h618v-224h-881v1365h859v-224h-596v-322zM406 1783c40 0 74.666 -14.667 103.999 -44c29.333 -28.667 44 -64 44 -106s-14.667 -77.667 -44 -107s-64.666 -44 -105.999 -44c-42 0 -77.667 14.667 -107 44s-44 65 -44 107
s14.667 77.333 44 106c30 29.333 66.333 44 109 44zM786.999 1783c40.667 0 75.667 -14.666 105 -43.999c28.667 -28.667 43 -64 43 -106c0 -42.667 -14.333 -78.334 -43 -107.001c-30 -29.333 -65.667 -44 -107 -44s-77 14.667 -107 44c-29.333 30 -44 65.667 -44 107
c0 42 14.667 77.333 44 106c30 29.333 66.333 44 109 44z" />
    <glyph glyph-name="afii10051" unicode="&#x402;" horiz-adv-x="1276" vert-adv-y="2457" 
d="M753 -159h31c83.333 0 142 15.667 176 47c15.333 14.667 25 29 29 43c9.33301 36.667 14 55.334 14 56.001l-3 13v442c0 83.333 -8 141.333 -24 174c-31.333 64 -95.666 96 -192.999 96c-82.667 0 -151.667 -21.667 -207 -65c-10.667 -8.66699 -21 -19.334 -31 -32.001
v-615h-263v1141h-258v224h983v-224h-462v-293c24 16 47.667 28.667 71 38c81.333 32 168.333 48 261 48c98 0 180.667 -21.667 248 -65c71.333 -46 114.666 -116 129.999 -210c5.33301 -36 8 -88.667 8 -158l-1 -501c0 -28.667 -3.33301 -65 -10 -109
c-14.667 -96 -69.667 -166.667 -165 -212c-75.333 -36.667 -168.333 -55 -279 -55c-10.667 0 -29 0.333008 -55 1v216z" />
    <glyph glyph-name="afii10052" unicode="&#x403;" horiz-adv-x="1054" vert-adv-y="2457" 
d="M164 0v1365h861v-224h-592v-1141h-269zM427 1489l293 288h288l-358 -288h-223z" />
    <glyph glyph-name="afii10053" unicode="&#x404;" horiz-adv-x="1223" vert-adv-y="2457" 
d="M350 790l401.997 0.000976562v-217h-402c8 -70 23.667 -130.333 47 -181c58.667 -127.333 151.334 -191 278.001 -191c112.667 0 188.334 52 227.001 156c14 36 25.333 86 34 150l242 -35c-5.33301 -92 -18 -162.333 -38 -211
c-44.667 -106.667 -115.334 -184.667 -212.001 -234c-68 -35.333 -148.667 -53 -242 -53c-166.667 0 -304.667 52 -414 156c-134.667 128 -202 311 -202 549c0 250.667 72.667 441 218 571c106 94 234.667 141 386 141c132.667 0 244.334 -36.667 335.001 -110
c62 -50.667 104 -109.667 126 -177c10.667 -32.667 20 -77 28 -133l-240 -29c-13.333 51.333 -27 88.666 -41 111.999c-45.333 74 -115 111 -209 111c-130.667 0 -225 -70.667 -283 -212c-19.333 -46.667 -32.666 -101 -39.999 -163z" />
    <glyph glyph-name="afii10054" unicode="&#x405;" horiz-adv-x="1157" vert-adv-y="2457" 
d="M1047 965l-251.999 0.000976562c-4 50.667 -18.667 91.667 -44 123c-40 51.333 -99.667 77 -179 77c-52 0 -97 -12.333 -135 -37c-43.333 -28 -65 -65 -65 -111c0 -42.667 23.333 -77 70 -103c26 -14 101 -46 225 -96c121.333 -48.667 195.666 -80.667 222.999 -96
c78 -43.333 131.667 -96 161 -158c23.333 -50.667 35 -107.334 35 -170.001c0 -138 -51.333 -246.333 -154 -325c-82.667 -63.333 -193.667 -95 -333 -95c-216 0 -368.333 69.667 -457 209c-46 71.333 -71.333 165 -76 281h254c17.333 -176 111 -264 281 -264
c64 0 116.667 13.667 158 41c39.333 26 59 61 59 105c0 52 -31.333 95.333 -94 130c-24 13.333 -102.667 48 -236 104c-142.667 59.333 -236.667 113.333 -282 162c-64 68.667 -96 151.667 -96 249c0 98.667 31.333 183 94 253c48.667 54.667 113 95 193 121
c55.333 17.333 115.333 26 180 26c177.333 0 309.333 -60 396 -180c43.333 -61.333 68 -143.333 74 -246z" />
    <glyph glyph-name="afii10055" unicode="&#x406;" horiz-adv-x="591" vert-adv-y="2457" 
d="M427 0h-263v1365h263v-1365z" />
    <glyph glyph-name="afii10056" unicode="&#x407;" horiz-adv-x="591" vert-adv-y="2457" 
d="M427 0h-263v1365h263v-1365zM116 1774c38 0 71.333 -14.001 100 -42.001c27.333 -27.333 41 -61 41 -101s-13.667 -74 -41 -102c-28 -27.333 -62 -41 -102 -41s-73.667 13.667 -101 41c-28 28.667 -42 62.334 -42 101.001c0 40.667 14 74.667 42 102
c28.667 28 63 42 103 42zM478 1774c38 0 71.333 -14.001 100 -42.001c27.333 -27.333 41 -61 41 -101s-13.667 -74 -41 -102c-28 -27.333 -62 -41 -102 -41c-39.333 0 -73 13.667 -101 41c-28 28.667 -42 62.334 -42 101.001c0 40.667 14 74.667 42 102
c28.667 28 63 42 103 42z" />
    <glyph glyph-name="afii10057" unicode="&#x408;" horiz-adv-x="686" vert-adv-y="2457" 
d="M266 1365l263.002 -0.000976562v-1088c0 -108.667 -2.33301 -188.667 -7 -240c-10.667 -128.667 -66 -216 -166 -262c-72.667 -34 -168.334 -51 -287.001 -51c-14.667 0 -40.334 0.666992 -77.001 2v219c10 -0.666992 20 -1 30 -1c106.667 0 176 15.333 208 46
c19.333 18.667 30.333 53.334 33 104.001c2 34 3 93 3 177v1094z" />
    <glyph glyph-name="afii10058" unicode="&#x409;" horiz-adv-x="1896" vert-adv-y="2457" 
d="M1166 1365l-0.00195312 -510h82c163.333 0 280 -10 350 -30c89.333 -24.667 158 -77.334 206 -158.001c40.667 -67.333 61 -144.666 61 -231.999c0 -98.667 -24.667 -185 -74 -259c-57.333 -86.667 -154.333 -140.667 -291 -162
c-61.333 -9.33301 -153.666 -14 -276.999 -14h-320v1148h-396l-47 -771c-4.66699 -81.333 -16.667 -142 -36 -182c-44.667 -96 -124.667 -157.667 -240 -185c-39.333 -8.66699 -90.666 -14.334 -153.999 -17.001v217h13c48.667 0 87 13.667 115 41
c25.333 24.667 39.333 67.334 42 128.001l52 986h914zM1166 631l-0.000976562 -407h95c118 0 199.333 11 244 33c61.333 30.667 92 89 92 175c0 54 -15 98.333 -45 133c-29.333 34 -74.666 54.333 -135.999 61c-34 3.33301 -89.667 5 -167 5h-83z" />
    <glyph glyph-name="afii10059" unicode="&#x40a;" horiz-adv-x="1961" vert-adv-y="2457" 
d="M968 834l-0.000976562 531h263v-531h82c163.333 0 280 -9.66699 350 -29c89.333 -24.667 158 -76 206 -154c40.667 -66 61 -141.667 61 -227c0 -96 -24.667 -180.333 -74 -253c-58 -84 -155 -136.333 -291 -157c-61.333 -9.33301 -153.666 -14 -276.999 -14h-320v617
h-541v-617h-263v1365h263v-531h541zM1231 617v-393h95c118 0 199.333 10.667 244 32c61.333 29.333 92 85.666 92 168.999c0 52 -15 94.667 -45 128c-29.333 32.667 -74.666 52.334 -135.999 59.001c-34.667 3.33301 -90.334 5 -167.001 5h-83z" />
    <glyph glyph-name="afii10060" unicode="&#x40b;" horiz-adv-x="1456" vert-adv-y="2457" 
d="M1000 0v442.001c0 83.333 -8 141.333 -24 174c-31.333 64 -95.666 96 -192.999 96c-82.667 0 -151.667 -21.667 -207 -65c-10.667 -8.66699 -21 -19.334 -31 -32.001v-615h-263v1141h-258v224h983v-224h-462v-293c24 16 47.667 28.667 71 38c81.333 32 168.333 48 261 48
c98 0 180.667 -21.667 248 -65c71.333 -46 114.666 -116 129.999 -210c5.33301 -36 8 -88.667 8 -158l-1 -501h-262z" />
    <glyph glyph-name="afii10061" unicode="&#x40c;" horiz-adv-x="1275" vert-adv-y="2457" 
d="M931 1365h301l-510 -632l545 -733h-335l-502 723zM164 1365h263v-1365h-263v1365zM546 1489l294 288h288l-359 -288h-223z" />
    <glyph glyph-name="afii10062" unicode="&#x40e;" horiz-adv-x="1145" vert-adv-y="2457" 
d="M293 1779h97c52.667 -96.667 120.667 -145 204 -145s151.666 48.333 204.999 145h97c-9.33301 -74 -32.666 -134.667 -69.999 -182c-58 -73.333 -135 -110 -231 -110c-98 0 -176.667 38.667 -236 116c-36 48 -58 106.667 -66 176zM577 706l293 659h289l-644 -1365h-263
l192 416l-437 949h293z" />
    <glyph glyph-name="afii10145" unicode="&#x40f;" horiz-adv-x="1395" vert-adv-y="2457" 
d="M829 0v-205h-263v205h-402v1365h263v-1148h541v1148h263v-1365h-402z" />
    <glyph glyph-name="afii10017" unicode="&#x410;" horiz-adv-x="1232" vert-adv-y="2457" 
d="M481 1365h267l464 -1365h-271l-84 284h-483l-85 -284h-269zM790 508l-176 557l-173 -557h349z" />
    <glyph glyph-name="afii10018" unicode="&#x411;" horiz-adv-x="1167" vert-adv-y="2457" 
d="M427 1141l-0.00195312 -286h82c163.333 0 280 -10 350 -30c88.667 -24.667 157.334 -77.334 206.001 -158.001c40 -66.667 60 -144 60 -232c0 -99.333 -24.667 -185.666 -74 -258.999c-57.333 -86.667 -154 -140.667 -290 -162
c-61.333 -9.33301 -153.666 -14 -276.999 -14h-320v1365h813v-224h-550zM426.998 631v-407h95c117.333 0 198.333 11 243 33c61.333 30.667 92 89 92 175c0 54.667 -14.667 99 -44 133s-74.666 54.333 -135.999 61c-34.667 3.33301 -90.334 5 -167.001 5h-83z" />
    <glyph glyph-name="afii10019" unicode="&#x412;" horiz-adv-x="1205" vert-adv-y="2457" 
d="M164 1365h366c145.333 0 251.333 -11.333 318 -34c70.667 -24 125 -66.333 163 -127c33.333 -52.667 50 -113.334 50 -182.001c0 -92 -27.667 -164 -83 -216c-31.333 -29.333 -78.333 -53.666 -141 -72.999c199.333 -45.333 299 -158.333 299 -339
c0 -114 -39.333 -207 -118 -279c-67.333 -62 -163 -98.333 -287 -109c-50 -4 -131.667 -6 -245 -6h-322v1365zM421 815h113c86 0 148 7.66699 186 23c56.667 24 85 72.667 85 146c0 72 -27.333 120 -82 144c-37.333 16 -105.333 24 -204 24h-98v-337zM421 213h117.999
c120.667 0 200.334 8.66699 239.001 26c34 15.333 59 43 75 83c10.667 27.333 16 56.333 16 87c0 88 -34.333 145.667 -103 173c-42 17.333 -115.667 26 -221 26h-124v-395z" />
    <glyph glyph-name="afii10020" unicode="&#x413;" horiz-adv-x="1054" vert-adv-y="2457" 
d="M164 0v1365h861v-224h-592v-1141h-269z" />
    <glyph glyph-name="afii10021" unicode="&#x414;" horiz-adv-x="1382" vert-adv-y="2457" 
d="M1207 217h159v-422h-263v205h-833v-205h-263v422h77c49.333 0 88 13.667 116 41c24.667 24.667 38.667 67 42 127l52 980h913v-1148zM944 217v931h-396l-47 -764c-4 -72 -13.333 -127.667 -28 -167h471z" />
    <glyph glyph-name="afii10022" unicode="&#x415;" horiz-adv-x="1099" vert-adv-y="2457" 
d="M427 819h542v-224h-542v-371h618v-224h-881v1365h859v-224h-596v-322z" />
    <glyph glyph-name="afii10024" unicode="&#x416;" horiz-adv-x="1812" vert-adv-y="2457" 
d="M779 1365h256v-545h77l386 545h301l-469 -654l503 -711h-334l-393 603h-71v-603h-256v603h-72l-393 -603h-334l503 711l-469 654h302l385 -545h78v545z" />
    <glyph glyph-name="afii10025" unicode="&#x417;" horiz-adv-x="1142" vert-adv-y="2457" 
d="M298 935l-227 21.998c14.667 95.333 35.667 166.666 63 213.999c52 90 124.333 152 217 186c62.667 22.667 141 34 235 34c142 0 253.667 -28 335 -84c47.333 -32.667 84.333 -75.334 111 -128.001c27.333 -54 41 -114 41 -180c0 -109.333 -27.333 -192.666 -82 -249.999
c-31.333 -32.667 -67.666 -55 -108.999 -67c128 -34 192 -132.667 192 -296c0 -129.333 -46.667 -231.666 -140 -306.999c-87.333 -70 -205 -105 -353 -105c-136.667 0 -241 23.333 -313 70c-88.667 57.333 -151.334 142.666 -188.001 255.999
c-12 38 -23.667 95.333 -35 172l245 35c6 -73.333 20.333 -132.666 43 -177.999c42.667 -85.333 119 -128 229 -128c76 0 134.333 17 175 51c42.667 36 64 85.333 64 148c0 116 -70 174 -210 174h-117v217h117c58.667 0 106 12.333 142 37
c44.667 30.667 67 78.334 67 143.001c0 64 -21.667 113 -65 147c-40 31.333 -96.333 47 -169 47c-64 0 -114.667 -12.333 -152 -37c-54 -35.333 -92.667 -99.666 -116 -192.999z" />
    <glyph glyph-name="afii10026" unicode="&#x418;" horiz-adv-x="1412" vert-adv-y="2457" 
d="M164 0v1365h249v-854l586 720v134h249v-1365h-249v854l-586 -720v-134h-249z" />
    <glyph glyph-name="afii10027" unicode="&#x419;" horiz-adv-x="1412" vert-adv-y="2457" 
d="M405 1779h97.001c52.667 -96.667 120.667 -145 204 -145s151.666 48.333 204.999 145h97c-9.33301 -74 -32.666 -134.667 -69.999 -182c-58 -73.333 -135 -110 -231 -110c-98.667 0 -177.334 38.667 -236.001 116c-36 48 -58 106.667 -66 176zM164.001 0v1365h249v-854
l586 720v134h249v-1365h-249v854l-586 -720v-134h-249z" />
    <glyph glyph-name="afii10028" unicode="&#x41a;" horiz-adv-x="1275" vert-adv-y="2457" 
d="M931 1365h301l-510 -632l545 -733h-335l-502 723zM164 1365h263v-1365h-263v1365z" />
    <glyph glyph-name="afii10029" unicode="&#x41b;" horiz-adv-x="1330" vert-adv-y="2457" 
d="M30 -7v218c5.33301 -0.666992 9.66602 -1 12.999 -1c48.667 0 87 13.667 115 41c25.333 24.667 39.333 67.334 42 128.001l52 986h914v-1365h-263v1148h-396l-47 -771c-4.66699 -81.333 -16.667 -142 -36 -182c-44.667 -96 -124.667 -157.667 -240 -185
c-39.333 -8.66699 -90.666 -14.334 -153.999 -17.001z" />
    <glyph glyph-name="afii10030" unicode="&#x41c;" horiz-adv-x="1651" vert-adv-y="2457" 
d="M164 1365h366l295 -1084l299 1084h363v-1365h-237v1064l-292 -1064h-269l-288 1064v-1064h-237v1365z" />
    <glyph glyph-name="afii10031" unicode="&#x41d;" horiz-adv-x="1395" vert-adv-y="2457" 
d="M427 820h541v545h263v-1365h-263v603h-541v-603h-263v1365h263v-545z" />
    <glyph glyph-name="afii10032" unicode="&#x41e;" horiz-adv-x="1378" vert-adv-y="2457" 
d="M690 1391c166.667 0 306 -54.333 418 -163c132 -127.333 198 -309 198 -545s-66 -418 -198 -546c-111.333 -108.667 -250.333 -163 -417 -163c-168.667 0 -308.667 54.333 -420 163c-132 128 -198 313.333 -198 556c0 108.667 18.667 215 56 319
c48 131.333 133.667 232 257 302c90.667 51.333 192 77 304 77zM689 1167c-104.667 0 -184.999 -38 -240.999 -114c-68 -92 -102 -213.333 -102 -364c0 -158.667 34 -284.334 102 -377.001c55.333 -76 136 -114 242 -114c105.333 0 185.666 38 240.999 114
c68 92.667 102 216.334 102 371.001s-34 278 -102 370c-56 76 -136.667 114 -242 114z" />
    <glyph glyph-name="afii10033" unicode="&#x41f;" horiz-adv-x="1395" vert-adv-y="2457" 
d="M427 1148v-1148h-263v1365h1067v-1365h-263v1148h-541z" />
    <glyph glyph-name="afii10034" unicode="&#x420;" horiz-adv-x="1157" vert-adv-y="2457" 
d="M164 1365h320.001c177.333 0 306.666 -13.667 387.999 -41c87.333 -29.333 153 -83.666 197 -162.999c38 -69.333 57 -146 57 -230c0 -132.667 -42.333 -237.334 -127 -314.001c-68.667 -62 -168.667 -96.333 -300 -103c-54 -2.66699 -117.333 -4 -190 -4h-82v-510h-263
v1365zM427.001 734h83.001c120 0 199.667 7.33301 239 22c39.333 14 68.666 41 87.999 81c14 28 21 60 21 96c0 86 -30.667 144.333 -92 175c-44.667 22 -126 33 -244 33h-95v-407z" />
    <glyph glyph-name="afii10035" unicode="&#x421;" horiz-adv-x="1228" vert-adv-y="2457" 
d="M1155 922l-225.999 0.000976562c-9.33301 59.333 -28.333 109 -57 149c-44.667 62.667 -110.334 94 -197.001 94c-99.333 0 -178 -41.333 -236 -124c-62 -90 -93 -210 -93 -360c0 -144.667 29 -261 87 -349c57.333 -87.333 139 -131 245 -131c157.333 0 244 102 260 306
h235c-6 -130 -30 -233 -72 -309c-82 -149.333 -220 -224 -414 -224c-166 0 -303.667 52 -413 156c-134 128 -201 311 -201 549c0 251.333 72.667 441.666 218 570.999c106 94 234 141 384 141c184 0 318.667 -65.333 404 -196c44 -68.667 69.333 -159.667 76 -273z" />
    <glyph glyph-name="afii10036" unicode="&#x422;" horiz-adv-x="1031" vert-adv-y="2457" 
d="M24 1365h983v-224h-361v-1141h-263v1141h-359v224z" />
    <glyph glyph-name="afii10037" unicode="&#x423;" horiz-adv-x="1145" vert-adv-y="2457" 
d="M577 706l293 659h289l-644 -1365h-263l192 416l-437 949h293z" />
    <glyph glyph-name="afii10038" unicode="&#x424;" horiz-adv-x="1533" vert-adv-y="2457" 
d="M890 111v-111h-249v111c-113.333 6.66699 -213.333 33.667 -300 81c-182 99.333 -273 263 -273 491c0 154.667 43.667 280.667 131 378c104.667 117.333 252 181.666 442 192.999v111h249v-111c113.333 -6.66699 213.333 -33.667 300 -81
c84.667 -46 150 -107.667 196 -185c52 -87.333 78 -189 78 -305c0 -154.667 -44 -281 -132 -379c-104 -117.333 -251.333 -181.666 -442 -192.999zM641 1042c-63.333 -4.66699 -118 -21.332 -164 -49.999c-51.333 -31.333 -90 -77 -116 -137
c-22.667 -52 -34 -109.667 -34 -173c0 -88.667 21.333 -164.667 64 -228c54 -78.667 137.333 -122.334 250 -131.001v719zM890 1042v-719c67.333 6.66699 122.333 23 165 49c50 31.333 88.333 77.333 115 138c23.333 52.667 35 110 35 172c0 88 -21.667 164 -65 228
c-52.667 76.667 -136 120.667 -250 132z" />
    <glyph glyph-name="afii10039" unicode="&#x425;" horiz-adv-x="1196" vert-adv-y="2457" 
d="M55 1365h299l246 -423l251 423h299l-399 -654l424 -711h-300l-275 473l-282 -473h-298l426 711z" />
    <glyph glyph-name="afii10040" unicode="&#x426;" horiz-adv-x="1406" vert-adv-y="2457" 
d="M1231 217h159v-422h-263v205h-963v1365h263v-1148h541v1148h263v-1148z" />
    <glyph glyph-name="afii10041" unicode="&#x427;" horiz-adv-x="1269" vert-adv-y="2457" 
d="M841 517c-82.667 -56.667 -193.332 -85 -331.999 -85c-98 0 -180.333 21.667 -247 65c-70.667 46 -114 116 -130 210c-5.33301 33.333 -8 85.666 -8 156.999v501h263v-442c0 -83.333 8 -141 24 -173c31.333 -64 95.333 -96 192 -96c84 0 153 21.667 207 65
c11.333 8.66699 21.666 19.334 30.999 32.001v614h263v-1365h-263v517z" />
    <glyph glyph-name="afii10042" unicode="&#x428;" horiz-adv-x="1899" vert-adv-y="2457" 
d="M1081 217h391v1148h263v-1365h-1571v1365h263v-1148h391v1148h263v-1148z" />
    <glyph glyph-name="afii10043" unicode="&#x429;" horiz-adv-x="1910" vert-adv-y="2457" 
d="M1631 0h-1467v1365h263v-1148h391v1148h263v-1148h391v1148h263v-1148h159v-422h-263v205z" />
    <glyph glyph-name="afii10044" unicode="&#x42a;" horiz-adv-x="1387" vert-adv-y="2457" 
d="M7 1365h649.999v-510h83c162.667 0 279 -10 349 -30c89.333 -24.667 158 -77.334 206 -158.001c40.667 -67.333 61 -144.666 61 -231.999c0 -98.667 -24.667 -185 -74 -259c-58 -86.667 -155 -140.667 -291 -162c-61.333 -9.33301 -153.666 -14 -276.999 -14h-320v1141
h-387v224zM656.999 631l-0.000976562 -407h95c118 0 199.333 11 244 33c61.333 30.667 92 89 92 175c0 54 -15 98.333 -45 133c-29.333 34 -74.666 54.333 -135.999 61c-34 3.33301 -89.667 5 -167 5h-83z" />
    <glyph glyph-name="afii10045" unicode="&#x42b;" horiz-adv-x="1701" vert-adv-y="2457" 
d="M164 0l-0.000976562 1365h263v-510h82c163.333 0 280 -10 350 -30c89.333 -24.667 158 -77.334 206 -158.001c40.667 -67.333 61 -144.666 61 -231.999c0 -98.667 -24.667 -185 -74 -259c-57.333 -86.667 -154.333 -140.667 -291 -162
c-61.333 -9.33301 -153.666 -14 -276.999 -14h-320zM426.999 631l-0.000976562 -407h95c118 0 199.333 11 244 33c61.333 30.667 92 89 92 175c0 54 -15 98.333 -45 133c-29.333 34 -74.666 54.333 -135.999 61c-34 3.33301 -89.667 5 -167 5h-83zM1538 0h-263v1365h263
v-1365z" />
    <glyph glyph-name="afii10046" unicode="&#x42c;" horiz-adv-x="1157" vert-adv-y="2457" 
d="M164 0l-0.000976562 1365h263v-510h82c163.333 0 280 -10 350 -30c89.333 -24.667 158 -77.334 206 -158.001c40.667 -67.333 61 -144.666 61 -231.999c0 -98.667 -24.667 -185 -74 -259c-57.333 -86.667 -154.333 -140.667 -291 -162
c-61.333 -9.33301 -153.666 -14 -276.999 -14h-320zM426.999 631l-0.000976562 -407h95c118 0 199.333 11 244 33c61.333 30.667 92 89 92 175c0 54 -15 98.333 -45 133c-29.333 34 -74.666 54.333 -135.999 61c-34 3.33301 -89.667 5 -167 5h-83z" />
    <glyph glyph-name="afii10047" unicode="&#x42d;" horiz-adv-x="1223" vert-adv-y="2457" 
d="M889 790c-8.66699 74.667 -26.667 139.001 -54 193.001c-59.333 121.333 -149 182 -269 182c-68.667 0 -125.334 -21 -170.001 -63c-20 -18.667 -35.667 -39.334 -47 -62.001s-22.333 -55.334 -33 -98.001l-241 29c18.667 100 43.334 173 74.001 219
c49.333 75.333 119 130.333 209 165c62.667 24 131.667 36 207 36c151.333 0 280 -47 386 -141c145.333 -130 218 -320.333 218 -571c0 -238 -67.333 -421 -202 -549c-109.333 -104 -247.333 -156 -414 -156c-163.333 0 -289.333 54.333 -378 163
c-48 58.667 -79.333 122.334 -94 191.001c-8 38.667 -14.667 86.667 -20 144l242 35c17.333 -204 104.333 -306 261 -306c138 0 235 74.333 291 223c16 42 27.333 91.667 34 149h-402v217h402z" />
    <glyph glyph-name="afii10048" unicode="&#x42e;" horiz-adv-x="1963" vert-adv-y="2457" 
d="M667 820c18.667 134 58.667 243.667 120 329c59.333 82 134.666 144.333 225.999 187c80 36.667 167 55 261 55c167.333 0 307 -54.333 419 -163c132 -128.667 198 -310.334 198 -545.001c0 -235.333 -66 -417.333 -198 -546c-112 -108.667 -251.667 -163 -419 -163
c-129.333 0 -244.333 34 -345 102c-159.333 108.667 -248.666 284.334 -267.999 527.001h-234v-603h-263v1365h263v-545h240zM1274 1167c-104.667 0 -185.331 -38.001 -241.998 -114.001c-67.333 -91.333 -101 -212.666 -101 -363.999c0 -159.333 33.667 -285 101 -377
c56 -76 137 -114 243 -114c105.333 0 185.666 38 240.999 114c68 94 102 217.667 102 371c0 154 -34 277.333 -102 370c-56.667 76 -137.334 114 -242.001 114z" />
    <glyph glyph-name="afii10049" unicode="&#x42f;" horiz-adv-x="1227" vert-adv-y="2457" 
d="M1063 1365v-1365h-263v521h-188l-279 -521h-306l315 566c-161.333 74 -242 200.667 -242 380c0 99.333 26.667 184.333 80 255c60 80 145.667 129.333 257 148c64 10.667 159 16 285 16h341zM800 745v396.002h-75c-94 0 -158.667 -2.66699 -194 -8
c-54 -8.66699 -95.667 -31.334 -125 -68.001c-26 -32.667 -39 -72.334 -39 -119.001c0 -58 18.667 -104.667 56 -140c31.333 -30.667 75.666 -49 132.999 -55c34.667 -4 84.334 -6 149.001 -6h95z" />
    <glyph glyph-name="afii10065" unicode="&#x430;" horiz-adv-x="1049" vert-adv-y="2457" 
d="M358 683h-240c12.667 98 48.667 170.667 108 218c76 61.333 181.667 92 317 92c174.667 0 286 -48 334 -144c25.333 -50.667 38 -130.667 38 -240v-392c0 -100.667 10.667 -173 32 -217h-229c-8 33.333 -12 70.333 -12 111c-52.667 -88 -142 -132 -268 -132
c-100.667 0 -182.334 20.667 -245.001 62c-72 48 -108 120 -108 216c0 138.667 73.333 235.667 220 291c60 22.667 148.333 44.667 265 66c21.333 4 55 10 101 18v16c0 48 -7.66699 82 -23 102c-24 29.333 -65.333 44 -124 44c-95.333 0 -150.666 -37 -165.999 -111z
M671 464c-142.667 -17.333 -232.667 -39.333 -270 -66c-39.333 -28 -59 -64 -59 -108c0 -30.667 11 -56.667 33 -78c28 -26.667 66.333 -40 115 -40c80 0 134 30 162 90c12.667 28 19 77 19 147v55z" />
    <glyph glyph-name="afii10066" unicode="&#x431;" horiz-adv-x="1100" vert-adv-y="2457" 
d="M335 902c64.667 65.333 149.668 97.999 255.001 97.999c123.333 0 224 -39 302 -117c41.333 -42 73.666 -93.333 96.999 -154c28.667 -75.333 43 -154.333 43 -237c0 -171.333 -54.333 -305.333 -163 -402c-88 -78 -193.667 -117 -317 -117c-94 0 -179.667 24 -257 72
c-94.667 58.667 -160 144.334 -196 257.001c-18.667 59.333 -28 141.333 -28 246c0 314.667 50.667 543 152 685c50.667 70 107 118.333 169 145c47.333 20 103.666 30 168.999 30c29.333 0 86 -6.33301 170 -19c25.333 -4 49 -6 71 -6c60 0 117.333 21.333 172 64v-202
c-29.333 -25.333 -56 -42 -80 -50c-29.333 -9.33301 -65.666 -14 -108.999 -14c-21.333 0 -48.333 3 -81 9c-54.667 10.667 -96.667 16 -126 16c-80.667 0 -142.667 -39.667 -186 -119c-22 -41.333 -41 -103 -57 -185zM552.001 797.999c-66 0 -118.668 -27.333 -158.001 -82
c-43.333 -59.333 -65 -134.333 -65 -225c0 -96.667 21.667 -175 65 -235c39.333 -54 92 -81 158 -81s118.333 27 157 81c44 61.333 66 138 66 230c0 94 -22 170.667 -66 230c-39.333 54.667 -91.666 82 -156.999 82z" />
    <glyph glyph-name="afii10067" unicode="&#x432;" horiz-adv-x="997" vert-adv-y="2457" 
d="M141 0l-0.000976562 973h455c88.667 0 157 -16.333 205 -49c68.667 -46 103 -112.667 103 -200c0 -66.667 -19.333 -120.667 -58 -162c-18 -18.667 -45.667 -37.334 -83 -56.001c111.333 -40 167 -113 167 -219c0 -85.333 -29.667 -155.666 -89 -210.999
c-30.667 -29.333 -64 -49 -100 -59c-41.333 -11.333 -99.666 -17 -174.999 -17h-425zM393.999 404l-0.000976562 -214.999h129c50.667 0 86.334 6 107.001 18c32.667 19.333 49 49.666 49 90.999c0 70.667 -49.333 106 -148 106h-137zM393.998 785.001v-197h115
c94.667 0 142 33.667 142 101c0 41.333 -17 69.333 -51 84c-17.333 8 -46.333 12 -87 12h-119z" />
    <glyph glyph-name="afii10068" unicode="&#x433;" horiz-adv-x="787" vert-adv-y="2457" 
d="M394 776v-776h-253v973h633v-197h-380z" />
    <glyph glyph-name="afii10069" unicode="&#x434;" horiz-adv-x="1103" vert-adv-y="2457" 
d="M204 973l756.001 -0.000976562v-776h120v-402h-253v205h-560v-205h-253v402c52 -0.666992 91.333 13.333 118 42c23.333 24.667 36.666 70.334 39.999 137.001zM369.001 196.999l338 0.000976562v579h-268l-31 -418c-4.66699 -70.667 -17.667 -124.334 -39 -161.001z" />
    <glyph glyph-name="afii10070" unicode="&#x435;" horiz-adv-x="1054" vert-adv-y="2457" 
d="M985 425h-664.999c3.33301 -66.667 20 -121 50 -163c41.333 -58 103.333 -87 186 -87c92 0 154.667 36 188 108l223 -9c-16 -70.667 -50.667 -132.667 -104 -186c-76.667 -76.667 -181.334 -115 -314.001 -115c-112.667 0 -207.667 26 -285 78
c-69.333 46.667 -120.333 110.334 -153 191.001c-28.667 72.667 -43 150 -43 232c0 121.333 27.667 227.333 83 318c84.667 138.667 215 208 391 208c138.667 0 248.667 -49 330 -147c76 -92.667 114 -219.334 114 -380.001c0 -10 -0.333008 -26 -1 -48zM732.001 609
c-20 130 -84.332 195 -192.999 195c-110.667 0 -181.334 -65 -212.001 -195h405z" />
    <glyph glyph-name="afii10072" unicode="&#x436;" horiz-adv-x="1404" vert-adv-y="2457" 
d="M580 0v415h-60l-244 -415h-290l341 518l-335 455h276l251 -362h61v362h243v-362h61l251 362h276l-335 -455l341 -518h-290l-244 415h-60v-415h-243z" />
    <glyph glyph-name="afii10073" unicode="&#x437;" horiz-adv-x="963" vert-adv-y="2457" 
d="M409 585h50.999l36 -1c40 0 71.667 10 95 30c20.667 18.667 31 43 31 73c0 36.667 -14.667 65.334 -44 86.001c-24 16.667 -56.667 25 -98 25c-56 0 -97.667 -18.333 -125 -55c-6.66699 -8.66699 -20 -41.334 -40 -98.001l-236 23c12.667 91.333 45 163.666 97 216.999
c74 76 178.667 114 314 114c97.333 0 179 -17.333 245 -52c95.333 -50.667 143 -130.667 143 -240c0 -124.667 -65.333 -197 -196 -217c141.333 -19.333 212 -94.333 212 -225c0 -104.667 -42 -181.667 -126 -231c-69.333 -41.333 -159 -62 -269 -62
c-151.333 0 -264.666 46.333 -339.999 139c-47.333 56.667 -77 125.334 -89 206.001l243 16c14.667 -106 73.667 -159 177 -159c40.667 0 74.667 8.66699 102 26c30 19.333 45 48 45 86c0 43.333 -18.667 73.333 -56 90c-18.667 8 -55 12 -109 12h-63v197z" />
    <glyph glyph-name="afii10074" unicode="&#x438;" horiz-adv-x="1151" vert-adv-y="2457" 
d="M770 532l-383 -442v-90h-246v973h246v-533l383 442v91h246v-973h-246v532z" />
    <glyph glyph-name="afii10075" unicode="&#x439;" horiz-adv-x="1151" vert-adv-y="2457" 
d="M325 1399h103.998c18.667 -39.333 37.334 -69 56.001 -89c32.667 -35.333 73.334 -53 122.001 -53c46 0 83.667 17.333 113 52c17.333 20.667 35.333 50.667 54 90h105c-8.66699 -74.667 -29.667 -137 -63 -187c-48 -72.667 -117 -109 -207 -109
c-93.333 0 -166.333 37 -219 111c-36 49.333 -57.667 111 -65 185zM769.998 532l-383 -442v-90h-246v973h246v-533l383 442v91h246v-973h-246v532z" />
    <glyph glyph-name="afii10076" unicode="&#x43a;" horiz-adv-x="1098" vert-adv-y="2457" 
d="M754 973h303l-366 -451l398 -522h-337l-356 519zM141 973h253v-973h-253v973z" />
    <glyph glyph-name="afii10077" unicode="&#x43b;" horiz-adv-x="1116" vert-adv-y="2457" 
d="M722 776h-269l-30 -425c-5.33301 -75.333 -17 -135.333 -35 -180c-36.667 -91.333 -107.667 -147 -213 -167c-28 -5.33301 -77.333 -9 -148 -11v197h12c42.667 0 76.667 12 102 36c18 16.667 30.333 38.667 37 66c4 15.333 6.66699 41 8 77l32 604h757v-973h-253v776z
" />
    <glyph glyph-name="afii10078" unicode="&#x43c;" horiz-adv-x="1438" vert-adv-y="2457" 
d="M842 0h-245l-224 748v-748h-232v973h370l208 -717l209 717h370v-973h-232v748z" />
    <glyph glyph-name="afii10079" unicode="&#x43d;" horiz-adv-x="1129" vert-adv-y="2457" 
d="M735 414h-341v-414h-253v973h253v-362h341v362h253v-973h-253v414z" />
    <glyph glyph-name="afii10080" unicode="&#x43e;" horiz-adv-x="1097" vert-adv-y="2457" 
d="M548 1000c123.333 0 229.333 -39.002 318 -117.002c108 -96 162 -228.333 162 -397c0 -168 -54 -300 -162 -396c-88 -78 -193.667 -117 -317 -117c-124 0 -230 39 -318 117c-108.667 96.667 -163 231.334 -163 404.001c0 114.667 29 215.334 87 302.001
c49.333 74.667 117.333 130 204 166c60 25.333 123 38 189 38zM548 797.998c-66 0 -118.667 -27.335 -158 -82.002c-43.333 -60 -65 -135 -65 -225c0 -96 21.667 -174.333 65 -235c39.333 -54 92 -81 158 -81s118.667 27 158 81c43.333 60.667 65 137.334 65 230.001
c0 94.667 -21.667 171.334 -65 230.001c-40 54.667 -92.667 82 -158 82z" />
    <glyph glyph-name="afii10081" unicode="&#x43f;" horiz-adv-x="1129" vert-adv-y="2457" 
d="M735 776h-341v-776h-253v973h847v-973h-253v776z" />
    <glyph glyph-name="afii10082" unicode="&#x440;" horiz-adv-x="1123" vert-adv-y="2457" 
d="M140 -403l-0.00195312 1067c-1.33301 118 -2.66602 186 -3.99902 204c-2 32 -6.33301 67 -13 105h235c12 -33.333 17.667 -71.333 17 -114c24.667 33.333 50 59.333 76 78c52 37.333 116 56 192 56c107.333 0 196.333 -35 267 -105c96 -95.333 144 -226.666 144 -393.999
c0 -188 -57 -331.333 -171 -430c-66 -56.667 -143 -85 -231 -85c-101.333 0 -187.666 42 -258.999 126v-508h-253zM596.998 782.999c-55.333 0 -99.666 -18.667 -132.999 -56c-50.667 -56.667 -76 -138.667 -76 -246c0 -98.667 23.333 -174.667 70 -228
c37.333 -42 83.666 -63 138.999 -63c56 0 99.333 18.667 130 56c46.667 57.333 70 138.666 70 243.999c0 96.667 -21.333 173.334 -64 230.001c-30.667 42 -76 63 -136 63z" />
    <glyph glyph-name="afii10083" unicode="&#x441;" horiz-adv-x="1017" vert-adv-y="2457" 
d="M942 651h-247.002c-15.333 98 -67.666 147 -156.999 147c-58.667 0 -105.667 -22 -141 -66c-48 -60.667 -72 -143 -72 -247c0 -117.333 27.667 -204.666 83 -261.999c30.667 -32 73 -48 127 -48c98.667 0 155.334 57 170.001 171h244
c-5.33301 -100.667 -42.666 -187 -111.999 -259c-73.333 -76 -174 -114 -302 -114c-130.667 0 -238.334 42 -323.001 126c-96 96 -144 225 -144 387c0 114 25.667 214 77 300c84 142.667 215.667 214 395 214c138.667 0 245.334 -45.667 320.001 -137
c43.333 -52.667 70.666 -123.334 81.999 -212.001z" />
    <glyph glyph-name="afii10084" unicode="&#x442;" horiz-adv-x="842" vert-adv-y="2457" 
d="M548 776v-776h-253v776h-281v197h814v-197h-280z" />
    <glyph glyph-name="afii10085" unicode="&#x443;" horiz-adv-x="1022" vert-adv-y="2457" 
d="M33 973h267l217 -741l225 741h262l-330 -946c-36 -102.667 -62 -169.667 -78 -201c-39.333 -76.667 -85.333 -132.667 -138 -168c-68.667 -46 -170.334 -69 -305.001 -69c-17.333 0 -49 0.666992 -95 2v219c60.667 0 105.334 1 134.001 3c64 5.33301 112 27 144 65
c15.333 18.667 29 44.667 41 78z" />
    <glyph glyph-name="afii10086" unicode="&#x444;" horiz-adv-x="1475" vert-adv-y="2457" 
d="M614 1374l245.998 -0.000976562v-453c24 26 46.667 44.333 68 55c32.667 16 73 24 121 24c99.333 0 179.666 -37 240.999 -111c77.333 -93.333 116 -227.333 116 -402c0 -176 -38.667 -310.333 -116 -403c-61.333 -74 -142.666 -111 -243.999 -111
c-47.333 0 -87.666 9 -120.999 27c-19.333 10 -41 27.333 -65 52v-455h-246v455c-30 -30 -59 -50.667 -87 -62c-27.333 -11.333 -60.333 -17 -99 -17c-101.333 0 -182.666 37 -243.999 111c-77.333 92.667 -116 227 -116 403c0 174.667 38.667 308.667 116 402
c61.333 74 141.333 111 240 111c56 0 101.667 -11 137 -33c15.333 -9.33301 33 -24.666 53 -45.999v453zM992.998 797.999c-50 0 -85.333 -25.667 -106 -77c-18 -45.333 -27 -125 -27 -239c0 -110 9 -187 27 -231c21.333 -50 57 -75 107 -75c103.333 0 155 104.667 155 314
c0 205.333 -52 308 -156 308zM480.998 797.999c-104 0 -156 -102.668 -156 -308.001c0 -209.333 51.667 -314 155 -314c50 0 85.667 25 107 75c18 44 27 121 27 231c0 112.667 -9 192.334 -27 239.001c-20 51.333 -55.333 77 -106 77z" />
    <glyph glyph-name="afii10087" unicode="&#x445;" horiz-adv-x="1026" vert-adv-y="2457" 
d="M51 973h301l161 -272l164 272h300l-309 -454l356 -519h-306l-206 322l-204 -322h-306l358 519z" />
    <glyph glyph-name="afii10088" unicode="&#x446;" horiz-adv-x="1131" vert-adv-y="2457" 
d="M988 197h120v-402h-253v205h-714v973h253v-776h341v776h253v-776z" />
    <glyph glyph-name="afii10089" unicode="&#x447;" horiz-adv-x="1071" vert-adv-y="2457" 
d="M678 347c-78.667 -54 -169.666 -81 -272.999 -81c-96.667 0 -173.334 30 -230.001 90c-52.667 56 -79 134.667 -79 236v381h253v-311c0 -50 6.33301 -86.667 19 -110c22.667 -42.667 64 -64 124 -64c77.333 0 139.333 25 186 75v410h253v-973h-253v347z" />
    <glyph glyph-name="afii10090" unicode="&#x448;" horiz-adv-x="1560" vert-adv-y="2457" 
d="M1166 197v776h253v-973h-1278v973h253v-776h260v776h253v-776h259z" />
    <glyph glyph-name="afii10091" unicode="&#x449;" horiz-adv-x="1562" vert-adv-y="2457" 
d="M1419 197h120v-402h-253v205h-1145v973h253v-776h260v776h253v-776h259v776h253v-776z" />
    <glyph glyph-name="afii10092" unicode="&#x44a;" horiz-adv-x="1076" vert-adv-y="2457" 
d="M0 973l513 -0.000976562v-339h162c116.667 0 202.667 -19.333 258 -58c77.333 -54 116 -136.667 116 -248c0 -69.333 -17 -131.666 -51 -186.999c-58 -94 -149.333 -141 -274 -141h-464v776h-260v197zM513 443.999v-255h136c99.333 0 149 42.333 149 127
c0 85.333 -49.667 128 -149 128h-136z" />
    <glyph glyph-name="afii10093" unicode="&#x44b;" horiz-adv-x="1418" vert-adv-y="2457" 
d="M394 444v-255h137c98.667 0 148 42.333 148 127c0 85.333 -49.333 128 -148 128h-137zM394 634h162c116.667 0 202.667 -19.333 258 -58c77.333 -54 116 -136.667 116 -248c0 -70 -17 -132.333 -51 -187c-58 -94 -149.333 -141 -274 -141h-464v973h253v-339zM1025 973
h253v-973h-253v973z" />
    <glyph glyph-name="afii10094" unicode="&#x44c;" horiz-adv-x="956" vert-adv-y="2457" 
d="M394 444v-255h137c98.667 0 148 42.333 148 127c0 85.333 -49.333 128 -148 128h-137zM394 634h162c116.667 0 202.667 -19.333 258 -58c77.333 -54 116 -136.667 116 -248c0 -70 -17 -132.333 -51 -187c-58 -94 -149.333 -141 -274 -141h-464v973h253v-339z" />
    <glyph glyph-name="afii10095" unicode="&#x44d;" horiz-adv-x="1017" vert-adv-y="2457" 
d="M688 585c-28.667 142 -96.333 212.999 -203 212.999c-90 0 -142.667 -48.333 -158 -145l-243 24c12.667 84 45.334 153.333 98.001 208c74.667 76.667 174.667 115 300 115c121.333 0 221.666 -33.667 300.999 -101c114 -96 171 -233.667 171 -413
c0 -162.667 -48 -291.667 -144 -387c-84 -84 -191.667 -126 -323 -126c-228.667 0 -365.667 115.333 -411 346l242 17c16 -107.333 72.333 -161 169 -161c76.667 0 133 35.333 169 106c12.667 24.667 23.667 60.334 33 107.001h-274v197h273z" />
    <glyph glyph-name="afii10096" unicode="&#x44e;" horiz-adv-x="1584" vert-adv-y="2457" 
d="M568 611c18 85.333 50.668 157.333 98.001 216c47.333 60 107.666 105 180.999 135c60 25.333 123 38 189 38c123.333 0 229 -39.333 317 -118c108.667 -96 163 -228 163 -396s-54.333 -300 -163 -396c-88 -78 -193.667 -117 -317 -117c-93.333 0 -179 24 -257 72
c-126 78 -199 201 -219 369h-166v-414h-253v973h253v-362h174zM1036 798c-66 0 -118.666 -27.334 -157.999 -82.001c-43.333 -60 -65 -135.333 -65 -226c0 -96 21.667 -174 65 -234c39.333 -54 92 -81 158 -81s118.667 27 158 81c43.333 60.667 65 137.334 65 230.001
c0 94 -21.667 170.667 -65 230c-40.667 54.667 -93.334 82 -158.001 82z" />
    <glyph glyph-name="afii10097" unicode="&#x44f;" vert-adv-y="2457" 
d="M507 339l-186 -339h-253l212 363c-26.667 9.33301 -50 21 -70 35c-76.667 54 -115 136 -115 246c0 70 17 132.667 51 188c58 94 149.333 141 274 141h464v-973h-253v339h-124zM631 529v255h-137c-98.667 0 -148 -42.667 -148 -128c0 -84.667 49.333 -127 148 -127h137z
" />
    <glyph glyph-name="afii10071" unicode="&#x451;" horiz-adv-x="1054" vert-adv-y="2457" 
d="M985 425h-664.999c3.33301 -66.667 20 -121 50 -163c41.333 -58 103.333 -87 186 -87c92 0 154.667 36 188 108l223 -9c-16 -70.667 -50.667 -132.667 -104 -186c-76.667 -76.667 -181.334 -115 -314.001 -115c-112.667 0 -207.667 26 -285 78
c-69.333 46.667 -120.333 110.334 -153 191.001c-28.667 72.667 -43 150 -43 232c0 121.333 27.667 227.333 83 318c84.667 138.667 215 208 391 208c138.667 0 248.667 -49 330 -147c76 -92.667 114 -219.334 114 -380.001c0 -10 -0.333008 -26 -1 -48zM732.001 609
c-20 130 -84.332 195 -192.999 195c-110.667 0 -181.334 -65 -212.001 -195h405zM368.002 1400c37.333 0 69.334 -13.666 96.001 -40.999c27.333 -26.667 41 -59.334 41 -98.001c0 -38 -13.667 -70.667 -41 -98s-60 -41 -98 -41s-70.667 13.667 -98 41s-41 60 -41 98
c0 39.333 13.667 72 41 98c27.333 27.333 60.666 41 99.999 41zM731.003 1400c37.333 0 69.667 -13.668 97 -41.001s41 -60 41 -98s-13.667 -70.667 -41 -98s-60 -41 -98 -41s-71 13.667 -99 41c-26.667 26.667 -40 59.334 -40 98.001c0 39.333 13.333 72 40 98
c28 27.333 61.333 41 100 41z" />
    <glyph glyph-name="afii10099" unicode="&#x452;" horiz-adv-x="1137" vert-adv-y="2457" 
d="M502 -347l0.00195312 216h31c73.333 0 125.666 10.333 156.999 31c18 12 32.333 28.333 43 49c11.333 21.333 17 40 17 56v501c0 86.667 -8.33301 146.667 -25 180c-27.333 56.667 -74 85 -140 85c-76 0 -131 -34 -165 -102c-18 -36.667 -27 -93.667 -27 -171v-498h-253
v1081h-122v164h122v129h253v-129h273v-164h-273v-215c74 84.667 167 127 279 127c68.667 0 130.667 -15.667 186 -47c68.667 -38.667 112.667 -99 132 -181c8.66699 -36.667 13 -104.667 13 -204v-566c0 -117.333 -42.333 -205 -127 -263
c-78.667 -53.333 -185.334 -80 -320.001 -80c-10.667 0 -28.667 0.333008 -54 1z" />
    <glyph glyph-name="afii10100" unicode="&#x453;" horiz-adv-x="787" vert-adv-y="2457" 
d="M394 776v-776h-253v973h633v-197h-380zM287 1109l243 311h306l-355 -311h-194z" />
    <glyph glyph-name="afii10101" unicode="&#x454;" horiz-adv-x="1017" vert-adv-y="2457" 
d="M334 585h273.001v-197h-274c11.333 -56 26.333 -98.333 45 -127c36 -57.333 88.333 -86 157 -86c96.667 0 153 53.667 169 161l242 -17c-22 -104 -58.333 -181.667 -109 -233c-75.333 -75.333 -176 -113 -302 -113c-130.667 0 -238.334 42 -323.001 126
c-96 95.333 -144 224.333 -144 387c0 179.333 57 317 171 413c79.333 67.333 179.666 101 300.999 101c138 0 244.667 -45.667 320 -137c40.667 -50.667 66.667 -112.667 78 -186l-243 -24c-15.333 96.667 -67.666 145 -156.999 145c-107.333 0 -175.333 -71 -204 -213z" />
    <glyph glyph-name="afii10102" unicode="&#x455;" horiz-adv-x="993" vert-adv-y="2457" 
d="M898 678l-243.001 0.00195312c-12 89.333 -64.667 134 -158 134c-35.333 0 -66 -8.33301 -92 -25c-28.667 -18.667 -43 -44 -43 -76c0 -30 13.667 -53.333 41 -70c20.667 -12.667 86.334 -35 197.001 -67c86.667 -25.333 148.334 -48.333 185.001 -69
c80 -46 120 -119.333 120 -220c0 -96 -33.667 -172 -101 -228s-165.666 -84 -294.999 -84c-200.667 0 -332.334 59.667 -395.001 179c-24.667 48 -37 105.667 -37 173h238c4 -54.667 17.333 -93 40 -115c31.333 -31.333 79.666 -47 144.999 -47c42 0 76.333 7.33301 103 22
c33.333 18 50 45.667 50 83c0 32 -22 57.667 -66 77c-20 8.66699 -88.667 30.667 -206 66c-98 29.333 -164.667 61.666 -200 96.999c-45.333 45.333 -68 104.333 -68 177c0 92 34.333 167 103 225c71.333 60.667 167 91 287 91c164 0 279.333 -53 346 -159
c28 -44.667 44.333 -99.334 49 -164.001z" />
    <glyph glyph-name="afii10103" unicode="&#x456;" horiz-adv-x="534" vert-adv-y="2457" 
d="M141 973h253v-973h-253v973zM271 1392c42 0 75.667 -12.333 101 -37c28 -26.667 42 -63 42 -109c0 -45.333 -14.333 -81.666 -43 -108.999c-25.333 -25.333 -60 -38 -104 -38c-45.333 0 -81 13.333 -107 40c-26 25.333 -39 59.666 -39 102.999c0 48.667 14.667 86 44 112
c28 25.333 63.333 38 106 38z" />
    <glyph glyph-name="afii10104" unicode="&#x457;" horiz-adv-x="534" vert-adv-y="2457" 
d="M140 973h253v-973h-253v973zM100 1394c36 0 66.667 -12.667 92 -38c26 -26 39 -57.667 39 -95c0 -36.667 -13 -68 -39 -94s-57.333 -39 -94 -39s-68 13 -94 39s-39 57.333 -39 94c0 38 13 69.667 39 95s58 38 96 38zM437 1395c35.333 0 66 -12.999 92 -38.999
c26.667 -26.667 40 -58.334 40 -95.001c0 -36 -13.333 -67.333 -40 -94c-26 -26 -57.333 -39 -94 -39s-68 13 -94 39s-39 57.333 -39 94c0 38 13 69.667 39 95c26.667 26 58.667 39 96 39z" />
    <glyph glyph-name="afii10105" unicode="&#x458;" horiz-adv-x="556" vert-adv-y="2457" 
d="M169 973l252.998 0.000976562v-833c0 -106.667 -4.33301 -180.667 -13 -222c-20.667 -102.667 -72.667 -180.334 -156 -233.001c-65.333 -40.667 -159.666 -61 -282.999 -61c-10 0 -27.333 0.333008 -52 1v216h31c100.667 0 165.667 23.667 195 71
c12.667 20 20.334 49.333 23.001 88c1.33301 12 2 40.667 2 86v52v835zM300.998 1391c42 0 75.667 -12 101 -36c26.667 -25.333 40 -61.666 40 -108.999c0 -46.667 -13.667 -83 -41 -109c-26 -25.333 -60.667 -38 -104 -38c-46 0 -82 13.333 -108 40
c-26 26 -39 60.333 -39 103c0 47.333 15 84.666 45 111.999c26.667 24.667 62 37 106 37z" />
    <glyph glyph-name="afii10106" unicode="&#x459;" horiz-adv-x="1538" vert-adv-y="2457" 
d="M975 444v-255h136c99.333 0 149 42.333 149 127c0 85.333 -49.667 128 -149 128h-136zM976 634l162.001 -0.000976562c116.667 0 202.667 -19.333 258 -58c77.333 -54 116 -136.667 116 -248c0 -119.333 -43.333 -209.666 -130 -270.999
c-53.333 -38 -118.333 -57 -195 -57h-464v776h-269l-31 -425c-5.33301 -75.333 -17 -135.333 -35 -180c-36.667 -91.333 -107.667 -147 -213 -167c-28 -5.33301 -77.333 -9 -148 -11v197h11c43.333 0 77.666 12 102.999 36c18 16.667 30.333 38.667 37 66
c4 15.333 7 41 9 77l32 604h757v-339z" />
    <glyph glyph-name="afii10107" unicode="&#x45a;" horiz-adv-x="1551" vert-adv-y="2457" 
d="M736 428h-342v-428h-253v973h253v-348h342v348h253v-348h162c116.667 0 202.667 -19 258 -57c77.333 -53.333 116 -134.666 116 -243.999c0 -68.667 -17 -130.334 -51 -185.001c-58 -92.667 -149.333 -139 -274 -139h-464v428zM989 428v-239h137c98.667 0 148 40 148 120
c0 79.333 -49.333 119 -148 119h-137z" />
    <glyph glyph-name="afii10108" unicode="&#x45b;" horiz-adv-x="1137" vert-adv-y="2457" 
d="M393 1245h272.999v-164h-273v-215c74.667 84.667 167.667 127 279 127c68.667 0 130.667 -15.667 186 -47c68.667 -38.667 112.667 -99 132 -181c8.66699 -36.667 13 -104.667 13 -204v-561h-253v506c0 86.667 -8.33301 146.667 -25 180
c-27.333 56.667 -73.666 85 -138.999 85c-76.667 0 -131.667 -34 -165 -102c-18.667 -36.667 -28 -93.667 -28 -171v-498h-253v1081h-122v164h122v129h253v-129z" />
    <glyph glyph-name="afii10109" unicode="&#x45c;" horiz-adv-x="1098" vert-adv-y="2457" 
d="M754 973h303l-366 -451l398 -522h-337l-356 519zM141 973h253v-973h-253v973zM429 1109l243 311h306l-355 -311h-194z" />
    <glyph glyph-name="afii10110" unicode="&#x45e;" horiz-adv-x="1022" vert-adv-y="2457" 
d="M33 973h267l217 -741l225 741h262l-330 -946c-36 -102.667 -62 -169.667 -78 -201c-39.333 -76.667 -85.333 -132.667 -138 -168c-68.667 -46 -170.334 -69 -305.001 -69c-17.333 0 -49 0.666992 -95 2v219c60.667 0 105.334 1 134.001 3c64 5.33301 112 27 144 65
c15.333 18.667 29 44.667 41 78zM256 1399h103.999c18.667 -39.333 37.334 -69 56.001 -89c32.667 -35.333 73 -53 121 -53c46.667 0 84.667 17.333 114 52c17.333 20.667 35.333 50.667 54 90h104c-8 -74.667 -28.667 -137 -62 -187c-48 -72.667 -117 -109 -207 -109
c-93.333 0 -166.333 37 -219 111c-36 49.333 -57.667 111 -65 185z" />
    <glyph glyph-name="afii10193" unicode="&#x45f;" horiz-adv-x="1129" vert-adv-y="2457" 
d="M439 0h-298v973h253v-776h341v776h253v-973h-296v-205h-253v205z" />
    <glyph glyph-name="afii10050" unicode="&#x490;" horiz-adv-x="1054" vert-adv-y="2457" 
d="M1025 1534v-393h-592v-1141h-269v1365h592v169h269z" />
    <glyph glyph-name="afii10098" unicode="&#x491;" horiz-adv-x="787" vert-adv-y="2457" 
d="M774 1086v-310h-380v-776h-253v973h380v113h253z" />
    <glyph glyph-name="hyphen" unicode="&#x2010;" horiz-adv-x="535" vert-adv-y="2457" 
d="M0 607h535v-182h-535v182z" />
    <glyph glyph-name="nbhyphen" unicode="&#x2011;" horiz-adv-x="535" vert-adv-y="2457" 
d="M0 607h535v-182h-535v182z" />
    <glyph glyph-name="figuredash" unicode="&#x2012;" vert-adv-y="2457" 
d="M91 607h842v-182h-842v182z" />
    <glyph glyph-name="endash" unicode="&#x2013;" vert-adv-y="2457" 
d="M91 607h842v-182h-842v182z" />
    <glyph glyph-name="emdash" unicode="&#x2014;" horiz-adv-x="1297" vert-adv-y="2457" 
d="M0 607h1297v-182h-1297v182z" />
    <glyph glyph-name="horizontalbar" unicode="&#x2015;" horiz-adv-x="1297" vert-adv-y="2457" 
d="M0 607h1297v-182h-1297v182z" />
    <glyph glyph-name="quoteleft" unicode="&#x2018;" horiz-adv-x="424" vert-adv-y="2457" 
d="M219 1392l116 -0.000976562c-62.667 -80.667 -96.334 -159.667 -101.001 -237c89.333 -11.333 134 -52.666 134 -123.999c0 -39.333 -14 -72 -42 -98c-27.333 -26 -60.666 -39 -99.999 -39c-44 0 -80 17 -108 51c-27.333 34 -41 78.333 -41 133
c0 91.333 47.333 196 142 314z" />
    <glyph glyph-name="quoteright" unicode="&#x2019;" horiz-adv-x="424" vert-adv-y="2457" 
d="M205 894l-115.999 -0.00292969c61.333 78 94.666 156.667 99.999 236c-89.333 12 -134 53.667 -134 125c0 38.667 14.333 71.334 43 98.001c26.667 25.333 59.667 38 99 38c44.667 0 81 -17 109 -51c26.667 -33.333 40 -77.666 40 -132.999
c0 -95.333 -47 -199.666 -141 -312.999z" />
    <glyph glyph-name="quotesinglbase" unicode="&#x201a;" horiz-adv-x="424" vert-adv-y="2457" 
d="M205 -231l-115.999 -0.00292969c61.333 78 94.666 156.667 99.999 236c-89.333 12 -134 53.667 -134 125c0 38.667 14.333 71.334 43 98.001c26.667 25.333 59.667 38 99 38c44 0 80.333 -17 109 -51c26.667 -33.333 40 -77.666 40 -132.999
c0 -95.333 -47 -199.666 -141 -312.999z" />
    <glyph glyph-name="quotereversed" unicode="&#x201b;" horiz-adv-x="512" vert-adv-y="2457" 
 />
    <glyph glyph-name="quotedblleft" unicode="&#x201c;" horiz-adv-x="776" vert-adv-y="2457" 
d="M572 1392l114.999 -0.000976562c-62 -81.333 -95.333 -160.333 -100 -237c89.333 -11.333 134 -52.666 134 -123.999c0 -39.333 -14 -72 -42 -98c-27.333 -26 -60.666 -39 -99.999 -39c-44.667 0 -80.667 17 -108 51s-41 78.667 -41 134c0 90.667 47.333 195 142 313z
M218.999 1392l116 -0.000976562c-62.667 -80.667 -96.334 -159.667 -101.001 -237c89.333 -11.333 134 -52.666 134 -123.999c0 -39.333 -14 -72 -42 -98c-27.333 -26 -60.666 -39 -99.999 -39c-44 0 -80 17 -108 51c-27.333 34 -41 78.333 -41 133
c0 91.333 47.333 196 142 314z" />
    <glyph glyph-name="quotedblright" unicode="&#x201d;" horiz-adv-x="776" vert-adv-y="2457" 
d="M205 894l-115.999 -0.00292969c61.333 78 94.666 156.667 99.999 236c-89.333 12 -134 53.667 -134 125c0 38.667 14.333 71.334 43 98.001c26.667 25.333 59.667 38 99 38c44.667 0 81 -17 109 -51c26.667 -33.333 40 -77.666 40 -132.999
c0 -95.333 -47 -199.666 -141 -312.999zM557.001 893.997l-114.999 -0.00195312c62 78.667 95.333 157.334 100 236.001c-89.333 12 -134 53.667 -134 125c0 38.667 14 71.334 42 98.001c27.333 25.333 60.666 38 99.999 38c44.667 0 80.667 -17 108 -51s41 -78.333 41 -133
c0 -94.667 -47.333 -199 -142 -313z" />
    <glyph glyph-name="quotedblbase" unicode="&#x201e;" horiz-adv-x="776" vert-adv-y="2457" 
d="M205 -231l-115.999 -0.00292969c61.333 78 94.666 156.667 99.999 236c-89.333 12 -134 53.667 -134 125c0 38.667 14.333 71.334 43 98.001c26.667 25.333 59.667 38 99 38c44 0 80.333 -17 109 -51c26.667 -33.333 40 -77.666 40 -132.999
c0 -95.333 -47 -199.666 -141 -312.999zM557.001 -231.003l-114.999 -0.00195312c62 78.667 95.333 157.334 100 236.001c-89.333 12 -134 53.667 -134 125c0 38.667 14 71.334 42 98.001c27.333 25.333 60.666 38 99.999 38c44.667 0 80.667 -17 108 -51
s41 -78.333 41 -133c0 -94.667 -47.333 -199 -142 -313z" />
    <glyph glyph-name="dagger" unicode="&#x2020;" vert-adv-y="2457" 
d="M393 1331h240v-374h287v-193h-287v-1033h-240v1033h-288v193h288v374z" />
    <glyph glyph-name="daggerdbl" unicode="&#x2021;" vert-adv-y="2457" 
d="M392 1331h236v-188h294v-195h-294v-777h294v-195h-294v-245h-236v245h-289v195h289v777h-289v195h289v188z" />
    <glyph glyph-name="bullet" unicode="&#x2022;" horiz-adv-x="1365" vert-adv-y="2457" 
d="M687 978c80 0 144.668 -26.334 194.001 -79.001c26 -26.667 46.667 -57.667 62 -93c17.333 -40 26 -76.667 26 -110c0 -46.667 -15.667 -96 -47 -148c-27.333 -46.667 -64.333 -82 -111 -106c-40.667 -21.333 -83.334 -32 -128.001 -32
c-76.667 0 -142.667 27.667 -198 83c-56 56.667 -84 124.334 -84 203.001c0 80.667 28 148.667 84 204c52 52 119.333 78 202 78z" />
    <glyph glyph-name="ellipsis" unicode="&#x2026;" horiz-adv-x="1462" vert-adv-y="2457" 
d="M259 298c38.667 0 75.332 -16 109.999 -48c29.333 -27.333 44 -64 44 -110c0 -44 -14.667 -80.333 -44 -109c-31.333 -30.667 -68.666 -46 -111.999 -46s-80.333 15.333 -111 46c-30.667 30 -46 66.333 -46 109c0 44 15.333 80.667 46 110c33.333 32 71 48 113 48z
M732.998 298c38.667 0 75 -16.002 109 -48.002c30 -28 45 -64.667 45 -110c0 -43.333 -15 -79.666 -45 -108.999c-31.333 -30.667 -68.333 -46 -111 -46c-43.333 0 -80.333 15.333 -111 46c-30.667 30 -46 66.333 -46 109c0 44.667 15.333 81.334 46 110.001
c33.333 32 71 48 113 48zM1207 297.998c40 0 76.332 -16.001 108.999 -48.001c30 -28.667 45 -65.334 45 -110.001c0 -43.333 -15 -79.666 -45 -108.999c-31.333 -30.667 -68.333 -46 -111 -46c-43.333 0 -80.666 15.333 -111.999 46c-30 30 -45 66.333 -45 109
c0 44.667 15 81.334 45 110.001c33.333 32 71.333 48 114 48z" />
    <glyph glyph-name="perthousand" unicode="&#x2030;" horiz-adv-x="2142" vert-adv-y="2457" 
d="M1024 1365h200l-791 -1365h-201zM1105 650c40.667 0 82 -10.6689 124 -32.002c56.667 -29.333 99.667 -74.666 129 -135.999c24 -52 36 -106.333 36 -163c0 -55.333 -12 -109.333 -36 -162c-28.667 -60.667 -71.667 -106 -129 -136c-40 -20.667 -82 -31 -126 -31
c-78.667 0 -146 31.333 -202 94s-84 141.334 -84 236.001c0 104.667 33.333 188.667 100 252c54 52 116.667 78 188 78zM1107 509.998c-40.667 0 -73.001 -18.332 -97.001 -54.999c-22.667 -34.667 -34 -79.667 -34 -135c0 -60.667 13 -108 39 -142c24 -32 54 -48 90 -48
c39.333 0 71 18.333 95 55c23.333 34.667 35 79.667 35 135c0 59.333 -13.333 106.666 -40 141.999c-23.333 32 -52.666 48 -87.999 48zM1788 649.999c40.667 0 81.668 -10.6689 123.001 -32.002c57.333 -29.333 100.333 -74.666 129 -135.999c24 -50.667 36 -105 36 -163
c0 -104 -33.333 -187.667 -100 -251c-54 -52 -117.667 -78 -191 -78c-78 0 -145 31.333 -201 94c-56.667 62.667 -85 141.334 -85 236.001c0 56.667 12 110.667 36 162c28.667 60.667 71.667 106 129 136c41.333 21.333 82.666 32 123.999 32zM1789 509.997
c-40 0 -72.333 -18.333 -97 -55c-22.667 -34.667 -34 -79.667 -34 -135c0 -60 13 -107.333 39 -142c24 -32 54.333 -48 91 -48c39.333 0 71 18.333 95 55c22.667 34 34 79 34 135c0 60 -13 107.333 -39 142c-24 32 -53.667 48 -89 48zM354 1375
c80.667 0 148.667 -31.3311 204 -93.998c56.667 -62.667 85 -141.334 85 -236.001c0 -104 -33.333 -188 -100 -252c-54.667 -52 -118.334 -78 -191.001 -78c-39.333 0 -79.666 10.667 -120.999 32c-57.333 29.333 -100.333 74.666 -129 135.999
c-24 51.333 -36 105.333 -36 162c0 104.667 33.333 189 100 253c54 51.333 116.667 77 188 77zM356 1235c-40.667 0 -73 -18.334 -97 -55.001c-22.667 -34 -34 -79 -34 -135c0 -59.333 13 -106.666 39 -141.999c24 -32 54 -48 90 -48c39.333 0 71.333 18.333 96 55
c22.667 34.667 34 79.667 34 135c0 60 -13 107.667 -39 143c-24 31.333 -53.667 47 -89 47z" />
    <glyph glyph-name="guilsinglleft" unicode="&#x2039;" horiz-adv-x="622" vert-adv-y="2457" 
d="M499 0h-221l-223 476l223 504h221l-184 -504z" />
    <glyph glyph-name="guilsinglright" unicode="&#x203a;" horiz-adv-x="622" vert-adv-y="2457" 
d="M123 980h221l223 -475l-223 -505h-221l185 505z" />
    <glyph glyph-name="Euro" unicode="&#x20ac;" horiz-adv-x="1167" vert-adv-y="2457" 
d="M435 867h568.001l-67 -143h-518c-0.666992 -18 -1 -39.333 -1 -64c0 -24 0.666992 -44 2 -60h461l-66 -143h-369c10 -75.333 29 -132 57 -170c47.333 -62.667 122.333 -94 225 -94c107.333 0 198.666 31.333 273.999 94c43.333 36 84.666 90 123.999 162v-298
c-45.333 -48.667 -90 -85 -134 -109c-84 -46.667 -186 -70 -306 -70c-198 0 -339.333 70 -424 210c-37.333 63.333 -65.333 155 -84 275h-177l63 143h99c-0.666992 10.667 -1 33.667 -1 69c0 24.667 0.666992 43 2 55h-148l63 143h100c20 108.667 52 200 96 274
c100 166 250.667 249 452 249c180.667 0 323.334 -63.667 428.001 -191l-106 -232c-32 48.667 -61 86.667 -87 114c-64 65.333 -141.667 98 -233 98c-108.667 0 -188.667 -48.667 -240 -146c-22 -42 -39.667 -97.333 -53 -166z" />
    <glyph glyph-name="numero" unicode="&#x2116;" horiz-adv-x="1973" vert-adv-y="2457" 
d="M164 1365h279l556 -961v961h249v-1365h-263l-572 961v-961h-249v1365zM1378 275h568v-197h-568v197zM1662 944c72.667 0 135.334 -23.334 188.001 -70.001c64 -56.667 96 -134.667 96 -234s-32 -177.333 -96 -234c-52.667 -46.667 -115.334 -70 -188.001 -70
c-73.333 0 -136 23.333 -188 70c-64 56.667 -96 136 -96 238c0 98.667 32 175.334 96 230.001c54 46.667 116.667 70 188 70zM1662 775.999c-28.667 0 -51.667 -11.667 -69 -35c-18.667 -26 -28 -59 -28 -99c0 -42.667 9.33301 -76.667 28 -102
c17.333 -24 40.333 -36 69 -36s51.667 12 69 36c18.667 26 28 59.333 28 100c0 41.333 -9.33301 75 -28 101c-18 23.333 -41 35 -69 35z" />
    <glyph glyph-name="trademark" unicode="&#x2122;" horiz-adv-x="1697" vert-adv-y="2457" 
d="M11 1365h617v-141h-223v-678h-171v678h-223v141zM711 1365h236l221 -636l223 636h234v-819h-155v612l-215 -612h-176l-213 612v-612h-155v819z" />
    <glyph glyph-name="partialdiff" unicode="&#x2202;" vert-adv-y="2457" 
d="M133 1143l31.999 218.999c130 -15.333 242.333 -41 337 -77c120.667 -46 223.334 -119.667 308.001 -221c117.333 -141.333 176 -314.666 176 -519.999c0 -144.667 -31.333 -265 -94 -361c-42 -64 -96.333 -113.333 -163 -148c-66 -35.333 -140 -53 -222 -53
c-95.333 0 -181.333 25 -258 75c-52 33.333 -95.667 76 -131 128c-55.333 81.333 -83 169.666 -83 264.999c0 122.667 41 226.334 123 311.001c80.667 83.333 181 125 301 125c102 0 187 -33.333 255 -100c-32 70.667 -70.333 127.334 -115 170.001
c-110 103.333 -265.333 165.666 -466 186.999zM510.999 700.999c-56 0 -104.001 -20.001 -144.001 -60.001c-50.667 -50 -76 -116.667 -76 -200c0 -82.667 25.333 -151.667 76 -207c38.667 -42 86.334 -63 143.001 -63c68.667 0 123.667 29.667 165 89
c34.667 50.667 52 110.667 52 180c0 88.667 -26.333 157.334 -79 206.001c-39.333 36.667 -85 55 -137 55z" />
    <glyph glyph-name="Delta" unicode="&#x2206;" horiz-adv-x="1365" vert-adv-y="2457" 
d="M36 0l505 1365h274l514 -1365h-1293zM397 236h566l-283 822z" />
    <glyph glyph-name="periodcentered" unicode="&#x2219;" horiz-adv-x="515" vert-adv-y="2457" 
d="M259 671c38.667 0 75.332 -16 109.999 -48c29.333 -28 44 -64.667 44 -110c0 -44 -14.667 -80.333 -44 -109c-31.333 -30.667 -68.666 -46 -111.999 -46s-80.333 15.333 -111 46c-30.667 30 -46 66.333 -46 109c0 44 15.333 80.667 46 110c33.333 32 71 48 113 48z" />
    <glyph glyph-name="radical" unicode="&#x221a;" horiz-adv-x="1365" vert-adv-y="2457" 
d="M1365 1702l-0.00195312 -236h-369l-350 -1466h-333l-122 561h-191v236h399l41 -190c5.33301 -22 12 -71.667 20 -149c4.66699 -44.667 8.33398 -94.667 11.001 -150h21c14.667 190 47.334 393.333 98.001 610l186 784h589z" />
    <glyph glyph-name="infinity" unicode="&#x221e;" horiz-adv-x="1365" vert-adv-y="2457" 
d="M689 532c-98.667 -111.333 -206.667 -167.001 -324 -167.001c-104 0 -188 36 -252 108c-52.667 59.333 -79 134 -79 224c0 106.667 37 191 111 253c62.667 52 136 78 220 78c112.667 0 216.667 -55.333 312 -166c92 110.667 198.667 166 320 166
c112.667 0 201.334 -40.333 266.001 -121c44.667 -56.667 67 -126.667 67 -210c0 -105.333 -35 -188.666 -105 -249.999c-62.667 -55.333 -137.334 -83 -224.001 -83c-114.667 0 -218.667 56 -312 168zM807 696.999l6.00293 -9.99805
c0.666992 -0.666992 1.66699 -2.33398 3 -5.00098c45.333 -69.333 94.666 -104 147.999 -104c33.333 0 61.666 12 84.999 36c21.333 21.333 32 48.666 32 81.999c0 38 -14 68 -42 90c-22.667 18.667 -48 28 -76 28c-42.667 0 -82 -22 -118 -66
c-26.667 -32 -39.334 -49 -38.001 -51zM558.003 696.001c-2 3.33301 -4.33301 6.66699 -7 10l-3 5c-44.667 68.667 -93.667 103 -147 103c-34 0 -62.667 -12 -86 -36c-21.333 -22 -32 -49.333 -32 -82c0 -37.333 14 -67.333 42 -90c22 -18 47.667 -27 77 -27
c42 0 81.333 21.667 118 65c10 12 19.667 25 29 39z" />
    <glyph glyph-name="approxequal" unicode="&#x2248;" vert-adv-y="2457" 
d="M153 712l-139 90.998c34.667 82.667 68.334 144.334 101.001 185.001c50.667 62.667 119.667 94 207 94c45.333 0 116.333 -18 213 -54c67.333 -25.333 107.666 -39.666 120.999 -42.999c20 -4.66699 39.333 -7 58 -7c42.667 0 77 13.333 103 40c14 14 30.333 37 49 69
l143 -84c-29.333 -61.333 -54 -106.5 -74 -135.5s-44.333 -53.833 -73 -74.5c-54 -39.333 -112.333 -59 -175 -59c-29.333 0 -68.333 8 -117 24l-184 65c-28 10 -58 15 -90 15c-38 0 -70.667 -17 -98 -51c-10.667 -13.333 -25.667 -38.333 -45 -75zM153 304.998
l-138.998 90.999c34 82 67.667 143.333 101 184c51.333 64 120 96 206 96c46 0 117.333 -18.333 214 -55c88.667 -33.333 148.667 -50 180 -50c41.333 0 75.333 13.333 102 40c13.333 12.667 29.666 35.334 48.999 68.001l143 -83c-49.333 -104.667 -98 -174.667 -146 -210
c-54.667 -39.333 -113.667 -59 -177 -59c-34.667 0 -102.667 18.333 -204 55c-71.333 26 -113.333 40.333 -126 43c-18 4.66699 -34.667 7 -50 7c-34.667 0 -65.334 -11.333 -92.001 -34c-16 -14 -36.333 -45 -61 -93z" />
    <glyph glyph-name="notequal" unicode="&#x2260;" vert-adv-y="2457" 
d="M538 994l112 221l160 -81l-71 -140h217v-227h-320l-72 -142h392v-227h-494l-102 -200l-160 81l60 119h-192v227h295l72 142h-367v227h470z" />
    <glyph glyph-name="lessequal" unicode="&#x2264;" vert-adv-y="2457" 
d="M955 1356v-238l-620 -286l620 -286v-238l-887 414v212zM955 250v-236h-887v236h887z" />
    <glyph glyph-name="greaterequal" unicode="&#x2265;" vert-adv-y="2457" 
d="M68 308v238l620 287l-620 285v238l887 -423v-212zM68 14v236h887v-236h-887z" />
    <glyph glyph-name="glyph1" horiz-adv-x="0" vert-adv-y="0" 
 />
    <glyph glyph-name="glyph2" horiz-adv-x="512" vert-adv-y="2457" 
 />
    <glyph glyph-name="cent" horiz-adv-x="1167" vert-adv-y="2457" 
d="M668 1013v-597.996c64 23.333 101.333 76.666 112 159.999h243c-5.33301 -110.667 -49.333 -201.334 -132 -272.001c-58.667 -50.667 -133 -81.667 -223 -93v-187h-125v188c-105.333 18 -190.666 58.333 -255.999 121c-96 92.667 -144 218 -144 376
c0 115.333 25 215.666 75 300.999c69.333 118 179.666 188 330.999 210v151h125v-152c110 -16.667 195 -59.334 255 -128.001c46 -52 77.333 -123.333 94 -214h-253c-11.333 71.333 -45.333 117 -102 137zM549 1010c-99.333 -46 -149 -148 -149 -306
s49.667 -254.333 149 -289v595z" />
    <glyph glyph-name="sterling" horiz-adv-x="1167" vert-adv-y="2457" 
d="M565 803l316.998 -0.00195312v-180h-353c-11.333 -90 -29 -172 -53 -246c-18 -53.333 -47 -112.333 -87 -177c80 24 154.333 36 223 36c36.667 0 89.667 -3.33301 159 -10c18 -2 32.667 -3 44 -3c30.667 0 51.667 9.66699 63 29
c14.667 25.333 23.334 73.666 26.001 144.999h201c1.33301 -23.333 2 -39.666 2 -48.999c0 -102 -18.333 -182 -55 -240c-51.333 -81.333 -123.666 -122 -216.999 -122c-36.667 0 -83.667 3 -141 9c-114 12.667 -217 19 -309 19c-100.667 0 -208.667 -11.333 -324 -34
c36 44 64.333 89.333 85 136c34 75.333 67.667 197.333 101 366c10.667 52 18 98.333 22 139h-163v182h198c2 8 10.333 51.333 25 130c26.667 146 69.667 256.333 129 331c63.333 80.667 160 121 290 121c135.333 0 232.666 -41.333 291.999 -124
c36.667 -52 58.667 -129.333 66 -232h-219c-11.333 95.333 -55.333 143 -132 143c-56 0 -97.333 -27 -124 -81c-19.333 -38.667 -36 -99 -50 -181c-1.33301 -5.33301 -5.66602 -33.666 -12.999 -84.999c-0.666992 -3.33301 -1.66699 -10.666 -3 -21.999z" />
    <glyph glyph-name="florin" horiz-adv-x="1167" vert-adv-y="2457" 
d="M818 974l228.001 -0.00195312v-179h-260l-85 -485c-22 -123.333 -37 -202.666 -45 -237.999c-28.667 -122.667 -69 -209 -121 -259c-57.333 -54.667 -127 -82 -209 -82c-92.667 0 -190.334 31.333 -293.001 94l34 194c95.333 -52.667 173 -79 233 -79c36 0 63 14 81 42
c20.667 30.667 46.667 136.334 78 317.001l87 496h-197v179h229l17 98c24 136.667 54 231.667 90 285c55.333 80 137 120 245 120c76 0 154.333 -23.333 235 -70l-33 -189c-78 34.667 -135 52 -171 52c-48 0 -81.667 -30 -101 -90c-9.33301 -30 -20 -79 -32 -147z" />
    <glyph glyph-name="glyph172" horiz-adv-x="1167" vert-adv-y="1167" 
 />
    <glyph glyph-name="divide" horiz-adv-x="1167" vert-adv-y="2457" 
d="M585 496c35.333 0 68.332 -14.332 98.999 -42.999c26 -24.667 39 -57.334 39 -98.001c0 -40 -13 -73 -39 -99c-28 -27.333 -61.667 -41 -101 -41s-72.666 13.667 -99.999 41s-41 60 -41 98c0 40 13.667 73 41 99c30 28.667 64 43 102 43zM584.999 1152
c35.333 0 68.332 -14.333 98.999 -43c26 -24.667 39 -57.667 39 -99c0 -39.333 -13 -72 -39 -98c-28 -27.333 -61.667 -41 -101 -41s-72.666 13.667 -99.999 41s-41 60 -41 98c0 40 13.667 73 41 99c30 28.667 64 43 102 43zM96.998 779.001h973v-192h-973v192z" />
    <glyph glyph-name="glyph340" vert-adv-y="2457" 
d="M332 1400c37.333 0 69.334 -13.666 96.001 -40.999c27.333 -26.667 41 -59.334 41 -98.001c0 -38 -13.667 -70.667 -41 -98s-60 -41 -98 -41s-70.667 13.667 -98 41s-41 60 -41 98c0 39.333 13.667 72 41 98c27.333 27.333 60.666 41 99.999 41zM695.001 1400
c37.333 0 69.667 -13.668 97 -41.001s41 -60 41 -98s-13.667 -70.667 -41 -98s-60 -41 -98 -41s-71 13.667 -99 41c-26.667 26.667 -40 59.334 -40 98.001c0 39.333 13.333 72 40 98c28 27.333 61.333 41 100 41z" />
    <glyph glyph-name="glyph341" vert-adv-y="2457" 
d="M324 1783c40 0 74.666 -14.667 103.999 -44c29.333 -28.667 44 -64 44 -106s-14.667 -77.667 -44 -107s-64.666 -44 -105.999 -44c-42 0 -77.667 14.667 -107 44s-44 65 -44 107s14.667 77.333 44 106c30 29.333 66.333 44 109 44zM704.999 1783
c40.667 0 75.667 -14.666 105 -43.999c28.667 -28.667 43 -64 43 -106c0 -42.667 -14.333 -78.334 -43 -107.001c-30 -29.333 -65.667 -44 -107 -44s-77 14.667 -107 44c-29.333 30 -44 65.667 -44 107c0 42 14.667 77.333 44 106c30 29.333 66.333 44 109 44z" />
    </font>
</defs>
</svg>
